{"glyphs":{"0":{"ha":692,"x_min":71,"x_max":627,"o":"m 376 79 q 393 77 385 77 q 427 88 412 77 q 466 131 450 104 q 490 180 481 157 q 524 462 524 293 q 524 504 524 482 q 473 823 519 702 q 408 896 444 887 q 392 898 399 898 q 336 873 363 898 q 281 787 302 842 q 248 520 248 681 q 248 469 248 495 q 302 157 254 273 q 331 110 313 130 q 376 79 348 89 m 323 -28 q 188 35 236 -19 q 116 165 139 90 q 83 315 93 241 q 71 490 71 398 q 75 601 71 544 q 151 873 87 755 q 269 977 196 949 q 349 993 307 993 q 425 981 386 993 q 539 891 498 957 q 598 745 580 825 q 621 596 616 664 q 627 468 627 540 q 627 427 627 448 q 604 233 625 330 q 534 65 583 136 q 397 -24 484 -5 q 344 -28 370 -28 q 323 -28 334 -28 z "},"1":{"ha":692,"x_min":73,"x_max":541,"o":"m 339 922 q 425 976 382 965 q 450 979 438 979 q 500 961 478 979 q 537 866 532 935 q 539 793 539 831 q 537 718 539 756 q 536 640 536 677 q 535 566 536 603 q 534 451 534 508 q 540 134 534 293 q 541 112 541 123 q 529 38 541 72 q 454 -12 515 -5 l 446 -12 q 382 16 401 -12 q 361 93 363 47 l 361 115 q 364 181 361 149 q 366 218 366 201 q 370 503 370 360 q 369 661 370 582 q 367 780 368 720 l 367 783 q 366 796 366 789 q 365 808 366 803 q 354 800 363 808 q 334 779 345 791 q 315 758 323 766 q 309 750 311 751 q 274 712 292 732 q 192 625 233 667 q 159 596 179 612 q 117 577 139 581 q 112 576 115 576 q 80 595 94 576 q 73 617 73 606 q 80 642 73 629 q 119 696 94 669 q 166 743 144 723 q 184 761 177 754 q 269 848 227 804 q 339 922 304 886 z "},"2":{"ha":692,"x_min":96,"x_max":602,"o":"m 141 3 l 142 3 l 140 3 q 133 4 137 4 q 127 6 130 5 q 122 8 125 6 q 116 13 119 10 q 109 17 113 15 q 106 19 107 18 l 105 20 q 104 19 104 19 q 101 26 102 19 q 98 46 99 34 q 97 69 97 59 q 96 80 96 79 q 136 227 101 163 q 218 350 171 290 q 262 411 241 380 l 269 419 q 334 521 291 451 q 410 670 376 591 q 436 786 436 734 q 435 809 436 798 q 350 882 427 869 q 334 883 342 883 q 278 871 303 883 q 215 832 245 855 q 180 812 201 823 q 142 803 160 803 l 139 803 q 111 827 119 804 q 109 842 109 835 q 125 883 109 863 q 177 928 146 909 q 233 955 209 947 q 354 978 285 972 q 386 979 370 979 q 485 966 437 979 q 578 895 547 947 q 602 792 602 848 q 596 734 602 764 q 535 557 578 644 q 452 410 492 471 q 375 302 414 354 q 321 227 348 264 q 319 224 320 225 q 287 171 301 198 q 273 111 273 144 q 320 105 293 105 l 332 105 q 402 111 366 107 q 477 116 442 115 l 485 116 q 531 107 513 116 q 555 73 555 92 q 553 60 555 66 q 503 22 541 33 q 452 16 484 18 q 391 14 421 15 q 351 13 368 14 q 283 9 317 12 q 141 3 212 6 z "},"3":{"ha":692,"x_min":81,"x_max":594,"o":"m 422 722 q 427 759 427 741 q 403 835 427 799 q 312 886 365 886 q 298 885 305 886 q 187 831 235 878 l 177 821 q 145 795 162 804 q 130 792 138 792 q 104 799 119 792 q 81 832 81 812 q 82 838 81 835 q 102 882 85 861 q 243 974 162 952 q 332 985 286 985 q 412 977 372 985 q 562 879 515 954 q 594 764 594 827 q 587 700 594 733 q 521 567 566 624 q 415 463 477 511 q 391 429 391 444 q 393 421 391 425 q 430 388 402 404 q 446 378 437 383 q 539 287 498 340 q 590 172 579 233 q 592 143 592 157 q 566 45 592 95 q 444 -50 517 -29 q 336 -65 393 -65 q 288 -62 313 -65 q 177 -28 230 -57 q 100 56 123 0 q 94 85 94 73 q 103 109 94 100 q 123 115 111 115 q 157 106 137 115 l 167 101 q 210 73 189 88 q 279 35 243 47 q 302 32 290 32 q 364 50 330 32 q 417 117 408 76 q 420 142 420 130 q 405 203 420 172 q 330 289 369 259 q 256 336 290 319 q 191 386 211 358 q 183 416 183 401 q 190 444 183 429 q 232 498 204 472 q 287 543 260 524 q 308 559 299 552 q 375 628 345 591 q 419 713 404 666 l 422 722 z "},"4":{"ha":692,"x_min":33,"x_max":676,"o":"m 633 208 l 541 197 q 543 164 541 184 q 545 80 545 125 l 545 62 q 530 -19 545 9 q 464 -58 500 -58 q 443 -56 454 -58 q 374 28 392 -42 q 370 83 371 50 l 370 106 q 371 150 370 128 l 371 187 q 321 181 359 186 q 225 170 279 176 q 132 160 172 164 q 85 155 91 155 l 82 155 q 57 161 68 157 q 38 182 46 166 q 33 204 33 193 q 35 214 33 209 q 46 244 39 230 q 52 256 49 250 q 178 564 115 410 q 198 610 189 587 q 239 709 218 659 q 254 747 244 723 q 301 863 275 801 q 344 947 327 926 q 412 982 373 977 q 428 983 420 983 q 486 966 459 983 q 528 895 518 945 q 533 792 533 847 q 532 747 533 770 l 532 681 l 534 613 q 539 304 536 458 l 539 302 q 541 294 539 295 l 542 294 q 549 294 545 294 q 567 297 555 296 l 586 300 q 618 303 603 303 q 642 301 630 303 q 676 261 667 297 l 676 256 q 666 226 676 239 q 633 208 654 211 m 361 754 q 291 584 326 669 l 220 413 q 203 373 212 395 q 159 261 176 312 q 279 273 214 264 q 323 278 302 276 q 342 280 332 279 q 370 283 355 282 l 361 754 z "},"5":{"ha":692,"x_min":120,"x_max":616,"o":"m 291 880 q 278 875 283 878 q 261 832 271 869 q 242 748 252 795 q 228 665 233 701 q 222 625 222 629 q 253 598 229 600 q 271 597 262 597 q 303 600 286 597 q 326 602 315 602 q 365 604 346 604 q 494 582 436 604 q 603 457 567 554 q 616 359 616 408 q 593 233 616 295 q 464 45 552 123 q 262 -53 375 -33 q 223 -56 245 -56 l 214 -56 q 163 -44 186 -55 q 140 -7 141 -34 q 176 39 142 20 q 248 74 210 59 q 296 96 277 86 q 418 233 374 146 q 450 357 450 293 q 444 412 450 384 l 441 420 q 387 491 425 473 q 318 506 355 506 q 301 505 310 506 q 211 487 254 501 q 199 482 205 484 q 170 474 184 475 l 169 474 q 139 491 155 474 q 121 560 121 515 l 121 572 q 130 669 123 626 q 133 688 132 680 q 137 719 135 703 q 146 789 142 754 q 149 817 147 803 q 149 839 149 829 q 146 869 149 858 q 132 895 140 886 q 124 908 127 901 q 120 926 121 915 q 151 970 125 962 q 201 977 174 977 l 221 977 q 397 983 309 978 q 521 988 459 986 q 530 989 526 989 q 571 981 552 989 q 595 954 591 973 q 600 925 600 933 l 600 898 q 583 864 600 876 q 540 852 568 853 l 513 852 q 291 880 458 852 z "},"6":{"ha":692,"x_min":100,"x_max":648,"o":"m 523 913 q 444 830 481 873 q 376 739 406 788 q 358 708 370 732 q 333 656 346 684 q 312 606 320 628 q 307 585 307 593 q 309 578 307 581 q 321 576 312 576 q 335 577 327 576 q 354 578 344 578 q 402 575 374 578 q 491 545 444 570 q 583 456 538 519 q 637 316 621 397 q 648 216 648 267 q 644 153 648 185 q 590 11 633 72 q 469 -71 548 -51 q 406 -77 436 -77 q 308 -57 353 -77 q 188 50 236 -25 q 101 338 106 186 q 100 363 100 351 q 149 637 100 503 q 206 756 166 685 q 299 899 245 828 q 412 1012 352 969 q 508 1047 460 1047 q 530 1045 519 1047 q 576 1011 573 1035 l 577 1005 q 561 960 577 983 q 523 913 543 932 m 546 296 q 516 383 537 342 q 457 451 496 423 q 403 475 437 465 q 345 484 374 484 l 337 484 q 286 461 304 483 q 273 401 273 441 l 273 385 q 277 319 273 353 q 286 254 281 278 q 317 161 294 216 q 376 66 340 106 q 448 30 408 30 q 458 31 453 30 q 528 90 507 41 q 551 198 549 139 q 551 228 551 214 q 546 296 551 267 z "},"7":{"ha":692,"x_min":96,"x_max":562,"o":"m 560 930 q 479 543 520 736 q 425 293 452 418 q 413 226 419 261 q 385 97 401 156 q 343 30 373 57 q 289 9 319 9 q 269 11 279 9 q 222 45 234 20 q 213 92 213 67 q 214 104 213 98 q 223 164 216 136 q 286 452 256 308 q 353 764 317 608 q 358 784 355 772 q 370 841 368 812 l 370 845 q 346 882 370 871 q 300 886 327 886 q 277 886 289 886 q 205 881 234 884 l 203 881 q 178 880 192 880 q 160 880 170 880 q 117 891 136 882 q 96 926 98 901 q 127 968 97 958 q 180 977 155 977 l 183 977 q 338 984 260 979 q 505 991 421 989 l 507 991 q 550 976 536 991 q 562 944 562 964 q 560 930 562 937 z "},"8":{"ha":692,"x_min":71,"x_max":606,"o":"m 416 488 q 433 470 425 479 q 513 377 475 425 q 582 262 552 328 q 606 155 606 208 q 605 134 606 144 q 530 30 599 71 q 370 -4 460 -4 q 345 -3 357 -4 q 163 49 239 2 q 78 156 94 96 q 71 212 71 183 q 81 281 71 245 q 141 406 102 346 q 222 513 180 466 q 161 625 186 566 q 138 749 138 684 q 139 768 138 758 q 179 907 144 843 q 282 1006 215 970 q 408 1036 339 1036 l 410 1036 q 526 994 477 1036 q 580 881 576 945 q 581 865 581 873 q 559 747 581 808 q 497 616 534 678 q 427 509 460 553 q 421 502 424 505 q 415 494 417 498 q 414 492 414 494 q 416 488 414 490 m 277 439 q 195 328 231 390 q 165 220 165 277 q 166 196 165 208 q 222 112 176 140 q 317 86 265 86 l 322 86 q 416 117 377 87 q 446 180 446 146 q 445 195 446 187 q 409 279 437 237 q 355 352 381 321 q 346 363 350 358 q 310 403 328 385 q 277 439 293 420 m 356 563 q 368 578 362 571 q 404 625 389 604 q 437 686 418 647 q 478 787 461 735 q 488 853 488 821 q 487 871 488 863 q 458 929 484 913 q 441 934 451 934 q 381 910 418 934 q 306 807 321 867 q 298 747 298 778 q 307 683 298 716 q 356 563 323 619 z "},"9":{"ha":692,"x_min":77,"x_max":612,"o":"m 393 403 q 373 402 382 402 q 211 451 277 402 q 102 606 137 505 q 78 734 83 664 q 77 765 77 750 q 90 871 77 819 q 153 984 107 938 q 286 1036 205 1030 q 319 1037 303 1037 q 431 1018 380 1037 q 583 869 545 971 q 612 699 612 791 q 609 639 612 670 q 561 390 597 511 q 490 184 525 268 q 480 161 485 173 q 437 63 463 114 q 374 -22 412 12 q 296 -52 342 -52 q 284 -52 290 -52 q 229 -5 229 -42 q 252 71 229 32 q 332 233 301 159 q 393 403 363 306 m 419 503 q 442 708 442 605 l 442 714 q 428 805 441 759 q 386 887 415 852 q 308 933 357 922 q 280 936 293 936 q 208 901 232 936 q 173 791 178 856 q 172 755 172 772 q 179 677 172 712 q 261 536 201 585 q 372 499 306 499 q 419 503 395 499 z "},"\u0000":{"ha":0,"x_min":0,"x_max":0,"o":""}," ":{"ha":345,"x_min":0,"x_max":0,"o":""},"!":{"ha":392,"x_min":115,"x_max":292,"o":"m 115 899 l 115 907 q 118 962 115 934 q 139 1020 122 996 q 195 1047 157 1044 q 270 1012 248 1047 q 292 929 292 977 q 289 812 292 871 q 286 713 287 763 q 291 441 287 577 q 265 285 290 389 q 200 182 241 182 q 132 343 146 186 q 118 610 118 500 q 117 768 118 689 l 117 777 q 116 833 116 805 q 115 899 115 865 m 123 68 q 184 111 145 106 q 199 113 192 113 q 257 94 230 113 q 291 31 288 69 q 292 23 292 27 q 267 -35 292 -9 q 199 -58 244 -58 q 178 -56 189 -58 q 121 -10 132 -47 q 115 25 115 7 q 123 68 115 46 z "},"\"":{"ha":427,"x_min":33,"x_max":411,"o":"m 47 1000 q 108 1043 70 1035 q 125 1045 117 1045 q 176 1023 153 1045 q 203 938 203 999 l 203 924 q 196 842 201 897 q 182 735 191 787 q 162 663 174 683 q 123 639 144 639 q 103 644 113 639 q 56 701 69 658 q 49 742 52 717 q 44 791 46 767 q 41 817 42 806 q 33 909 35 857 l 33 921 q 47 1000 33 967 m 254 1000 q 315 1043 277 1035 q 332 1045 324 1045 q 384 1023 361 1045 q 411 938 411 998 l 410 924 q 403 842 408 896 q 389 735 397 787 q 370 663 381 683 q 330 639 351 639 q 310 643 320 639 q 264 701 277 658 q 257 742 260 716 q 251 791 254 767 q 248 816 250 805 q 241 909 243 857 l 241 922 q 254 1000 241 966 z "},"#":{"ha":733,"x_min":28,"x_max":699,"o":"m 406 651 l 510 663 q 549 852 530 757 q 563 898 553 869 q 590 947 573 927 q 616 960 601 960 q 631 956 623 960 q 655 918 652 945 q 656 899 656 909 q 652 862 656 881 q 640 808 647 831 q 636 791 637 798 q 623 732 629 762 q 610 673 617 703 q 641 676 626 676 q 667 674 654 676 q 699 633 694 669 q 680 595 699 606 q 638 580 661 583 q 608 576 623 578 q 589 574 599 576 l 564 460 q 590 462 578 462 q 618 459 604 462 q 646 418 643 454 q 614 374 644 384 q 553 362 584 363 l 543 361 q 513 212 527 286 q 485 71 500 140 q 471 18 481 52 q 442 -37 460 -15 q 414 -53 430 -53 q 397 -49 406 -53 q 372 9 372 -34 l 372 14 q 383 103 372 54 q 407 197 395 155 q 418 240 415 224 l 433 308 q 442 350 437 329 l 338 338 q 333 307 336 324 q 315 219 327 264 q 277 144 303 174 q 213 117 254 117 q 201 118 208 117 q 144 158 156 125 q 138 199 138 177 q 141 231 138 214 q 155 291 147 261 q 162 319 159 304 q 148 317 156 318 q 98 311 126 313 q 87 311 93 311 q 50 317 67 311 q 28 351 30 325 q 60 397 30 384 q 119 411 91 410 q 140 413 130 412 q 184 418 161 415 l 208 532 q 191 530 201 532 q 141 524 167 524 q 118 526 130 524 q 75 569 81 528 q 107 614 75 604 q 174 625 139 625 q 192 627 184 626 l 230 631 q 256 761 243 696 q 292 935 273 848 q 329 1019 302 983 q 385 1045 349 1045 q 412 1042 397 1045 q 464 992 454 1029 q 469 950 469 972 q 465 910 469 931 q 446 826 457 865 q 437 795 441 808 q 425 740 431 768 q 422 727 424 734 l 410 669 l 406 651 m 464 449 l 488 564 l 385 552 l 359 437 l 464 449 z "},"$":{"ha":652,"x_min":69,"x_max":592,"o":"m 555 300 q 590 188 583 246 q 592 156 592 172 q 578 72 592 114 q 540 2 563 31 q 477 -45 517 -26 q 424 -62 450 -57 q 388 -74 402 -67 q 376 -98 378 -79 q 374 -140 374 -116 l 374 -152 q 368 -211 374 -183 q 326 -244 360 -243 q 283 -208 290 -239 q 278 -159 278 -185 q 279 -140 278 -150 q 279 -121 279 -130 q 279 -104 279 -112 q 271 -77 277 -87 q 232 -54 261 -66 q 159 -11 199 -39 q 88 71 119 18 q 75 109 81 85 q 69 143 69 126 q 70 153 69 149 q 89 184 71 175 q 103 186 96 186 q 132 174 119 186 q 174 123 153 155 q 223 63 196 91 q 286 29 250 35 q 309 27 298 27 q 385 58 352 27 q 425 149 425 99 q 425 157 425 153 q 390 262 420 211 q 324 351 360 313 q 279 397 301 374 q 166 523 217 458 q 86 675 115 587 q 71 768 71 723 q 77 821 71 795 q 143 932 92 889 q 278 981 194 976 l 278 1018 q 277 1055 278 1036 q 277 1095 277 1076 q 277 1133 277 1114 q 313 1198 283 1186 q 324 1200 319 1200 q 363 1165 347 1200 l 366 1159 q 376 1086 375 1131 l 376 1064 q 375 1000 376 1031 q 374 963 374 979 q 436 928 406 949 q 486 879 466 907 q 500 839 500 858 q 498 825 500 831 q 459 797 492 799 q 429 808 444 798 q 398 833 414 819 q 331 878 370 861 q 323 879 327 879 q 298 872 311 879 q 271 851 282 863 q 238 768 238 814 q 239 755 238 762 q 272 651 244 702 q 330 563 300 600 q 419 467 371 513 q 494 387 458 428 q 555 300 530 347 z "},"%":{"ha":886,"x_min":16,"x_max":838,"o":"m 496 801 q 510 833 503 817 q 555 924 527 884 q 635 963 582 963 l 642 963 q 704 913 696 955 q 706 891 706 902 q 691 827 706 859 q 658 759 677 793 q 629 703 643 731 q 511 444 570 574 q 427 261 469 353 q 382 159 404 210 q 325 34 354 96 q 276 -36 306 -11 q 214 -56 252 -56 q 195 -55 205 -56 q 140 -18 146 -47 q 137 1 137 -9 q 148 47 137 22 q 181 117 163 85 q 195 145 189 133 q 496 801 351 471 m 569 186 q 605 110 579 144 q 664 71 631 75 l 668 71 q 724 120 698 71 q 739 193 739 153 q 736 225 739 209 q 690 315 730 286 q 659 323 675 323 q 629 317 645 323 q 579 283 595 304 q 564 237 565 262 l 564 231 q 569 186 564 209 m 827 117 q 774 31 812 68 q 688 -19 737 -7 q 660 -22 674 -22 q 589 -1 625 -22 q 505 98 536 35 q 473 229 474 161 l 473 231 q 509 348 473 297 q 625 414 545 399 q 656 416 641 416 q 758 381 715 416 q 828 267 809 338 q 838 195 838 231 q 829 126 838 161 l 827 117 m 277 715 q 282 759 282 736 q 274 818 282 787 q 216 896 260 873 q 201 898 209 898 q 160 885 182 898 q 117 845 130 867 q 106 798 106 823 q 112 760 106 780 q 153 677 123 711 q 210 645 179 645 l 216 645 q 277 715 250 648 m 230 988 q 348 895 312 963 q 379 767 379 837 q 378 746 379 757 q 343 636 374 686 q 256 562 312 587 q 201 551 227 551 q 138 568 168 551 q 51 664 84 600 q 16 800 18 728 l 16 805 q 56 926 16 873 q 191 991 97 980 q 201 992 197 992 q 211 991 207 992 q 230 988 219 991 z "},"&":{"ha":844,"x_min":79,"x_max":774,"o":"m 675 197 q 751 103 715 153 q 774 40 774 66 q 772 25 774 32 q 736 -3 763 -3 l 735 -3 q 683 37 707 -3 q 674 52 678 45 q 654 87 663 72 q 627 124 645 102 q 523 12 581 61 q 388 -56 466 -38 q 311 -63 351 -63 q 249 -59 280 -63 q 129 3 176 -49 q 79 140 79 66 q 80 163 79 151 q 134 332 89 250 q 232 475 180 415 q 152 656 172 557 q 148 710 148 683 q 168 833 148 770 q 259 983 197 925 q 354 1028 298 1015 q 420 1036 387 1036 q 467 1032 444 1036 q 560 985 523 1023 q 604 871 604 937 l 604 867 q 574 723 604 798 q 505 583 545 649 q 433 474 465 517 q 597 284 510 376 q 606 274 602 279 l 611 282 q 640 334 623 303 q 666 380 653 358 q 688 414 678 402 q 735 443 709 439 l 739 443 q 772 412 762 443 q 772 403 772 408 q 743 311 772 367 q 682 208 709 249 q 675 197 678 202 m 557 203 q 491 269 526 235 q 366 399 427 332 q 296 296 325 351 q 267 221 280 264 q 254 136 254 178 q 278 62 254 94 q 338 31 305 31 q 350 33 344 31 q 431 71 391 39 q 506 139 472 102 q 557 203 539 177 m 485 781 q 491 804 488 793 q 497 861 497 834 q 496 886 497 874 q 466 933 491 924 q 456 935 461 935 q 391 903 432 935 q 319 795 332 854 q 313 745 313 770 q 323 677 313 711 q 375 557 340 616 q 485 781 448 661 z "},"'":{"ha":249,"x_min":37,"x_max":208,"o":"m 52 1000 q 112 1043 74 1035 q 129 1045 121 1045 q 180 1023 157 1045 q 208 938 208 999 l 207 924 q 200 842 205 897 q 186 735 195 787 q 166 663 178 683 q 127 639 148 639 q 107 644 117 639 q 60 701 73 658 q 53 742 56 717 q 48 791 50 767 q 45 817 46 806 q 37 909 39 857 l 37 921 q 52 1000 37 967 z "},"(":{"ha":375,"x_min":96,"x_max":394,"o":"m 236 1034 q 338 1114 296 1108 q 349 1114 344 1114 q 391 1088 381 1114 q 394 1074 394 1081 q 368 1027 394 1050 q 342 1008 353 1015 q 316 986 328 998 q 290 947 305 975 q 218 718 244 854 q 194 449 194 589 l 194 434 q 227 155 195 286 q 329 -58 259 24 q 355 -102 347 -77 q 357 -115 357 -109 q 338 -148 357 -132 q 312 -155 325 -155 q 275 -139 293 -155 q 216 -62 243 -112 q 170 37 189 -12 q 144 110 151 86 q 117 227 127 168 q 96 472 96 338 l 96 496 q 131 787 98 645 q 236 1034 163 930 z "},")":{"ha":381,"x_min":0,"x_max":298,"o":"m 158 1034 q 263 787 231 930 q 298 496 296 645 l 298 472 q 277 227 298 338 q 250 110 267 168 q 224 37 243 86 q 178 -62 205 -12 q 119 -139 151 -112 q 82 -155 101 -155 q 56 -148 69 -155 q 37 -115 37 -132 q 39 -102 37 -109 q 65 -58 47 -77 q 167 155 135 24 q 200 434 199 286 l 200 449 q 176 718 200 589 q 104 947 150 854 q 78 986 89 975 q 52 1008 66 998 q 26 1027 41 1015 q 0 1074 0 1050 q 3 1088 0 1081 q 45 1114 13 1114 q 56 1114 50 1114 q 158 1034 98 1108 z "},"*":{"ha":428,"x_min":6,"x_max":429,"o":"m 134 803 q 116 808 127 805 q 62 826 91 816 q 23 844 34 836 q 6 879 6 859 l 6 883 q 26 918 7 905 q 53 926 37 926 q 75 923 63 926 q 138 903 106 913 q 170 892 154 897 q 169 913 170 901 q 168 945 168 928 q 168 968 168 956 q 179 1020 169 998 q 214 1044 189 1042 q 255 1020 243 1044 q 267 970 266 996 q 267 950 267 960 q 271 895 268 923 q 290 901 279 897 q 345 919 315 911 q 381 924 366 924 q 392 924 387 924 q 429 882 429 913 l 429 880 q 382 829 429 848 q 333 813 357 821 q 304 804 318 808 l 295 801 q 309 783 301 793 q 345 732 328 760 q 362 682 362 705 q 330 644 359 646 l 328 644 q 275 667 301 644 q 250 698 264 678 q 222 736 235 718 q 210 753 216 746 l 188 727 q 152 684 170 705 q 125 657 134 663 q 99 650 112 650 q 80 654 90 650 q 56 687 60 664 q 55 694 55 690 q 75 739 55 715 q 113 781 94 760 q 134 803 123 792 z "},"+":{"ha":506,"x_min":12,"x_max":504,"o":"m 305 526 l 437 528 l 443 528 q 486 516 467 528 q 504 480 504 505 q 503 471 504 476 q 467 432 497 437 q 429 428 448 428 q 406 429 418 428 q 386 430 395 430 q 305 431 346 431 l 307 320 q 307 310 307 315 q 299 262 307 286 q 255 232 290 232 q 212 277 218 238 q 208 327 208 302 q 209 356 208 342 q 210 378 210 368 l 210 431 l 100 429 q 90 429 95 429 q 41 437 66 429 q 12 481 12 446 q 57 524 18 518 q 106 528 82 528 q 136 527 121 528 q 157 526 148 526 l 210 526 l 208 658 l 208 663 q 220 707 208 688 q 256 724 231 724 q 264 724 260 724 q 304 688 298 718 q 308 649 308 669 q 307 627 308 638 q 306 606 306 616 q 305 526 305 566 z "},",":{"ha":309,"x_min":1,"x_max":258,"o":"m 117 -53 q 78 -15 92 -42 q 60 48 62 15 q 59 60 59 54 q 74 105 59 85 q 123 132 83 125 q 149 134 136 134 q 203 125 176 134 q 244 87 232 116 q 258 16 258 52 l 258 13 q 204 -157 258 -60 q 115 -303 165 -227 q 78 -351 98 -329 q 45 -372 57 -372 q 23 -367 33 -372 q 1 -345 3 -358 q 30 -278 1 -330 q 117 -53 113 -121 z "},"-":{"ha":418,"x_min":31,"x_max":366,"o":"m 304 317 q 348 306 329 317 q 366 270 366 294 q 365 261 366 265 q 329 222 359 227 q 291 218 311 218 q 268 219 279 218 q 248 220 257 220 q 110 218 161 218 q 61 227 86 218 q 31 271 31 235 q 77 314 37 308 q 126 318 102 318 q 155 317 141 318 q 177 316 168 316 l 304 317 z "},".":{"ha":303,"x_min":57,"x_max":256,"o":"m 180 -54 q 149 -59 165 -59 q 119 -55 134 -59 q 76 -15 92 -45 q 58 48 60 15 q 57 60 57 54 q 66 102 57 85 q 121 132 81 125 q 146 134 134 134 q 201 125 174 134 q 253 75 239 113 q 256 47 256 60 q 243 -3 256 20 q 180 -54 222 -38 z "},"/":{"ha":404,"x_min":72,"x_max":380,"o":"m 267 911 q 270 926 269 918 q 282 983 274 952 q 308 1034 291 1015 q 334 1046 319 1046 q 354 1042 343 1046 q 378 1006 375 1031 q 380 988 380 998 q 376 951 380 970 q 363 896 370 921 q 357 873 359 882 q 354 859 355 866 q 172 16 260 438 q 153 -35 168 -11 q 120 -54 142 -54 q 105 -52 113 -54 q 72 -3 72 -39 l 72 -1 q 85 72 74 37 q 90 92 87 83 q 102 149 96 120 q 267 911 189 530 z "},":":{"ha":358,"x_min":84,"x_max":284,"o":"m 208 -54 q 176 -59 193 -59 q 147 -55 162 -59 q 104 -15 119 -45 q 85 48 88 15 q 85 60 85 54 q 94 102 85 85 q 149 132 109 125 q 174 134 161 134 q 229 125 201 134 q 281 75 267 113 q 284 47 284 60 q 271 -3 284 20 q 208 -54 250 -38 m 208 355 q 176 351 192 351 q 146 355 161 351 q 103 395 119 365 q 85 458 87 425 q 84 470 84 464 q 93 512 84 495 q 148 542 109 535 q 174 544 161 544 q 228 535 201 544 q 280 485 267 522 q 283 456 283 470 q 271 408 283 431 q 208 355 250 372 z "},";":{"ha":366,"x_min":33,"x_max":290,"o":"m 214 355 q 182 351 198 351 q 153 355 168 351 q 109 395 125 365 q 91 458 94 425 q 90 470 90 464 q 99 512 90 495 q 154 542 115 535 q 180 544 167 544 q 234 535 207 544 q 286 485 273 522 q 290 456 290 470 q 277 408 290 431 q 214 355 256 372 m 148 -53 q 109 -15 123 -42 q 91 48 94 15 q 90 60 90 54 q 105 105 90 85 q 154 132 115 125 q 180 134 167 134 q 234 125 207 134 q 275 87 263 116 q 290 16 290 52 l 290 13 q 235 -157 290 -60 q 146 -303 197 -227 q 109 -351 130 -329 q 77 -372 88 -372 q 54 -367 64 -372 q 33 -345 34 -358 q 61 -278 33 -330 q 148 -53 144 -121 z "},"<":{"ha":587,"x_min":24,"x_max":525,"o":"m 460 401 q 508 376 486 393 q 524 344 524 363 q 522 329 524 337 q 488 301 513 304 q 474 300 481 300 q 436 306 456 300 q 385 323 408 314 q 367 330 374 327 l 214 381 q 56 433 134 407 q 28 459 37 441 q 24 477 24 468 q 28 496 24 487 q 66 526 37 516 q 149 554 107 541 q 420 646 285 599 q 478 659 446 656 l 481 659 q 523 629 510 659 q 525 614 525 621 q 513 586 525 597 q 470 559 497 570 q 418 543 442 549 q 399 536 407 539 q 378 530 391 534 q 324 513 355 523 q 268 493 294 503 q 234 478 242 484 q 275 462 242 473 q 348 437 307 450 q 422 413 389 424 q 460 401 448 405 z "},"=":{"ha":589,"x_min":50,"x_max":542,"o":"m 475 430 l 481 430 q 524 418 505 430 q 542 382 542 408 q 541 374 542 378 q 505 334 535 340 q 467 330 487 330 q 444 332 456 330 q 424 332 433 332 q 301 333 363 333 q 138 332 220 333 q 127 331 133 331 q 79 339 104 331 q 50 383 50 348 q 95 427 56 420 q 144 431 120 431 q 174 429 159 431 q 195 429 186 429 l 265 429 q 475 430 370 429 m 475 527 q 266 528 370 528 l 195 528 q 174 528 186 528 q 144 526 159 526 q 95 530 120 526 q 50 574 56 536 q 79 618 50 609 q 128 626 104 626 q 138 625 133 626 q 302 624 220 624 q 424 625 363 624 q 444 625 433 625 q 467 627 456 627 q 505 623 487 627 q 541 583 535 617 q 542 574 542 578 q 524 538 542 549 q 481 527 505 527 l 475 527 z "},">":{"ha":576,"x_min":47,"x_max":548,"o":"m 112 401 q 151 413 124 405 q 224 437 184 424 q 298 462 265 450 q 338 478 330 473 q 304 493 330 484 q 248 513 279 503 q 194 530 218 523 q 174 536 181 534 q 154 543 165 539 q 103 559 130 549 q 59 586 75 570 q 47 614 47 597 q 50 629 47 621 q 91 659 62 659 l 94 659 q 152 646 126 656 q 424 554 288 599 q 507 526 465 541 q 544 496 536 516 q 548 477 548 487 q 544 459 548 468 q 517 433 536 441 q 359 381 438 407 l 205 330 q 188 323 198 327 q 136 306 165 314 q 98 300 116 300 q 84 301 91 300 q 50 329 60 304 q 48 344 48 337 q 64 376 48 363 q 112 401 87 393 z "},"?":{"ha":568,"x_min":49,"x_max":549,"o":"m 336 929 l 329 935 q 267 951 296 951 q 223 939 243 951 q 151 857 178 914 q 120 812 140 833 q 92 798 108 798 q 71 804 82 798 q 49 843 49 818 q 52 863 49 852 q 89 941 62 902 q 138 996 117 979 q 242 1042 186 1032 q 315 1047 278 1047 q 356 1046 336 1047 q 496 983 452 1032 q 548 863 541 934 q 549 829 549 846 q 535 718 549 775 q 484 577 516 643 q 376 399 433 478 q 344 353 360 378 q 308 290 323 322 q 274 231 292 258 q 219 186 253 201 q 187 179 203 179 q 150 188 169 179 q 117 237 119 205 l 117 245 q 127 303 117 274 q 156 360 141 337 q 204 427 179 394 q 258 503 231 463 q 312 595 281 538 q 366 714 343 651 q 387 824 387 772 l 387 833 q 342 924 385 889 l 336 929 m 218 -54 q 186 -59 203 -59 q 157 -55 172 -59 q 114 -15 130 -45 q 96 48 98 15 q 95 60 95 54 q 104 102 95 85 q 159 132 119 125 q 184 134 172 134 q 239 125 212 134 q 291 75 277 113 q 294 47 294 60 q 281 -3 294 20 q 218 -54 260 -38 z "},"@":{"ha":1036,"x_min":79,"x_max":949,"o":"m 528 917 q 307 788 390 886 q 193 556 224 690 q 176 410 176 487 q 177 374 176 392 q 220 194 181 277 q 345 64 260 111 q 429 37 391 42 q 494 34 459 34 l 523 34 q 582 12 567 33 q 591 -13 591 0 q 587 -31 591 -22 q 544 -62 576 -54 q 498 -66 522 -66 q 420 -57 463 -66 q 301 -19 351 -43 q 132 155 185 44 q 79 395 79 266 l 79 399 q 124 655 79 531 q 249 868 169 780 q 404 978 311 935 q 565 1015 484 1015 q 588 1015 576 1015 q 817 897 731 995 q 932 663 903 799 q 948 520 945 602 q 949 493 949 507 q 937 353 949 424 q 888 202 924 269 q 787 106 852 136 q 738 95 758 95 q 728 96 733 95 q 677 123 706 99 q 628 146 649 146 q 585 137 608 146 q 528 123 562 128 q 492 121 509 121 q 359 168 402 121 q 290 331 307 222 q 285 405 285 367 q 292 496 285 450 q 345 652 304 582 q 425 724 374 699 q 510 743 463 739 q 541 744 526 744 q 597 739 570 744 q 672 706 653 730 q 691 627 691 681 l 691 590 q 690 562 691 582 q 686 456 688 522 q 686 422 686 439 q 690 326 686 374 q 714 229 696 262 q 742 210 725 210 q 770 220 754 210 q 842 351 823 264 q 854 484 854 416 q 853 532 854 508 q 827 688 846 625 q 765 809 808 753 q 661 897 722 866 q 566 920 616 920 q 528 917 548 920 m 484 574 q 470 547 476 561 q 446 454 455 510 q 441 391 441 422 q 444 343 441 367 q 481 257 450 289 q 542 234 503 234 q 574 237 557 234 l 576 237 q 608 250 598 241 q 614 269 614 255 q 613 281 614 275 q 608 323 610 304 q 596 430 600 373 q 595 461 595 446 q 596 492 595 477 q 597 526 597 509 q 596 558 597 543 q 556 627 589 627 l 552 627 q 484 574 515 623 z "},"A":{"ha":705,"x_min":55,"x_max":652,"o":"m 270 320 l 503 343 q 501 350 502 345 q 488 432 498 372 q 466 566 479 492 q 437 708 452 640 q 406 814 422 775 q 385 843 395 843 q 379 840 382 843 q 342 708 366 818 q 298 482 319 598 q 271 324 277 366 l 270 320 m 254 222 q 231 68 241 145 q 203 -5 227 23 q 131 -33 179 -33 q 66 -1 81 -31 q 55 49 55 20 q 57 75 55 61 q 98 355 72 189 q 161 681 124 521 q 245 939 198 842 q 330 1006 279 998 q 347 1008 338 1008 q 432 972 390 1008 q 507 832 471 935 q 570 596 542 729 q 619 334 599 463 q 650 105 640 206 q 652 77 652 92 q 648 35 652 57 q 600 -14 641 -3 q 590 -15 595 -15 q 556 2 568 -15 q 539 49 542 22 q 516 248 528 155 l 254 222 z "},"B":{"ha":665,"x_min":105,"x_max":627,"o":"m 277 570 q 285 574 281 573 l 286 575 l 287 575 l 288 576 l 290 576 l 290 576 q 401 645 353 602 q 466 736 449 688 q 472 772 472 754 q 454 829 472 802 q 336 905 425 874 q 300 912 314 912 q 283 905 288 912 q 276 869 276 895 q 277 854 276 862 q 277 847 277 850 q 278 723 278 782 l 278 666 q 277 570 277 623 m 355 998 q 480 939 425 978 q 559 829 534 900 q 569 766 569 795 q 559 709 569 736 q 497 610 541 654 q 401 529 454 565 q 525 431 464 490 q 614 298 585 371 q 627 231 627 265 q 607 144 627 189 q 509 41 572 83 q 370 -24 445 -1 q 227 -47 294 -46 l 216 -47 q 105 62 105 -47 l 105 73 q 106 114 105 93 q 108 151 108 132 q 110 397 110 273 q 109 520 110 458 l 109 644 q 109 771 109 715 q 105 898 108 827 l 105 911 q 136 1002 105 979 q 217 1023 162 1023 q 248 1021 231 1023 q 355 998 302 1016 m 277 490 l 277 404 q 278 312 278 358 q 276 127 278 220 q 304 64 276 66 l 312 64 q 378 81 339 64 q 386 83 382 82 q 492 152 463 113 q 518 228 518 188 l 518 235 q 377 433 511 342 q 287 485 334 462 l 286 486 l 285 486 l 285 486 l 283 486 l 283 487 l 281 488 l 281 488 l 280 488 l 279 488 l 279 489 l 278 489 l 277 490 z "},"C":{"ha":695,"x_min":77,"x_max":633,"o":"m 363 1027 q 403 1029 384 1029 q 541 988 492 1029 q 623 825 600 939 q 627 785 627 809 l 627 782 q 620 743 627 760 q 588 724 612 724 q 543 760 558 728 q 517 831 528 792 q 491 899 507 874 l 476 914 q 433 931 456 931 q 408 927 420 931 l 398 924 l 387 919 q 288 808 319 890 q 249 621 256 726 q 246 532 246 576 q 251 416 246 473 q 274 252 260 316 q 303 158 282 212 q 359 73 323 104 q 405 56 379 56 q 450 66 425 56 q 508 138 492 94 q 531 227 524 182 q 547 291 536 265 q 583 320 557 317 l 585 320 q 623 300 612 320 q 633 254 633 280 l 633 251 q 627 204 632 223 q 591 92 616 148 q 521 -1 565 36 q 369 -52 448 -52 q 282 -38 326 -52 q 155 79 200 -7 q 92 276 110 165 q 77 478 77 378 l 77 494 q 90 674 78 600 q 131 834 102 758 q 216 963 161 910 q 363 1027 272 1015 z "},"D":{"ha":672,"x_min":105,"x_max":620,"o":"m 398 846 q 314 907 341 907 q 308 906 311 907 q 277 848 281 898 q 275 791 275 821 q 277 742 275 767 q 278 703 277 721 l 278 681 q 280 465 280 573 q 276 169 280 317 q 275 146 275 157 q 278 103 275 124 q 301 61 282 72 q 313 58 307 58 q 365 78 333 58 q 479 218 442 131 q 522 404 517 305 q 524 452 524 428 q 511 588 524 524 q 398 846 485 730 m 106 893 q 105 915 105 905 q 125 1008 105 977 q 208 1040 146 1040 q 236 1038 221 1040 q 389 980 322 1029 q 504 860 456 931 q 578 711 552 789 l 581 703 q 618 487 613 601 q 620 445 620 466 q 597 264 620 353 q 503 72 570 156 q 322 -52 436 -12 q 247 -64 282 -64 q 176 -49 208 -64 q 106 76 113 -18 q 106 113 106 94 q 108 193 106 151 q 109 254 109 224 q 110 450 110 352 q 106 893 110 672 z "},"E":{"ha":578,"x_min":105,"x_max":572,"o":"m 118 855 q 119 873 118 865 q 135 962 119 936 q 183 994 150 989 q 231 996 203 996 q 271 995 250 996 q 279 994 275 994 l 330 994 q 409 994 370 994 q 462 989 449 993 q 498 958 491 979 q 500 945 500 951 q 487 917 500 930 q 417 897 468 898 l 393 897 q 371 899 382 899 q 317 889 339 899 q 284 814 287 876 l 284 801 q 279 619 284 709 q 277 579 279 600 q 294 528 277 536 q 326 522 307 522 q 345 523 335 522 q 372 524 357 524 q 388 525 378 524 q 414 526 401 526 q 441 525 427 526 q 484 513 469 524 q 502 477 502 497 q 500 463 502 470 q 450 429 491 433 l 440 429 q 411 429 428 429 q 368 430 389 430 l 345 430 q 300 423 313 430 q 277 372 279 401 q 277 354 277 363 q 280 312 277 334 q 283 284 282 298 q 283 274 283 279 q 293 194 286 236 q 320 121 300 153 q 384 81 341 90 q 430 79 407 79 q 476 81 453 79 l 515 84 q 565 60 550 83 q 572 36 572 48 q 565 12 572 24 q 494 -18 549 -13 q 406 -20 455 -20 q 366 -20 387 -20 q 243 -5 293 -19 q 160 67 182 17 q 127 178 137 117 q 105 448 105 304 l 105 456 q 113 747 106 604 q 118 855 116 803 z "},"F":{"ha":480,"x_min":105,"x_max":486,"o":"m 277 347 l 277 295 q 279 208 278 247 q 281 106 279 168 l 281 95 q 265 14 281 50 q 189 -31 247 -26 l 184 -31 q 127 -10 144 -31 q 106 45 109 12 q 105 84 105 65 q 106 114 105 99 q 106 136 106 125 l 108 311 q 106 730 108 584 q 105 886 105 876 q 112 949 105 918 q 163 1003 121 991 q 239 1006 197 1006 q 309 1004 271 1006 q 382 1002 350 1002 q 399 1003 390 1002 q 416 1004 408 1004 q 452 1000 435 1004 q 485 962 477 994 q 486 953 486 957 q 471 920 486 931 q 429 907 453 907 l 426 907 q 402 909 416 907 q 368 910 385 910 q 332 909 350 910 q 282 883 294 906 q 275 827 275 861 l 275 809 q 276 759 275 783 q 277 732 277 744 l 277 634 q 280 585 277 596 q 316 562 292 564 q 340 560 328 560 q 363 562 352 560 q 383 562 374 562 q 395 563 389 563 q 412 564 404 564 q 452 559 432 564 q 484 519 479 553 l 484 517 q 448 471 484 477 q 401 466 425 466 q 374 467 387 466 q 349 468 359 468 l 341 468 q 290 457 305 468 q 275 403 275 446 l 275 396 q 276 372 275 384 q 277 347 277 359 z "},"G":{"ha":730,"x_min":77,"x_max":640,"o":"m 103 269 q 80 422 86 345 q 77 513 77 465 q 79 590 77 550 q 107 775 83 684 q 182 933 130 866 q 323 1021 235 1000 q 397 1029 360 1029 q 471 1021 434 1029 q 586 935 543 1002 q 620 841 610 892 q 632 741 630 789 l 633 730 q 634 677 634 703 q 618 644 632 657 q 585 633 604 633 l 583 633 q 550 649 563 635 q 538 682 538 663 l 538 690 q 531 789 538 732 q 495 894 524 850 q 422 932 471 932 q 406 930 414 932 q 310 856 343 918 q 264 708 276 793 q 252 549 252 627 l 252 541 q 257 410 252 460 q 272 310 260 379 q 307 170 283 241 q 367 64 330 100 q 407 47 385 47 q 455 65 429 47 q 523 191 509 114 q 538 338 536 268 q 538 360 538 350 q 524 419 538 400 q 457 451 505 443 q 414 465 433 454 q 397 497 397 475 q 398 506 397 501 q 439 544 406 537 q 494 550 467 550 l 517 550 q 535 551 526 551 q 612 531 589 551 q 640 435 638 509 q 640 393 640 415 q 635 267 640 334 q 600 105 627 176 q 412 -50 549 -24 q 360 -54 385 -54 q 172 63 238 -54 q 131 163 147 110 q 103 269 114 216 z "},"H":{"ha":738,"x_min":105,"x_max":648,"o":"m 190 -33 q 110 42 117 -31 q 107 102 107 66 l 108 260 q 106 481 108 370 q 105 729 105 588 l 106 878 q 182 989 106 989 q 208 987 195 989 q 274 926 264 970 q 281 863 281 897 q 279 829 281 847 q 275 635 275 749 q 279 531 275 534 q 292 528 282 528 q 301 529 296 528 q 313 530 307 530 q 513 554 511 543 q 514 570 514 557 q 502 747 512 654 q 490 902 493 831 q 495 939 490 917 q 513 977 500 961 q 544 992 525 992 q 603 864 595 990 q 604 804 604 831 q 623 479 604 658 q 644 200 635 366 q 648 108 648 147 q 644 38 648 65 q 629 1 639 17 q 585 -26 606 -26 q 570 -22 577 -26 q 530 39 540 -9 q 524 164 524 97 l 524 229 q 524 328 524 294 q 522 376 523 350 q 520 423 522 401 q 515 447 518 444 q 494 450 512 450 q 381 441 456 449 l 341 437 q 278 418 290 437 q 269 370 269 404 q 274 286 269 351 q 283 107 283 197 q 265 -1 283 33 q 190 -33 243 -33 z "},"I":{"ha":399,"x_min":60,"x_max":334,"o":"m 138 79 q 123 229 123 134 q 125 489 125 359 q 126 885 125 694 l 126 886 q 95 884 111 885 q 65 920 65 897 l 65 925 q 133 979 65 972 l 288 990 q 334 952 334 982 l 334 936 q 272 890 334 903 q 277 871 275 882 q 288 787 286 825 q 290 725 290 749 l 290 564 q 289 457 289 511 q 291 234 289 345 q 275 81 290 138 q 334 35 334 79 q 279 -14 332 -14 l 179 -14 q 113 -16 145 -14 q 60 30 60 -16 q 133 79 60 79 l 138 79 z "},"J":{"ha":573,"x_min":34,"x_max":483,"o":"m 244 -50 q 106 7 160 -50 q 51 121 71 50 q 34 229 34 181 q 43 280 34 258 q 79 311 56 311 q 98 306 87 311 q 125 263 118 293 q 134 200 132 233 q 142 143 136 167 q 169 91 151 113 q 208 66 186 68 q 250 99 230 66 q 300 309 290 172 q 307 487 307 397 q 305 589 307 537 q 281 856 297 774 q 273 911 276 883 q 144 901 203 901 q 106 947 113 901 q 273 1023 106 1006 q 353 1028 330 1028 q 376 1024 366 1028 q 452 905 442 1015 q 483 469 481 692 q 477 319 483 397 q 382 14 465 111 q 244 -50 325 -47 z "},"K":{"ha":662,"x_min":105,"x_max":631,"o":"m 109 798 q 107 836 109 815 q 105 882 105 859 q 106 909 105 895 q 124 972 107 945 q 184 1004 142 998 l 195 1004 q 258 977 237 1004 q 281 899 281 945 l 281 882 q 279 825 281 850 q 278 760 278 798 l 278 536 q 317 600 297 568 q 374 695 345 647 q 497 937 435 817 q 520 970 506 951 q 552 998 534 988 q 589 1002 560 1002 q 611 996 600 1002 q 631 960 631 982 q 631 953 631 956 q 610 897 627 926 q 578 845 593 867 q 566 828 571 836 q 435 610 500 720 q 373 508 404 559 q 414 427 394 467 q 611 44 512 235 q 627 7 620 28 q 631 -19 631 -6 q 630 -33 631 -26 q 603 -62 626 -52 q 576 -66 589 -66 q 549 -59 562 -66 q 510 -20 526 -45 q 485 24 494 5 l 484 28 q 385 248 431 135 q 278 483 335 368 q 277 369 278 426 q 277 282 277 326 q 279 111 277 195 q 279 96 279 103 q 281 68 281 81 q 273 -1 281 33 q 209 -64 263 -48 q 188 -66 197 -66 q 134 -43 153 -66 q 106 33 109 -14 l 106 51 q 108 108 106 78 q 109 157 109 134 q 109 275 109 218 q 110 496 110 385 q 109 798 110 644 z "},"L":{"ha":486,"x_min":106,"x_max":498,"o":"m 117 838 q 118 850 118 844 q 124 923 118 887 q 153 981 130 960 q 199 995 169 995 q 224 993 210 995 q 281 955 267 984 q 296 890 296 926 l 296 886 q 290 810 295 848 q 286 770 287 788 q 277 488 277 619 q 281 298 277 393 l 281 285 q 288 204 283 250 q 308 120 293 159 q 354 69 323 82 q 397 64 373 64 q 411 64 404 64 l 422 64 q 466 60 446 64 q 498 25 491 54 q 498 15 498 20 q 481 -18 498 -7 q 427 -35 458 -32 q 380 -37 401 -37 l 350 -37 q 200 0 245 -37 q 130 153 151 39 q 106 420 106 273 l 106 428 q 113 739 106 578 q 117 838 116 791 z "},"M":{"ha":941,"x_min":105,"x_max":852,"o":"m 106 822 q 105 837 105 829 q 120 916 105 882 q 198 954 137 954 l 202 954 q 282 911 256 949 q 324 825 309 873 q 340 786 332 805 q 397 656 368 721 q 506 429 433 578 q 622 890 581 748 q 664 977 634 939 q 732 1010 689 1010 q 750 1008 741 1010 q 807 968 791 1000 q 827 895 824 937 q 829 840 829 867 q 828 813 829 827 l 828 770 q 833 597 830 686 q 851 40 842 311 q 852 31 852 35 q 843 -11 852 9 q 801 -35 833 -34 q 756 -7 771 -33 q 736 50 741 18 q 732 98 732 79 l 732 103 q 734 326 732 207 q 737 520 737 426 q 727 732 737 602 q 661 467 703 610 q 585 174 618 325 q 559 148 577 155 q 542 144 551 144 q 522 149 532 144 q 494 185 498 160 q 448 296 471 240 q 279 688 367 496 q 277 509 277 598 q 285 128 277 319 q 286 100 286 114 q 283 52 286 76 q 256 -9 279 15 q 196 -30 237 -30 q 184 -29 190 -30 q 129 -1 144 -25 q 110 55 113 22 q 109 94 109 75 q 109 121 109 108 q 110 143 110 132 q 111 275 111 210 q 110 408 111 342 l 109 543 l 109 636 q 106 822 108 729 z "},"N":{"ha":782,"x_min":105,"x_max":692,"o":"m 671 35 q 632 -15 656 -15 q 625 -14 629 -15 q 566 38 597 -6 q 509 133 534 82 q 471 211 483 184 q 466 222 468 218 q 397 393 431 317 q 360 478 379 435 q 351 498 356 488 q 330 548 340 523 q 285 652 308 601 l 283 656 q 276 668 277 668 l 276 645 q 275 488 275 567 q 281 123 275 306 q 282 96 282 109 q 279 50 282 73 q 254 -11 275 13 q 184 -34 233 -34 q 126 -7 143 -32 q 106 54 109 18 q 105 90 105 72 q 106 124 105 107 q 107 149 106 138 q 109 319 109 234 q 106 532 109 426 l 105 699 l 105 814 q 109 867 105 840 q 134 924 115 901 q 193 947 153 947 q 259 921 233 946 q 302 859 286 896 q 332 785 319 822 q 346 747 339 764 q 355 725 349 739 q 408 593 373 680 q 482 414 443 507 q 553 244 522 321 q 595 159 585 167 l 597 159 q 602 168 600 159 q 605 194 604 178 q 605 224 606 209 q 605 247 605 239 l 605 252 q 578 652 601 465 q 555 913 564 781 l 555 916 q 554 935 554 926 q 555 956 554 945 q 572 993 557 977 q 625 1009 587 1009 q 662 990 651 1009 q 674 943 672 970 q 675 905 675 924 l 675 867 q 682 724 678 797 q 691 446 688 586 q 692 372 692 409 q 686 151 692 250 q 671 35 685 92 z "},"O":{"ha":782,"x_min":77,"x_max":692,"o":"m 555 197 q 581 361 570 254 q 588 520 588 437 q 587 587 588 553 q 554 801 583 707 q 463 924 526 895 q 427 931 444 931 q 384 919 404 931 q 323 861 348 899 q 286 789 298 823 q 252 574 258 699 q 251 516 251 545 q 264 328 251 422 q 325 121 282 205 q 405 47 362 53 q 416 47 410 47 q 486 79 452 47 q 546 172 524 115 q 555 197 551 184 m 429 1024 q 562 963 512 1015 q 638 841 612 912 q 675 700 664 770 q 692 500 692 600 q 662 231 692 366 q 600 78 641 149 q 490 -31 558 7 q 379 -58 443 -58 q 323 -53 353 -58 q 218 0 258 -40 q 154 96 178 41 q 115 206 130 151 q 79 437 87 308 q 77 511 77 474 q 91 693 77 603 q 170 909 111 819 q 281 1004 217 977 q 393 1026 331 1026 q 429 1024 410 1026 z "},"P":{"ha":567,"x_min":105,"x_max":572,"o":"m 279 826 l 279 460 q 386 545 336 491 q 462 665 437 599 q 475 736 475 701 q 465 799 475 768 q 333 922 426 889 q 309 927 319 927 q 292 922 298 927 q 278 890 279 911 q 277 868 277 880 q 278 846 277 857 q 279 826 278 836 m 109 894 l 109 903 q 140 1015 109 982 q 221 1042 165 1042 q 265 1038 241 1042 q 398 997 334 1029 q 509 913 463 966 q 569 788 555 861 q 572 753 572 770 q 570 729 572 741 l 568 707 q 471 495 551 587 q 279 357 390 402 q 281 239 279 298 q 282 120 282 179 l 282 81 q 274 9 282 46 q 243 -50 267 -28 q 199 -66 227 -66 q 174 -63 187 -66 q 121 -20 136 -53 q 106 56 106 14 q 105 81 105 68 q 108 138 105 111 q 110 179 109 161 q 111 433 111 307 q 109 752 111 593 q 109 894 109 823 z "},"Q":{"ha":782,"x_min":77,"x_max":714,"o":"m 544 156 q 576 328 564 220 q 588 534 588 427 l 588 557 q 565 776 587 676 q 492 925 543 876 q 429 953 459 953 q 402 947 415 953 q 328 884 359 930 q 284 795 297 839 q 251 568 258 699 q 249 500 249 534 q 263 311 249 405 q 332 96 282 182 q 399 34 363 41 q 409 33 404 33 q 483 64 441 33 l 491 73 q 492 73 492 73 q 475 89 485 79 q 428 131 452 108 q 395 168 404 153 q 391 192 391 181 q 409 227 391 214 q 431 234 419 234 q 480 213 452 234 q 522 176 500 195 q 544 156 532 166 m 689 576 q 692 492 692 534 q 682 330 692 411 q 615 92 666 205 q 629 80 621 87 q 676 37 651 61 q 709 -3 701 14 q 714 -28 714 -18 q 695 -60 714 -50 q 675 -65 686 -65 q 618 -40 651 -65 q 582 -7 600 -24 q 562 11 572 2 q 409 -72 497 -54 q 365 -77 387 -77 q 244 -36 301 -77 l 236 -29 q 130 141 165 32 q 84 369 94 250 q 77 520 77 452 q 78 577 77 550 q 99 743 81 657 q 154 903 116 829 q 258 1017 192 976 q 391 1051 313 1051 q 425 1050 408 1051 q 555 990 505 1040 q 633 868 606 941 q 673 719 661 796 q 689 576 686 642 z "},"R":{"ha":643,"x_min":105,"x_max":590,"o":"m 535 -72 q 489 -54 507 -72 q 432 64 456 -22 l 393 184 q 289 474 349 329 q 283 494 284 485 q 314 541 283 525 q 452 673 411 591 q 472 756 472 715 q 277 945 472 895 l 275 518 q 279 55 275 152 q 265 -18 279 16 q 193 -57 250 -56 q 106 42 112 -52 l 105 77 q 106 121 105 99 q 110 530 110 380 q 106 939 110 669 q 127 1015 106 988 q 212 1048 153 1048 q 318 1033 266 1048 q 469 959 405 1009 q 558 835 533 908 q 569 766 569 802 q 552 669 569 720 q 393 477 511 552 q 495 233 445 355 l 568 59 q 590 -20 590 10 q 587 -43 590 -33 q 535 -72 578 -69 z "},"S":{"ha":587,"x_min":50,"x_max":534,"o":"m 241 871 q 218 821 225 848 q 217 803 217 812 q 241 696 217 747 q 307 584 270 635 q 394 471 348 524 q 486 349 446 410 q 533 218 526 288 q 534 195 534 207 q 497 58 534 134 q 394 -24 452 -7 q 282 -39 344 -39 q 262 -39 273 -39 q 206 -32 231 -37 q 151 -14 180 -26 q 94 32 117 1 q 79 72 79 50 q 85 100 79 85 q 111 123 96 122 q 116 124 114 124 q 142 115 129 124 q 172 94 159 106 q 251 56 216 56 l 256 56 q 339 104 292 59 l 345 112 q 367 192 367 153 q 361 230 367 211 q 304 338 345 288 q 259 397 281 368 q 143 556 196 475 q 57 739 90 636 q 50 806 50 774 q 83 921 50 872 q 219 1010 132 993 q 260 1015 239 1015 q 398 973 328 1015 q 437 942 415 963 q 471 897 458 922 q 477 873 477 884 q 471 850 477 861 q 444 832 460 832 q 433 834 439 832 q 380 863 409 842 q 310 899 347 888 q 294 901 302 901 q 241 871 266 901 z "},"T":{"ha":448,"x_min":9,"x_max":475,"o":"m 157 772 q 158 789 157 779 q 159 814 159 802 q 158 841 159 827 q 143 877 157 869 q 117 880 130 880 q 90 878 104 880 q 66 876 77 876 q 39 878 52 876 q 9 916 17 883 q 9 926 9 921 q 20 955 9 944 q 59 971 35 969 q 152 980 106 976 q 205 985 179 983 q 239 989 216 986 q 313 996 271 992 q 388 1003 354 1000 q 419 1004 408 1004 q 433 1004 428 1004 q 471 977 460 997 q 475 960 475 968 q 468 937 475 948 q 418 910 455 917 q 384 905 398 907 q 342 897 355 903 q 328 871 330 890 q 326 833 326 857 q 326 805 326 820 l 327 789 q 328 578 328 684 l 328 473 q 330 127 328 300 l 330 112 q 326 54 330 84 q 301 -8 321 16 q 248 -28 283 -28 q 233 -28 240 -28 q 171 14 188 -21 q 153 94 154 48 l 153 117 q 155 183 153 151 q 157 225 157 207 q 158 345 158 285 q 157 465 158 405 q 157 606 157 535 l 157 615 q 157 772 157 694 z "},"U":{"ha":672,"x_min":77,"x_max":583,"o":"m 258 385 q 265 317 258 365 q 285 215 272 269 q 317 121 298 160 q 361 80 336 81 l 362 80 q 416 136 386 80 q 456 258 440 187 q 474 387 472 330 q 479 755 479 570 q 478 903 479 829 l 478 911 q 484 959 478 935 q 527 991 492 989 q 564 970 553 990 q 576 921 575 949 q 578 889 578 904 q 577 869 578 879 l 577 849 q 579 743 578 796 q 583 602 583 673 l 582 554 l 582 545 q 575 384 581 474 q 548 204 570 293 q 478 48 526 115 q 347 -44 431 -19 q 306 -50 326 -50 q 219 -14 255 -50 q 141 120 169 36 q 101 288 113 204 q 85 422 88 372 q 77 669 77 562 q 79 802 77 735 q 79 868 79 835 l 79 874 q 96 952 79 916 q 170 991 115 991 q 237 955 218 988 q 257 876 256 922 q 258 845 258 860 q 255 788 258 816 q 253 752 254 768 q 252 688 252 720 q 254 591 252 640 q 254 538 254 565 q 258 385 255 478 z "},"V":{"ha":662,"x_min":55,"x_max":630,"o":"m 519 819 q 530 947 526 883 q 547 1000 532 975 q 582 1020 559 1020 q 596 1018 589 1020 q 629 975 627 1006 q 630 955 630 965 q 626 911 630 933 q 623 893 625 901 q 620 855 621 874 q 579 509 603 686 q 515 170 555 331 q 514 165 515 168 q 480 59 503 116 q 416 -26 458 2 q 353 -45 383 -45 q 313 -37 332 -45 q 239 37 265 -18 q 176 225 205 112 q 132 422 148 338 q 84 718 106 569 q 59 880 72 800 q 55 918 55 901 q 64 961 55 943 q 136 994 79 991 l 138 994 q 205 964 183 994 q 237 890 228 934 q 249 804 245 846 q 252 772 250 787 q 363 184 289 474 q 389 121 378 127 q 393 120 391 120 q 408 139 401 120 q 422 197 416 163 q 428 220 425 209 q 483 518 462 368 q 519 819 504 668 z "},"W":{"ha":947,"x_min":93,"x_max":857,"o":"m 640 1 q 558 63 591 18 q 504 164 525 109 q 472 266 484 220 q 440 153 461 213 q 385 44 420 94 q 295 -26 349 -5 q 264 -32 279 -32 q 210 -7 233 -32 q 157 90 177 28 q 127 214 137 151 q 113 315 117 277 q 112 325 113 321 q 95 558 98 452 q 93 703 93 628 q 94 779 93 741 q 94 870 94 823 l 94 880 q 111 966 94 926 q 184 1007 127 1007 l 191 1007 q 251 972 234 1002 q 269 902 268 943 q 270 879 270 890 q 267 823 270 850 q 265 788 266 804 q 264 735 264 753 q 264 697 264 717 q 265 648 265 680 q 267 543 265 625 q 274 362 269 460 q 290 194 279 264 q 317 124 300 124 q 362 216 345 148 q 390 365 380 285 q 405 503 399 444 l 408 540 q 441 627 413 592 q 491 650 460 650 q 528 644 508 650 q 590 570 576 623 q 607 462 604 518 q 612 407 609 432 q 628 337 614 394 q 660 220 641 279 q 697 144 678 161 q 705 141 701 141 q 728 193 718 141 q 739 307 737 249 q 741 318 740 312 q 747 588 747 453 q 740 870 747 729 q 739 890 739 880 q 740 912 739 901 q 753 952 742 936 q 787 968 763 968 l 789 968 q 830 941 818 965 q 846 886 843 917 q 850 831 850 855 l 850 825 q 852 787 851 808 q 856 610 854 716 q 857 561 857 586 q 851 389 857 477 q 822 178 844 275 q 756 31 800 82 q 680 -5 725 -5 q 640 1 661 -5 z "},"X":{"ha":682,"x_min":40,"x_max":651,"o":"m 335 346 q 300 275 317 311 q 174 18 237 147 q 154 -21 167 1 q 122 -54 140 -42 q 100 -61 112 -61 q 81 -56 91 -61 q 59 -21 59 -44 l 59 -20 q 72 32 59 5 q 96 81 84 59 q 105 96 101 90 q 226 340 166 218 q 281 454 254 397 q 73 863 180 661 q 46 922 57 890 q 40 954 40 939 q 45 979 40 967 q 100 1008 54 1004 l 104 1008 q 175 985 146 1008 q 228 923 206 960 q 267 846 250 885 q 286 808 276 826 q 372 636 329 722 q 529 947 450 792 q 562 996 541 972 q 591 1009 575 1009 q 615 1003 602 1009 q 636 968 636 990 l 636 965 q 623 914 635 941 q 597 866 610 887 q 588 850 591 857 q 454 587 519 720 q 425 528 440 557 q 439 499 433 513 q 624 137 528 317 q 647 81 638 112 q 651 54 651 67 q 646 28 651 40 q 597 -3 637 4 q 580 -5 589 -5 q 512 20 538 -5 q 459 94 479 50 l 447 120 q 417 181 433 151 q 335 346 376 263 z "},"Y":{"ha":564,"x_min":30,"x_max":577,"o":"m 403 466 q 402 300 402 390 q 401 110 401 187 l 401 104 q 395 44 401 75 q 370 -13 390 11 q 311 -37 351 -36 q 247 -2 264 -35 q 227 76 229 31 q 226 115 226 96 q 227 162 226 139 q 229 191 229 178 q 235 450 232 320 q 146 567 186 492 q 78 722 106 641 q 35 867 50 804 q 30 908 30 889 q 37 949 30 930 q 106 984 49 984 q 191 930 167 979 q 224 823 214 881 q 236 774 229 797 q 276 655 251 718 q 339 545 300 591 q 408 663 379 589 q 455 813 437 736 q 479 941 473 889 q 494 991 482 968 q 532 1012 506 1012 l 539 1012 q 574 973 568 1006 q 577 939 577 957 q 574 900 577 920 q 561 832 568 860 q 557 818 559 824 q 504 638 543 743 q 403 466 465 532 z "},"Z":{"ha":560,"x_min":37,"x_max":559,"o":"m 181 412 q 329 764 239 546 q 354 833 342 797 q 358 855 358 845 q 340 888 358 876 q 285 899 321 897 l 267 899 q 208 897 239 899 q 159 896 182 896 q 129 897 143 896 q 78 909 93 898 q 62 944 62 926 q 66 962 62 953 q 115 992 76 991 l 199 992 l 245 993 q 388 989 314 993 q 534 961 486 985 q 559 919 557 945 l 559 916 q 548 864 559 892 q 526 811 537 835 q 519 798 522 804 q 386 469 435 578 q 262 184 325 333 q 247 132 247 150 q 252 116 247 121 q 295 106 265 106 l 302 106 q 371 112 338 107 q 399 114 389 114 q 416 115 407 115 q 446 113 429 115 q 495 100 473 111 q 520 64 517 90 q 494 20 520 34 q 441 4 467 6 q 321 -5 401 0 q 211 -8 265 -8 q 165 -7 188 -8 q 56 10 87 -5 q 37 50 37 24 q 38 59 37 55 q 57 129 41 92 q 89 195 73 165 q 102 220 96 210 q 181 412 142 323 z "},"[":{"ha":298,"x_min":47,"x_max":251,"o":"m 145 92 q 144 68 145 82 q 143 29 143 50 q 144 -1 143 14 q 159 -53 145 -38 q 195 -68 172 -63 q 235 -83 218 -72 q 251 -115 251 -92 q 250 -121 251 -118 q 206 -161 242 -155 q 153 -167 178 -167 q 139 -166 146 -167 l 136 -166 q 58 -134 71 -165 q 47 -74 47 -111 q 48 -50 47 -62 q 49 -31 48 -41 q 51 361 51 165 q 50 597 51 479 q 49 889 49 743 l 49 947 q 48 1009 48 979 q 49 1068 48 1039 q 64 1101 50 1086 q 94 1114 77 1114 l 99 1114 q 114 1115 104 1114 q 168 1118 136 1118 l 172 1118 q 223 1109 200 1118 q 251 1072 248 1099 l 251 1070 q 237 1042 251 1050 q 202 1026 222 1031 q 168 1011 184 1021 q 145 982 151 1002 q 144 951 144 975 l 144 895 q 144 836 144 863 q 145 798 145 809 l 145 704 q 146 398 146 551 q 145 92 146 245 z "},"\\":{"ha":404,"x_min":24,"x_max":332,"o":"m 136 911 q 301 149 215 530 q 314 92 307 120 q 319 72 316 83 q 332 -1 330 37 l 332 -3 q 298 -52 332 -39 q 283 -54 290 -54 q 251 -35 262 -54 q 231 16 236 -11 q 50 859 143 438 q 46 873 48 866 q 41 896 44 882 q 28 951 33 921 q 24 988 24 970 q 25 1006 24 998 q 50 1042 28 1031 q 70 1046 60 1046 q 96 1034 85 1046 q 121 983 113 1015 q 134 926 130 952 q 136 911 135 918 z "},"]":{"ha":298,"x_min":47,"x_max":251,"o":"m 153 859 q 154 883 153 869 q 155 922 155 901 q 155 952 155 937 q 140 1004 153 989 q 103 1019 127 1014 q 63 1034 81 1023 q 47 1065 47 1043 q 48 1072 47 1069 q 92 1112 56 1105 q 145 1118 121 1118 q 159 1117 153 1118 l 163 1117 q 241 1085 228 1116 q 251 1025 251 1062 q 250 1001 251 1013 q 250 981 250 991 q 248 590 248 786 q 248 354 248 472 q 250 62 250 208 l 250 3 q 250 -58 250 -28 q 250 -117 250 -88 q 235 -150 248 -135 q 205 -163 221 -163 l 199 -163 q 184 -164 194 -163 q 131 -167 162 -167 l 127 -167 q 75 -158 98 -167 q 47 -121 50 -149 l 47 -119 q 62 -91 47 -100 q 96 -75 76 -81 q 131 -60 115 -70 q 153 -31 147 -51 q 155 0 155 -24 l 155 56 q 154 115 154 88 q 153 153 153 142 l 153 247 q 153 553 153 400 q 153 859 153 706 z "},"^":{"ha":430,"x_min":47,"x_max":382,"o":"m 218 843 q 200 822 210 842 q 180 775 190 801 q 164 730 170 749 q 159 718 161 722 q 159 715 159 716 q 142 676 152 696 q 116 644 132 655 q 94 637 106 637 q 76 640 86 637 q 47 682 47 654 q 48 692 47 686 q 69 757 54 726 q 77 774 73 766 q 83 792 79 781 q 120 884 97 827 q 166 989 142 941 q 205 1046 190 1037 q 216 1048 211 1048 q 255 1020 236 1048 q 298 933 279 984 q 329 846 318 882 q 336 824 334 831 q 343 804 338 817 q 359 760 351 785 q 375 714 368 735 q 382 686 382 693 q 363 648 381 662 q 336 638 351 638 q 322 640 329 638 q 283 682 299 646 q 271 722 279 696 q 246 797 260 760 q 218 843 232 833 z "},"_":{"ha":594,"x_min":47,"x_max":547,"o":"m 110 -132 l 107 -132 q 64 -119 82 -132 q 47 -85 47 -107 q 48 -75 47 -81 q 83 -37 55 -43 q 123 -33 103 -33 q 142 -34 132 -33 q 158 -35 151 -35 l 233 -35 q 348 -34 286 -34 q 457 -34 410 -34 q 509 -36 503 -35 q 547 -83 547 -53 q 546 -89 547 -85 q 495 -130 543 -123 q 429 -132 465 -132 q 391 -132 410 -132 q 350 -131 368 -131 l 340 -131 q 110 -132 225 -131 z "},"`":{"ha":309,"x_min":47,"x_max":261,"o":"m 245 707 q 261 679 260 695 l 261 677 q 249 649 261 662 q 216 635 235 636 l 212 635 q 181 646 195 635 l 163 659 q 122 690 145 673 q 81 722 99 708 l 63 735 q 47 763 48 747 l 47 766 q 60 793 47 781 q 99 814 80 813 q 147 796 128 814 l 245 707 z "},"a":{"ha":642,"x_min":53,"x_max":589,"o":"m 425 403 q 319 443 364 443 q 286 437 301 443 q 204 351 232 416 q 170 210 176 286 q 168 163 168 186 q 176 83 168 119 q 228 24 190 28 q 233 23 231 23 q 335 92 271 23 q 392 185 375 137 q 421 288 410 233 l 425 304 l 425 403 m 425 49 q 382 2 404 21 q 330 -33 360 -17 q 208 -66 263 -66 q 162 -60 184 -66 q 62 68 90 -40 q 53 155 53 109 q 62 250 53 200 q 131 429 79 349 q 272 533 183 509 q 315 538 294 538 q 345 535 331 538 q 401 522 379 530 q 426 517 418 517 l 427 517 q 430 518 428 517 q 436 522 433 519 q 447 527 441 524 q 456 531 453 530 q 505 540 484 540 q 548 524 532 540 q 575 434 575 496 q 574 405 574 420 q 573 369 574 387 q 574 307 573 349 q 575 190 574 254 l 575 149 q 574 74 575 109 q 584 6 579 17 l 589 -13 l 589 -24 q 554 -59 581 -59 l 535 -59 q 470 -24 494 -52 q 425 49 447 -5 z "},"b":{"ha":690,"x_min":92,"x_max":638,"o":"m 264 173 l 264 75 q 374 35 326 35 q 407 40 391 35 q 499 122 466 60 q 540 260 532 185 q 542 303 542 283 q 530 391 542 351 q 468 453 511 447 q 460 454 465 454 q 355 385 418 454 q 297 292 315 340 q 269 190 279 244 q 264 173 267 182 m 92 871 q 92 892 92 882 q 94 937 92 914 q 117 993 98 970 q 174 1015 134 1015 l 176 1015 q 247 976 227 1011 q 269 892 267 941 q 269 857 269 873 q 267 800 269 827 q 265 766 266 781 q 263 627 263 714 q 264 539 263 583 q 264 429 264 484 q 360 511 301 479 q 481 544 427 544 q 527 538 505 544 q 628 408 600 517 q 638 318 638 365 q 631 235 638 278 q 568 64 615 142 q 446 -45 521 -13 q 374 -60 412 -60 q 271 -37 326 -60 q 266 -35 268 -36 q 250 -28 258 -31 q 245 -28 248 -28 q 237 -30 241 -28 l 228 -37 q 205 -51 216 -45 q 184 -56 195 -56 q 129 -39 149 -56 q 100 9 109 -21 q 93 73 93 38 l 93 79 q 98 387 97 233 l 98 498 l 98 609 q 92 871 97 758 z "},"c":{"ha":538,"x_min":62,"x_max":499,"o":"m 64 302 q 142 493 80 433 q 297 546 198 546 q 323 545 310 546 q 421 513 382 541 q 471 414 460 484 q 472 396 472 404 q 448 344 472 353 q 438 342 443 342 q 388 388 414 342 q 349 433 373 418 q 317 442 334 442 q 294 439 306 442 q 244 400 263 428 q 215 340 224 373 q 209 267 209 309 q 210 227 209 248 q 236 103 214 160 q 304 29 258 46 q 321 26 313 26 q 347 34 335 26 q 379 67 366 45 q 397 100 389 83 q 398 101 397 100 q 403 111 400 106 q 432 161 414 138 q 460 177 444 177 q 477 173 468 177 q 499 131 499 159 q 498 119 499 125 q 473 46 493 83 q 437 -8 453 9 q 332 -66 393 -52 q 281 -72 307 -72 q 214 -61 248 -72 q 120 12 157 -43 q 70 151 83 71 q 62 254 62 203 q 64 302 62 278 z "},"d":{"ha":675,"x_min":53,"x_max":608,"o":"m 427 410 q 319 450 365 450 q 291 446 304 450 q 207 368 237 428 q 169 235 178 308 q 164 171 164 201 q 172 99 164 132 q 225 32 185 40 q 233 31 229 31 q 336 100 273 31 q 394 193 376 144 q 422 295 411 241 q 427 312 425 303 l 427 410 m 596 831 q 593 470 593 657 q 595 149 593 309 q 598 105 596 127 q 600 60 600 82 q 600 33 600 47 q 606 -26 600 -1 q 608 -33 608 -30 q 570 -56 608 -51 q 534 -58 557 -58 q 420 41 471 -58 q 409 35 417 41 q 386 14 395 22 q 363 -5 375 3 q 331 -26 352 -14 q 208 -60 260 -60 q 157 -50 180 -60 q 68 58 92 -21 q 53 164 53 108 q 58 235 53 198 q 119 414 72 332 q 244 530 167 496 q 316 545 277 545 q 427 519 367 545 l 427 626 q 427 756 427 698 q 425 829 427 792 q 423 897 423 864 l 423 919 q 448 1004 423 968 q 505 1033 467 1033 q 527 1031 515 1033 q 593 965 583 1015 q 599 897 599 932 q 597 863 599 880 q 596 831 596 846 z "},"e":{"ha":569,"x_min":62,"x_max":517,"o":"m 401 421 q 351 450 380 450 l 345 450 q 281 425 312 447 q 235 374 250 402 q 216 303 220 340 q 293 313 243 304 q 380 346 343 322 q 408 391 408 363 q 404 412 408 401 l 401 421 m 218 208 q 217 189 217 199 q 222 134 217 163 q 250 62 230 94 q 307 24 270 31 q 320 24 313 24 q 386 50 358 24 q 437 119 418 81 q 447 140 443 130 q 462 169 453 157 q 479 177 468 177 q 488 176 484 177 q 515 147 510 170 q 517 127 517 138 q 513 99 517 113 q 499 56 507 73 q 387 -53 458 -22 q 294 -73 342 -73 q 235 -65 265 -73 q 116 23 156 -42 q 66 170 75 87 q 62 239 62 205 q 69 329 62 285 q 163 505 90 450 q 302 547 220 547 q 349 544 325 547 q 456 496 411 536 q 498 390 498 458 l 498 384 q 476 314 496 344 q 426 263 457 284 q 325 222 380 235 q 218 208 270 210 z "},"f":{"ha":471,"x_min":20,"x_max":498,"o":"m 111 432 l 109 435 q 99 440 104 439 q 89 443 94 441 l 87 443 q 74 445 81 444 q 41 453 56 446 q 21 484 26 460 q 20 493 20 489 q 35 526 20 516 q 78 540 54 537 q 115 560 109 545 q 120 595 120 573 l 120 610 q 134 730 120 663 q 181 854 149 797 q 269 932 214 911 q 351 950 299 943 q 397 954 375 954 q 447 949 423 954 q 498 902 491 940 l 498 898 q 486 871 498 880 q 453 862 472 863 l 446 862 q 418 864 431 862 q 395 865 406 865 q 345 852 364 865 q 306 787 320 836 q 292 716 298 765 q 282 620 285 668 q 281 595 281 606 q 286 551 281 566 q 295 542 289 544 q 309 540 301 541 l 379 540 q 413 526 399 540 q 427 492 427 512 q 413 458 427 472 q 379 444 399 444 l 362 444 q 344 445 353 445 q 288 440 315 445 q 287 376 287 408 q 293 205 287 292 q 299 69 297 136 q 300 39 299 56 q 302 -31 302 5 q 302 -69 302 -50 q 283 -155 300 -127 q 235 -182 267 -176 q 214 -184 224 -184 q 174 -177 193 -184 q 132 -132 143 -165 q 127 -76 127 -113 q 129 -3 127 -39 q 130 35 130 20 q 131 100 131 68 q 122 361 131 231 q 118 397 121 377 q 111 432 116 417 z "},"g":{"ha":669,"x_min":53,"x_max":603,"o":"m 340 100 q 397 193 379 144 q 426 295 414 241 q 430 313 428 304 q 431 317 430 315 q 430 410 430 363 q 319 449 369 449 q 286 444 301 449 q 183 339 222 427 q 157 243 167 301 q 152 180 152 211 q 155 130 152 155 q 195 45 162 75 q 231 31 212 31 q 247 33 239 31 q 298 61 274 41 q 340 100 323 81 m 306 -437 q 393 -343 366 -414 q 426 -190 419 -273 q 432 -49 432 -108 l 432 60 q 334 -26 395 7 q 211 -59 266 -59 q 168 -54 189 -59 q 66 75 98 -34 q 58 164 58 118 q 64 243 58 203 q 120 410 77 334 q 232 523 162 486 q 319 544 271 544 q 398 532 357 544 q 427 520 415 526 q 447 513 439 514 q 461 517 454 514 q 476 523 467 521 q 494 525 483 525 l 500 525 q 574 501 552 522 q 600 448 596 480 q 602 406 602 428 q 601 375 602 391 q 600 336 600 356 q 602 188 600 252 q 603 54 603 121 q 596 -99 602 -12 q 576 -262 593 -170 q 518 -431 559 -355 q 399 -532 477 -508 q 324 -542 363 -542 q 277 -538 301 -542 q 166 -492 213 -529 q 121 -446 141 -471 q 53 -302 53 -353 l 53 -298 q 88 -249 56 -249 l 90 -249 q 153 -309 125 -250 q 185 -380 166 -346 q 232 -433 203 -414 q 270 -443 248 -443 q 306 -437 286 -443 z "},"h":{"ha":690,"x_min":92,"x_max":637,"o":"m 96 841 q 94 873 95 855 q 92 923 92 897 q 92 954 92 938 q 114 1023 94 996 q 173 1048 132 1048 q 183 1048 178 1048 q 250 1009 231 1042 q 270 930 269 975 l 271 907 q 267 841 271 873 q 264 804 265 821 q 263 678 263 741 q 264 583 263 631 q 264 494 264 538 l 264 429 q 360 511 301 479 q 482 545 432 545 q 514 541 500 545 q 600 464 572 526 q 635 311 628 402 q 637 208 637 277 q 633 75 637 140 q 616 -18 628 9 q 571 -53 602 -45 q 554 -55 562 -55 q 516 -43 534 -55 q 494 12 494 -27 l 494 20 q 502 83 496 51 q 513 172 510 127 q 514 200 513 184 q 516 304 516 246 q 505 407 516 362 q 463 458 494 452 q 456 459 460 459 q 376 408 427 459 l 366 397 l 355 385 q 297 292 315 340 q 269 190 279 244 q 264 173 267 182 q 265 144 264 161 q 267 83 267 115 q 267 50 267 67 q 253 -24 265 -1 q 196 -59 233 -53 q 180 -60 188 -60 q 128 -43 153 -60 q 94 35 97 -21 l 94 61 q 94 113 94 86 l 96 156 q 96 268 96 212 q 98 532 98 400 q 96 841 98 686 z "},"i":{"ha":351,"x_min":75,"x_max":298,"o":"m 190 838 q 248 783 229 821 q 261 731 261 758 q 257 700 261 715 q 208 646 245 660 q 160 636 184 636 q 134 639 147 636 q 83 671 97 646 q 75 714 75 688 q 76 728 75 721 q 93 796 78 764 q 133 840 107 828 q 159 844 146 844 q 190 838 175 844 m 84 274 q 76 425 77 349 l 76 438 q 92 511 76 481 q 155 541 108 541 q 170 541 162 541 q 232 510 214 534 q 252 450 250 485 q 252 424 252 437 q 250 379 252 401 q 248 338 248 357 q 248 248 248 293 q 259 104 248 182 q 293 5 270 27 l 298 -14 l 298 -24 q 263 -60 290 -60 l 244 -60 q 126 47 163 -52 q 84 274 90 147 z "},"j":{"ha":357,"x_min":0,"x_max":289,"o":"m 36 -484 q 68 -465 56 -478 q 108 -365 98 -435 q 121 -192 121 -283 l 121 -167 q 111 45 119 -61 q 103 186 104 97 q 101 272 102 229 q 100 384 100 329 l 100 387 q 121 477 100 438 q 195 513 141 513 l 204 513 q 258 477 243 508 q 275 404 274 446 q 276 368 276 385 q 275 325 276 346 q 273 297 274 309 q 273 226 273 261 q 279 60 273 119 q 282 5 280 33 q 289 -178 288 -83 l 289 -184 q 271 -358 289 -275 q 199 -502 252 -444 q 45 -572 146 -559 q 0 -530 0 -572 q 36 -484 0 -490 m 205 642 q 171 637 188 637 q 140 641 155 637 q 93 684 110 652 q 73 751 76 716 q 73 764 73 758 q 82 810 73 791 q 141 842 98 834 q 169 844 155 844 q 227 834 197 844 q 283 781 269 821 q 287 750 287 765 q 273 697 287 722 q 205 642 250 659 z "},"k":{"ha":570,"x_min":92,"x_max":564,"o":"m 92 929 l 92 942 q 109 1018 92 987 q 176 1048 126 1048 q 191 1047 184 1048 q 250 1018 233 1042 q 268 959 266 994 q 269 936 269 947 q 267 890 269 913 q 264 860 265 874 q 263 734 263 798 q 264 638 263 686 q 264 525 264 581 l 264 282 q 286 306 274 294 q 295 316 290 311 q 421 457 359 386 q 426 463 423 460 q 470 500 443 484 q 494 508 482 508 q 522 497 508 508 q 536 467 536 483 q 534 454 536 460 q 509 409 528 431 q 472 368 490 386 l 459 355 q 366 251 412 304 q 444 163 405 206 q 507 92 475 128 q 541 47 524 75 q 563 -10 559 19 q 564 -18 564 -14 q 543 -60 564 -41 q 518 -68 530 -68 q 495 -61 507 -68 q 449 -16 471 -46 q 411 43 427 15 q 392 73 400 62 q 315 163 358 119 q 283 199 298 182 l 271 213 l 265 220 q 266 161 265 192 q 267 98 267 129 q 266 39 267 68 q 244 -37 264 -12 q 184 -58 227 -58 q 170 -58 177 -58 q 111 -27 128 -51 q 92 32 94 -3 q 92 55 92 43 q 94 101 92 77 q 96 138 95 121 q 98 448 98 293 q 92 929 98 688 z "},"l":{"ha":384,"x_min":92,"x_max":378,"o":"m 185 994 q 250 956 231 987 q 270 884 268 925 q 271 847 271 865 q 269 804 271 825 q 261 657 263 751 q 255 532 259 595 q 248 408 250 470 l 248 402 q 247 312 247 372 l 247 300 q 252 185 247 245 q 274 71 258 119 q 323 20 291 24 l 327 20 q 338 20 332 20 q 352 22 345 22 q 365 20 359 22 q 378 1 377 18 q 355 -34 376 -20 q 307 -56 334 -49 q 270 -60 286 -60 q 260 -60 264 -60 q 190 -22 218 -53 q 143 50 161 9 q 117 127 125 90 q 99 270 103 196 q 95 415 95 343 q 94 438 94 427 q 94 581 94 509 l 94 711 q 92 870 94 802 q 103 945 92 909 q 176 994 117 990 l 185 994 z "},"m":{"ha":1050,"x_min":77,"x_max":998,"o":"m 79 439 l 79 442 q 105 522 79 496 q 165 543 125 543 q 189 542 176 543 q 242 512 233 534 q 250 464 250 493 l 250 438 q 252 432 251 432 l 253 432 q 258 435 255 432 q 264 444 260 438 q 273 455 269 450 q 355 515 304 488 q 458 547 405 543 l 466 547 q 547 511 513 547 q 583 458 567 487 l 593 441 q 610 428 602 428 q 613 429 611 428 q 632 448 622 433 l 643 460 q 812 545 711 535 l 821 546 l 823 546 q 916 508 884 546 q 962 413 949 469 q 978 309 975 358 q 982 269 979 294 q 992 159 987 222 q 998 42 997 96 l 998 35 q 989 -34 998 -14 q 946 -61 975 -60 l 945 -61 q 894 -39 916 -61 q 873 18 873 -19 q 874 32 873 25 q 879 68 876 52 q 887 146 884 104 q 889 210 889 172 q 888 251 889 229 q 874 374 888 316 q 825 449 860 433 q 808 452 817 452 q 724 406 775 452 q 646 274 668 350 q 621 122 624 198 q 625 72 621 101 q 630 16 630 43 l 630 3 q 607 -45 629 -30 q 583 -50 595 -50 q 548 -38 566 -50 q 515 8 519 -18 q 514 26 514 16 q 515 47 514 36 q 519 96 517 71 q 524 145 523 124 q 526 211 526 170 l 526 241 q 513 365 525 304 q 469 449 501 426 q 446 456 459 456 q 378 425 418 456 q 289 304 321 375 q 252 157 256 233 q 251 115 251 136 l 251 93 q 252 65 252 79 q 250 27 252 46 q 230 -30 247 -6 q 172 -58 212 -54 q 159 -58 165 -58 q 100 -35 118 -58 q 78 31 80 -9 q 77 67 77 50 q 79 112 77 90 q 80 146 80 130 q 81 254 81 200 q 80 363 81 309 q 79 439 80 401 z "},"n":{"ha":681,"x_min":77,"x_max":629,"o":"m 346 511 q 468 545 418 545 q 500 541 486 545 q 586 464 557 526 q 621 311 614 402 q 629 120 629 216 q 627 19 629 69 q 606 -35 625 -10 q 566 -54 591 -54 q 549 -52 558 -54 q 513 -12 517 -41 q 513 5 513 -3 q 517 45 513 25 q 519 62 518 54 q 526 157 523 94 q 527 214 527 185 q 525 287 527 250 q 504 404 521 355 q 450 457 486 452 l 444 457 q 351 397 409 457 l 340 385 q 273 264 295 332 q 251 132 251 199 l 251 127 q 252 101 251 115 q 252 75 252 88 q 250 23 252 49 q 224 -40 246 -16 q 172 -58 208 -58 q 151 -57 162 -58 q 83 -9 93 -47 q 77 42 77 14 q 79 77 77 58 l 80 108 q 81 215 81 162 q 80 321 81 269 q 79 437 79 378 q 111 525 79 496 q 168 545 132 545 q 202 541 184 545 q 245 508 239 532 q 251 469 251 490 q 250 453 251 461 q 250 436 250 445 q 251 431 250 431 l 252 431 q 255 433 253 431 q 260 440 258 436 l 269 451 q 298 479 282 466 l 299 480 q 346 511 321 498 z "},"o":{"ha":702,"x_min":53,"x_max":650,"o":"m 381 24 q 502 87 458 28 q 550 220 546 147 l 551 235 q 534 336 551 288 q 471 422 514 391 q 397 444 440 444 q 358 439 378 444 q 245 359 277 420 q 220 260 220 315 q 224 220 220 241 q 272 94 233 153 q 381 24 310 34 m 207 511 q 357 537 273 537 q 387 536 372 537 q 554 477 487 532 q 643 309 625 408 q 650 239 650 274 q 629 119 650 178 q 508 -28 595 26 q 374 -73 444 -63 q 334 -75 354 -75 q 233 -58 283 -75 q 107 47 153 -29 q 54 216 61 123 q 53 245 53 231 q 84 391 53 322 q 207 511 121 471 z "},"p":{"ha":678,"x_min":81,"x_max":626,"o":"m 253 165 l 253 94 q 252 78 253 83 l 252 71 q 255 66 252 68 q 263 60 258 64 q 264 60 264 60 q 363 28 319 28 q 401 35 384 28 q 490 119 458 57 q 529 256 522 182 q 531 294 531 275 q 517 386 531 345 q 467 444 497 438 q 454 446 460 446 q 404 429 429 446 q 342 378 371 408 q 286 284 303 332 q 257 182 268 237 l 253 165 m 349 503 q 463 537 404 532 q 473 538 469 538 q 570 494 526 538 q 625 355 618 438 q 626 316 626 336 q 610 189 626 252 q 550 47 588 105 q 363 -67 474 -67 q 253 -42 312 -67 q 252 -196 252 -119 q 253 -349 252 -273 q 254 -386 254 -366 q 256 -432 256 -409 q 256 -460 256 -446 q 238 -526 254 -498 q 182 -563 222 -555 q 154 -566 166 -566 q 97 -537 111 -566 q 81 -460 81 -506 q 82 -445 81 -452 q 83 -14 83 -229 l 83 330 q 83 447 83 388 l 83 451 q 174 543 83 541 q 245 511 233 543 q 255 455 255 488 q 254 433 255 444 q 253 421 253 427 q 296 467 274 448 q 349 503 318 486 z "},"q":{"ha":666,"x_min":53,"x_max":598,"o":"m 424 48 q 381 2 403 21 q 328 -33 359 -17 q 208 -66 262 -66 q 162 -60 184 -66 q 61 68 90 -40 q 53 155 53 109 q 60 246 53 199 q 125 422 76 343 q 261 528 175 502 q 309 534 286 534 q 325 534 317 534 q 380 526 355 531 q 420 519 404 519 q 436 522 429 519 q 514 538 473 537 l 517 538 q 580 501 555 538 q 597 429 597 467 l 597 418 q 593 241 593 330 l 593 174 q 598 -427 593 -126 l 598 -440 q 594 -493 598 -467 q 569 -545 589 -525 q 511 -563 551 -563 l 505 -563 q 439 -527 457 -559 q 419 -450 420 -495 l 419 -427 q 422 -362 419 -394 q 425 -322 424 -340 q 426 -184 426 -254 q 425 -81 426 -133 l 424 39 l 424 48 m 334 92 q 391 185 374 137 q 420 288 409 233 q 424 304 422 296 l 424 332 l 425 367 l 424 402 q 309 441 359 441 q 280 437 294 441 q 178 331 221 421 q 152 235 161 293 q 147 171 147 203 q 150 122 147 146 q 189 37 157 67 q 227 23 208 23 q 241 25 234 23 q 294 53 269 33 q 334 92 318 73 z "},"r":{"ha":526,"x_min":77,"x_max":526,"o":"m 349 412 q 311 371 328 395 q 270 293 286 332 q 236 193 241 228 q 231 135 231 167 q 232 113 231 124 q 233 51 233 87 l 233 47 q 217 -29 233 0 q 154 -59 202 -59 l 150 -59 q 85 -14 95 -54 q 77 49 77 16 q 78 73 77 60 q 79 91 79 82 q 79 107 79 99 l 81 167 l 81 221 q 79 438 81 330 l 79 448 q 95 515 79 490 q 168 543 114 543 q 227 425 214 543 l 230 394 q 247 433 235 410 q 271 469 259 456 q 353 526 309 506 q 420 539 385 539 q 487 528 452 539 q 520 500 509 520 q 526 480 526 491 q 525 446 526 456 q 519 425 524 436 q 475 385 505 385 l 467 385 q 404 418 447 385 q 387 427 393 427 q 349 412 372 427 z "},"s":{"ha":479,"x_min":55,"x_max":427,"o":"m 272 575 q 394 523 363 561 q 415 477 415 498 q 410 458 415 467 q 379 441 400 441 q 347 448 366 441 q 334 455 342 452 q 271 481 306 471 q 253 484 261 484 q 214 465 230 484 q 206 439 206 453 q 214 408 206 425 q 257 341 229 375 q 309 283 286 308 q 328 262 321 271 q 391 183 363 224 q 425 96 418 142 q 427 75 427 85 q 407 -1 427 39 q 323 -64 378 -48 q 255 -74 290 -74 q 209 -70 232 -74 q 110 -27 150 -59 q 64 33 84 -5 q 55 70 55 53 q 64 102 55 87 q 87 113 76 113 q 99 111 93 113 q 132 87 116 102 l 138 81 q 140 79 139 80 q 195 39 163 56 q 226 31 210 31 q 259 39 242 31 q 279 75 279 53 q 275 96 279 85 q 229 173 261 133 q 168 242 196 213 q 145 268 153 259 q 91 349 117 302 q 62 445 66 396 q 61 455 61 450 q 92 534 61 498 q 176 574 126 568 q 231 577 205 577 q 272 575 252 577 z "},"t":{"ha":443,"x_min":20,"x_max":437,"o":"m 111 444 q 101 444 106 444 l 92 444 q 48 449 68 444 q 20 490 24 456 q 48 535 20 527 q 90 541 68 541 q 106 540 98 541 l 113 540 q 115 587 114 564 q 117 640 117 613 l 117 679 q 117 709 117 694 q 119 760 117 734 q 141 830 122 801 q 204 865 159 860 q 218 866 211 866 q 271 846 254 866 q 293 785 290 821 q 294 753 294 768 q 292 713 294 732 l 290 675 q 281 541 283 607 q 355 539 319 541 q 419 503 410 534 q 421 490 421 496 q 397 452 421 468 q 350 444 381 445 q 310 444 329 444 l 292 444 q 278 444 284 444 l 278 425 q 280 317 278 383 q 296 154 283 233 q 336 43 308 75 q 368 28 351 30 l 374 28 q 399 31 387 28 q 414 32 408 32 q 428 30 422 32 q 437 7 437 26 l 437 2 q 403 -47 432 -33 q 337 -62 374 -61 l 330 -62 q 273 -57 297 -62 q 179 16 213 -43 q 132 153 146 74 q 114 309 117 233 q 111 420 111 374 l 111 444 z "},"u":{"ha":656,"x_min":57,"x_max":604,"o":"m 189 283 q 217 105 198 147 q 289 34 244 45 q 296 33 292 33 q 334 50 316 33 q 371 94 355 68 q 395 138 387 119 q 445 366 435 248 q 446 404 446 381 q 451 477 446 439 q 475 537 456 514 q 516 553 489 553 q 538 551 526 553 q 585 515 571 543 q 602 451 600 487 q 604 395 604 422 l 604 382 q 603 359 603 370 l 603 309 q 602 207 603 258 q 602 167 602 186 l 602 146 l 602 123 q 599 44 602 86 q 574 -39 594 -12 q 534 -57 554 -57 q 521 -55 528 -57 q 477 -19 495 -46 q 452 38 458 9 q 450 56 450 50 q 449 60 450 60 q 446 55 448 60 q 427 28 441 47 q 347 -49 393 -21 q 288 -64 319 -64 q 238 -56 264 -64 q 151 24 184 -35 q 100 152 117 83 q 76 275 83 222 q 66 349 72 298 q 58 448 60 399 q 57 472 57 461 q 62 517 57 503 q 102 547 77 547 l 103 547 q 122 551 111 549 q 190 453 190 551 l 190 382 q 189 283 190 344 z "},"v":{"ha":582,"x_min":57,"x_max":530,"o":"m 57 483 q 92 529 64 517 q 129 536 109 536 q 153 534 140 536 q 205 500 185 526 q 230 446 220 479 q 245 378 239 412 q 254 336 250 355 q 255 332 254 334 q 269 277 258 317 q 294 193 280 237 q 321 119 308 149 q 342 93 334 93 q 345 94 344 93 q 374 173 359 109 q 404 315 390 238 q 427 441 418 391 q 433 471 431 460 q 452 515 437 496 q 481 527 463 527 q 497 525 488 527 q 530 477 530 511 l 530 475 q 519 406 530 439 q 516 389 517 396 q 512 370 514 380 q 479 219 501 311 q 424 47 457 126 q 345 -52 391 -33 q 317 -56 332 -56 q 267 -45 292 -56 q 201 1 226 -30 q 151 105 177 33 q 103 253 125 178 q 72 369 81 328 q 60 426 66 395 q 57 471 57 449 l 57 483 z "},"w":{"ha":908,"x_min":57,"x_max":840,"o":"m 405 229 l 402 239 q 385 312 393 275 q 381 327 382 319 q 370 389 373 357 q 369 401 369 395 q 380 441 369 424 q 435 469 393 464 q 448 470 441 470 q 519 437 497 470 q 552 348 544 399 q 614 132 570 236 q 677 49 652 49 l 678 49 q 717 110 703 52 q 737 250 731 168 q 744 403 743 331 q 745 480 745 451 l 745 513 q 759 546 745 533 q 793 559 773 559 q 827 545 814 559 q 840 511 840 532 l 840 467 q 835 280 840 375 q 808 98 829 186 q 776 7 797 47 q 703 -49 755 -33 q 654 -55 677 -55 q 592 -43 621 -55 q 502 22 542 -23 q 466 69 473 55 q 458 79 460 79 q 450 68 455 79 q 438 43 447 59 q 349 -51 404 -18 q 258 -75 308 -75 q 222 -72 241 -75 q 132 20 163 -55 q 86 186 100 96 q 68 338 73 276 q 66 355 67 347 q 62 387 65 370 q 57 446 57 417 q 59 481 57 464 q 117 543 65 526 q 150 547 135 547 q 203 525 184 547 q 232 439 229 492 q 233 401 233 426 q 238 267 234 347 q 256 122 243 187 q 296 46 269 58 q 302 45 299 45 q 347 78 328 45 q 385 160 370 115 q 405 229 400 206 z "},"x":{"ha":594,"x_min":36,"x_max":579,"o":"m 187 496 q 261 383 203 458 q 292 347 279 362 q 317 378 302 359 q 382 460 347 418 q 444 517 418 502 q 509 534 475 534 l 519 534 q 575 503 560 530 q 579 485 579 495 q 549 416 579 458 q 463 311 510 365 q 409 248 434 279 l 403 241 l 391 226 q 411 201 399 215 q 533 52 451 153 q 546 18 547 37 q 532 -16 546 -1 q 515 -26 524 -22 q 486 -35 504 -33 l 472 -35 q 388 57 438 -35 q 349 125 360 101 l 329 150 q 302 115 317 134 q 224 16 268 66 q 137 -49 180 -33 q 93 -56 112 -56 q 44 -33 58 -56 q 36 -4 36 -20 q 62 66 36 25 q 127 146 91 105 q 165 190 148 169 q 230 271 197 231 l 79 454 q 65 488 65 468 l 65 490 q 78 522 65 507 q 90 530 84 527 q 125 545 104 545 q 187 496 168 545 z "},"y":{"ha":683,"x_min":62,"x_max":616,"o":"m 180 -456 q 130 -404 152 -433 q 92 -343 113 -383 q 63 -264 70 -303 q 62 -249 62 -256 q 84 -205 62 -221 q 106 -199 96 -199 q 133 -212 121 -199 q 161 -257 153 -232 q 172 -286 167 -271 q 197 -347 181 -319 q 248 -393 212 -375 q 294 -404 273 -404 q 335 -390 317 -404 q 389 -312 368 -363 q 439 -146 430 -220 q 446 -16 446 -88 q 445 21 446 2 l 445 50 q 330 -55 399 -25 q 279 -66 305 -66 q 182 -31 233 -66 q 102 104 117 26 q 90 243 90 172 l 90 264 q 90 324 90 294 l 90 328 q 89 365 89 345 q 90 407 89 385 q 109 487 92 452 q 168 530 126 523 l 174 530 q 220 502 210 530 q 228 459 228 481 q 226 437 228 448 q 214 370 222 408 q 195 259 203 317 q 190 179 190 218 q 191 147 190 163 q 218 61 193 94 l 231 46 q 271 28 252 28 q 287 31 279 28 q 335 68 313 41 q 368 120 356 95 q 440 406 433 256 q 445 469 440 439 q 470 516 450 498 q 514 530 485 530 q 532 528 522 530 q 595 496 577 522 q 616 433 614 469 q 616 401 616 417 q 615 358 616 380 q 613 317 614 337 q 614 190 613 259 q 616 75 616 134 q 614 -45 616 16 q 530 -366 611 -236 q 342 -498 450 -495 q 180 -456 230 -496 z "},"z":{"ha":533,"x_min":55,"x_max":528,"o":"m 369 229 l 338 182 q 263 67 298 125 q 321 66 292 66 q 377 67 349 66 l 412 68 l 448 67 q 519 43 501 65 q 528 20 528 31 q 519 -4 528 8 q 452 -31 501 -27 q 387 -32 420 -32 q 341 -31 364 -32 q 289 -31 314 -31 l 277 -31 q 161 -24 218 -31 q 130 -22 146 -23 q 68 18 73 -20 q 68 26 68 22 q 93 99 68 61 q 120 138 106 119 q 142 170 131 155 l 317 436 l 317 437 q 321 444 319 440 l 208 443 q 153 442 181 443 q 112 446 136 442 q 70 462 87 450 q 55 492 55 473 q 56 498 55 495 q 85 531 60 522 q 142 541 110 540 q 172 542 158 542 q 200 541 187 542 l 223 541 q 262 542 238 541 q 364 544 310 544 l 392 544 q 492 533 462 544 q 520 492 520 519 q 519 484 520 488 q 492 412 515 450 q 449 347 469 375 q 435 329 441 336 q 414 296 425 313 q 369 229 391 263 z "},"{":{"ha":409,"x_min":47,"x_max":361,"o":"m 153 332 l 153 342 q 148 392 153 366 q 112 436 141 423 q 98 441 106 439 q 67 454 82 445 q 48 483 52 463 q 47 490 47 487 q 60 519 47 509 q 96 540 75 531 q 148 576 128 551 q 161 624 159 596 q 163 656 163 641 q 162 678 163 667 l 162 700 q 167 810 163 743 q 182 941 171 877 q 214 1040 193 1006 q 252 1083 227 1060 q 304 1115 277 1106 q 318 1117 311 1117 q 353 1099 337 1117 q 361 1074 361 1086 q 356 1055 361 1065 q 324 1013 345 1034 q 294 975 305 994 q 271 882 273 933 q 271 853 271 868 q 275 774 271 815 q 279 686 279 730 q 278 647 279 667 q 248 524 275 583 q 226 489 237 506 q 267 358 264 431 q 267 324 267 341 q 260 212 267 269 q 254 109 254 158 q 256 65 254 87 q 307 -47 260 -3 q 318 -58 312 -52 q 353 -92 338 -73 q 360 -114 360 -102 q 353 -137 360 -125 q 319 -158 339 -158 l 316 -158 q 271 -142 293 -156 q 234 -114 248 -128 q 156 52 174 -47 q 144 179 144 118 q 147 238 144 209 q 153 332 151 285 z "},"|":{"ha":195,"x_min":47,"x_max":148,"o":"m 48 1030 l 48 1038 q 56 1090 48 1063 q 100 1120 64 1120 q 144 1074 138 1115 q 148 1026 148 1050 q 146 994 148 1010 q 146 968 146 979 q 144 490 144 730 q 146 -107 144 192 q 147 -127 146 -116 q 148 -161 148 -144 l 148 -179 q 136 -227 146 -207 q 100 -245 125 -245 l 98 -245 q 60 -219 71 -242 q 48 -164 49 -195 q 47 -140 47 -152 q 49 -106 47 -122 q 50 -87 50 -96 q 52 94 52 3 q 51 203 52 149 l 51 328 q 48 1030 51 679 z "},"}":{"ha":409,"x_min":47,"x_max":361,"o":"m 256 332 q 262 238 258 285 q 264 179 264 209 q 253 52 264 118 q 175 -114 235 -47 q 138 -142 161 -128 q 93 -158 116 -156 l 90 -158 q 56 -137 70 -158 q 49 -114 49 -125 q 56 -92 49 -102 q 91 -58 71 -73 q 102 -47 97 -52 q 153 65 149 -3 q 155 109 155 87 q 149 212 155 158 q 142 324 142 269 q 142 358 142 341 q 183 489 145 431 q 161 524 172 506 q 131 647 134 583 q 130 686 130 667 q 134 774 130 730 q 138 853 138 815 q 138 882 138 868 q 115 975 136 933 q 85 1013 104 994 q 53 1055 64 1034 q 47 1074 47 1065 q 56 1099 47 1086 q 91 1117 72 1117 q 105 1115 98 1117 q 157 1083 132 1106 q 195 1040 182 1060 q 227 941 216 1006 q 242 810 238 877 q 247 700 246 743 l 247 678 q 246 656 246 667 q 248 624 246 641 q 261 576 250 596 q 313 540 281 551 q 349 519 334 531 q 361 490 361 509 q 361 483 361 487 q 342 454 357 463 q 311 441 327 445 q 297 436 303 439 q 261 392 268 423 q 256 342 256 366 l 256 332 z "},"~":{"ha":591,"x_min":47,"x_max":544,"o":"m 380 591 q 401 593 391 593 q 475 568 439 593 q 539 495 522 536 q 544 469 544 480 q 528 440 544 449 q 509 435 519 435 q 460 454 488 435 q 391 488 416 488 l 389 488 q 317 440 364 486 q 251 385 281 406 q 193 366 223 366 l 185 366 q 103 404 151 368 q 71 433 87 414 q 48 471 54 451 q 47 479 47 475 q 62 511 47 496 q 92 523 77 523 q 102 522 97 523 q 140 501 121 515 q 188 477 163 486 q 202 475 195 475 q 243 489 221 475 q 290 531 270 509 q 329 566 308 549 q 380 591 350 582 z "},"":{"ha":392,"x_min":112,"x_max":290,"o":"m 290 -420 l 290 -429 q 286 -484 290 -456 q 265 -542 282 -517 q 209 -569 248 -566 q 134 -534 156 -569 q 112 -451 113 -498 q 115 -334 112 -393 q 118 -235 117 -285 q 113 37 117 -99 q 139 193 115 90 q 204 296 163 296 q 272 135 258 292 q 286 -132 286 -22 q 288 -290 286 -211 l 288 -299 q 288 -355 288 -327 q 290 -420 289 -387 m 281 410 q 220 367 259 372 q 205 366 212 366 q 147 385 174 366 q 113 447 117 409 q 113 455 113 451 q 138 513 113 488 q 205 536 160 536 q 226 534 215 536 q 283 488 272 526 q 289 453 289 471 q 281 410 289 432 z "},"":{"ha":538,"x_min":62,"x_max":499,"o":"m 212 -60 q 120 12 156 -41 q 70 151 83 71 q 62 254 62 203 q 64 302 62 278 q 142 493 80 433 q 297 546 198 546 q 323 545 310 546 q 343 543 333 545 q 366 652 354 597 q 368 667 367 659 q 381 724 372 693 q 406 775 389 755 q 432 787 417 787 q 452 783 441 787 q 477 747 473 772 q 478 729 478 739 q 474 692 478 712 q 461 637 469 662 q 456 614 458 623 q 452 600 454 607 q 431 505 441 553 q 471 414 462 475 q 472 396 472 404 q 448 344 472 353 q 438 342 443 342 q 401 368 420 342 q 328 27 363 197 q 347 34 338 28 q 379 67 366 45 q 397 100 389 83 q 398 101 397 100 q 403 111 400 106 q 432 161 414 138 q 460 177 444 177 q 477 173 468 177 q 499 131 499 159 q 498 119 499 125 q 473 46 493 83 q 437 -8 453 9 q 332 -66 393 -52 q 307 -71 319 -69 q 271 -243 289 -157 q 251 -294 266 -270 q 218 -312 240 -312 q 203 -311 212 -312 q 170 -262 170 -297 l 170 -260 q 183 -187 172 -222 q 188 -167 186 -176 q 201 -111 195 -139 q 212 -60 206 -85 m 321 442 l 317 442 q 294 439 306 442 q 244 400 263 428 q 215 340 224 373 q 209 267 209 309 q 210 227 209 248 q 237 103 214 160 q 244 85 240 94 q 321 442 284 264 z "},"":{"ha":678,"x_min":47,"x_max":631,"o":"m 123 717 q 119 781 119 749 q 124 857 119 819 q 173 981 134 927 q 290 1049 212 1034 q 361 1055 326 1055 q 437 1048 399 1055 q 568 986 511 1035 q 596 953 582 974 q 613 911 610 932 q 614 905 614 908 q 597 876 614 888 q 575 869 586 869 q 555 874 566 869 q 510 906 534 886 q 452 946 484 929 q 404 958 430 958 q 381 956 393 958 q 303 888 323 941 q 288 793 288 844 q 288 772 288 783 q 304 662 292 709 q 326 566 315 615 l 502 566 q 536 552 522 566 q 550 518 550 538 q 536 484 550 498 q 502 470 522 470 l 343 470 q 353 340 353 406 l 353 317 q 325 166 351 239 q 311 136 317 148 q 302 115 302 121 q 303 113 302 113 q 328 107 306 108 q 343 105 334 106 q 412 92 380 100 q 481 78 447 81 q 492 77 487 77 q 557 91 523 77 q 587 97 574 97 q 614 87 604 97 q 631 52 631 73 q 630 43 631 47 q 591 0 626 16 q 499 -20 538 -20 l 490 -20 q 405 -4 446 -17 q 306 15 362 9 l 301 15 q 196 0 251 15 q 129 -14 161 -9 q 111 -15 119 -15 q 73 -8 90 -15 q 51 24 51 5 q 52 31 51 27 q 76 81 56 56 q 113 125 95 107 q 125 140 120 134 q 182 298 177 209 q 184 342 184 321 q 173 470 184 408 l 96 470 q 61 484 75 470 q 47 518 47 498 q 61 552 47 538 q 96 566 75 566 l 155 566 q 140 631 147 600 q 123 717 129 673 z "},"":{"ha":545,"x_min":47,"x_max":497,"o":"m 366 425 q 372 471 372 448 q 362 531 372 501 q 292 606 344 586 q 275 608 284 608 q 228 595 254 608 q 177 554 192 578 q 167 506 167 531 q 174 463 167 485 q 224 381 189 414 q 288 351 254 351 q 296 352 292 351 q 364 421 336 357 l 366 425 m 130 688 l 154 664 q 183 680 167 673 l 193 684 q 275 701 233 701 q 307 699 291 701 q 385 661 353 687 l 417 690 q 450 703 432 703 l 452 703 q 485 687 471 702 q 497 654 497 672 l 497 652 q 481 619 496 633 l 445 586 q 469 479 467 538 q 442 365 469 417 l 477 340 q 496 309 494 328 q 497 300 497 304 q 488 273 497 286 q 457 254 476 257 q 448 253 453 253 q 421 262 434 253 l 379 292 q 317 263 351 273 q 275 257 295 257 q 238 262 256 257 q 170 300 201 273 l 126 264 q 96 254 112 254 l 91 254 q 58 271 72 255 q 48 300 48 285 l 48 306 q 65 338 50 325 l 112 376 q 80 484 86 427 q 79 508 79 496 q 94 589 79 551 l 62 621 q 47 654 47 636 q 62 688 47 673 q 96 703 77 703 q 130 688 114 703 z "},"":{"ha":612,"x_min":47,"x_max":565,"o":"m 317 534 q 384 645 358 577 q 423 787 409 713 q 445 919 437 860 q 465 982 448 951 q 509 1008 479 1008 q 522 1007 515 1008 q 559 967 552 998 q 564 928 564 949 q 562 899 564 914 q 549 831 556 861 q 545 811 547 819 q 510 665 531 734 q 451 526 488 595 q 463 526 456 526 q 482 527 473 527 q 530 522 506 527 q 564 477 564 515 q 540 440 562 450 q 490 429 519 429 q 463 428 476 428 q 437 429 450 428 q 419 429 427 429 q 372 430 395 430 q 370 324 371 363 l 370 316 q 397 317 380 316 q 450 317 422 317 l 478 317 q 541 308 522 317 q 564 275 560 295 q 565 267 565 271 q 555 237 565 251 q 508 220 541 221 l 368 220 l 368 154 q 367 48 368 100 q 352 -14 366 12 q 305 -38 339 -38 l 300 -38 q 263 -4 273 -34 q 252 62 253 25 l 252 86 q 252 128 252 109 q 253 148 253 140 l 253 165 q 254 220 254 193 l 227 220 q 174 219 203 219 q 120 219 144 219 q 88 222 96 220 q 53 252 61 230 q 50 269 50 260 q 57 293 50 281 q 106 316 70 313 q 155 317 130 317 q 208 316 181 317 l 256 316 q 258 430 256 356 q 231 429 248 430 q 172 429 203 429 l 139 429 q 70 439 89 429 q 47 477 47 456 q 49 488 47 483 q 96 525 56 517 l 109 526 l 185 526 q 112 686 141 602 q 61 855 83 770 q 53 901 56 874 q 52 914 52 907 q 58 949 52 932 q 90 979 65 971 q 103 981 96 981 q 135 968 121 981 q 164 924 153 950 q 179 877 175 897 q 229 695 197 794 q 317 534 262 596 z "},"":{"ha":195,"x_min":47,"x_max":148,"o":"m 48 1008 l 48 1011 q 56 1034 48 1022 q 100 1047 64 1047 q 144 1027 138 1044 q 148 1006 148 1017 q 146 992 148 999 q 146 981 146 986 q 144 776 144 879 q 146 519 144 647 q 147 510 146 515 q 148 496 148 503 l 148 488 q 136 468 146 476 q 100 460 125 460 l 98 460 q 60 471 71 461 q 48 494 49 481 q 47 505 47 500 q 49 519 47 512 q 50 527 50 524 q 52 605 52 566 q 51 652 52 629 l 51 706 q 48 1008 51 857 m 48 -18 l 48 -14 q 56 8 48 -3 q 100 21 64 21 q 144 1 138 19 q 148 -19 148 -9 q 146 -33 148 -26 q 146 -44 146 -39 q 144 -250 144 -147 q 146 -507 144 -378 q 147 -515 146 -510 q 148 -530 148 -522 l 148 -537 q 136 -558 146 -549 q 100 -566 125 -566 l 98 -566 q 60 -555 71 -565 q 48 -531 49 -544 q 47 -521 47 -526 q 49 -506 47 -513 q 50 -498 50 -502 q 52 -420 52 -459 q 51 -373 52 -397 l 51 -320 q 48 -18 51 -169 z "},"":{"ha":650,"x_min":47,"x_max":598,"o":"m 253 489 q 207 556 229 522 q 121 739 154 636 q 113 806 113 774 q 146 921 113 872 q 283 1010 195 993 q 324 1015 303 1015 q 462 973 391 1015 q 500 942 479 963 q 534 897 522 922 q 541 873 541 884 q 535 850 541 861 q 507 832 524 832 q 496 834 503 832 q 444 863 473 842 q 374 899 410 888 q 357 901 366 901 q 304 871 330 901 q 281 821 289 848 q 281 803 281 812 q 305 696 281 747 q 370 584 334 635 q 458 471 412 524 q 550 349 510 410 q 597 218 589 288 q 598 195 598 207 q 561 58 598 134 q 458 -24 516 -7 q 392 -37 427 -33 q 438 -104 416 -71 q 524 -287 491 -184 q 532 -354 532 -322 q 498 -469 532 -420 q 362 -559 450 -541 q 321 -563 342 -563 q 183 -522 254 -563 q 144 -491 166 -511 q 111 -446 123 -470 q 104 -421 104 -433 q 110 -399 104 -410 q 138 -380 122 -380 q 149 -382 143 -380 q 201 -411 172 -391 q 271 -447 235 -436 q 288 -449 279 -449 q 340 -420 315 -449 q 363 -370 356 -397 q 364 -351 364 -360 q 340 -244 364 -296 q 275 -132 311 -184 q 187 -19 233 -73 q 95 102 135 41 q 48 234 56 163 q 47 256 47 245 q 84 393 47 319 q 187 476 129 458 q 253 489 218 485 m 321 56 q 403 104 357 60 l 408 112 q 431 192 431 153 q 425 230 431 211 q 368 338 409 288 q 323 396 346 368 q 242 348 288 391 l 237 340 q 214 260 214 299 q 220 222 214 241 q 277 113 236 164 q 321 56 299 84 z "},"":{"ha":351,"x_min":47,"x_max":304,"o":"m 48 703 q 96 741 65 741 l 100 741 q 152 708 134 736 q 159 686 159 697 q 141 648 159 667 q 99 629 120 629 q 75 635 87 629 q 47 687 47 648 q 48 703 47 694 m 298 661 q 251 629 277 629 q 241 631 246 629 q 196 667 208 638 q 192 684 192 675 q 215 727 192 705 q 249 739 231 739 q 262 738 255 739 q 298 710 286 731 q 304 686 304 699 q 298 661 304 674 z "},"":{"ha":842,"x_min":68,"x_max":785,"o":"m 391 294 q 424 285 408 285 q 470 313 450 285 q 484 333 475 319 q 506 367 494 350 q 533 391 519 384 q 541 393 537 393 q 561 382 551 393 q 574 345 574 366 q 568 316 574 332 q 512 247 553 277 q 420 215 472 217 l 415 215 q 318 257 366 215 q 236 402 258 316 q 226 481 226 442 q 239 568 226 526 l 243 578 q 320 669 267 637 q 420 697 368 697 q 434 696 427 697 q 541 644 494 692 q 565 602 553 630 q 577 547 577 574 q 553 512 576 521 q 536 509 544 509 q 517 518 524 509 q 502 553 507 531 q 490 587 498 570 q 468 614 483 603 q 424 625 452 625 q 333 583 361 623 q 305 486 305 543 q 328 375 305 428 q 391 294 351 322 m 145 178 q 68 433 71 292 l 68 441 q 134 692 68 576 q 306 845 200 802 q 433 871 369 871 q 519 859 476 871 q 703 726 628 831 q 782 501 769 625 q 785 450 785 475 q 747 268 785 355 q 585 96 700 157 q 426 49 507 56 q 394 47 410 47 q 271 72 330 47 q 145 178 199 102 m 571 180 q 691 352 665 244 q 703 453 703 403 q 688 566 703 509 q 596 725 663 658 q 431 791 530 791 l 429 791 q 263 725 328 785 q 170 576 199 665 q 149 440 149 509 q 151 393 149 417 q 209 226 160 300 q 315 144 254 166 q 402 130 357 130 q 444 133 422 130 q 571 180 511 143 z "},"":{"ha":642,"x_min":53,"x_max":589,"o":"m 425 857 q 319 897 364 897 q 286 891 301 897 q 204 805 232 870 q 170 665 176 741 q 168 618 168 640 q 176 537 168 573 q 228 478 190 483 q 233 477 231 477 q 335 547 271 477 q 392 640 375 591 q 421 743 410 688 l 425 759 l 425 857 m 425 503 q 382 456 404 475 q 330 421 360 437 q 208 388 263 388 q 162 394 184 388 q 62 522 90 414 q 53 609 53 564 q 62 704 53 654 q 131 884 79 804 q 272 987 183 964 q 315 992 294 992 q 345 989 331 992 q 401 977 379 984 q 426 971 418 971 l 427 971 q 430 972 428 971 q 436 976 433 974 q 447 981 441 979 q 456 985 453 984 q 505 994 484 994 q 548 979 532 994 q 575 888 575 951 q 574 859 574 874 q 573 823 574 842 q 574 761 573 803 q 575 644 574 709 l 575 603 q 574 528 575 563 q 584 460 579 471 l 589 441 l 589 431 q 554 395 581 395 l 535 395 q 470 431 494 403 q 425 503 447 449 z "},"":{"ha":484,"x_min":47,"x_max":437,"o":"m 243 412 l 157 307 l 243 202 q 254 172 254 189 l 254 168 q 237 135 252 149 q 207 123 223 123 l 202 124 q 170 142 183 126 l 59 275 l 59 276 q 52 286 55 280 q 50 290 52 288 l 50 291 l 50 292 l 50 293 l 49 294 l 49 296 l 48 296 q 47 301 48 299 l 47 309 q 52 327 47 318 l 52 328 l 53 329 l 54 331 l 54 331 l 54 332 l 55 333 l 55 334 l 57 336 l 57 336 l 58 336 l 58 337 l 58 337 l 58 338 l 59 338 l 170 473 q 201 491 182 489 l 205 491 q 237 480 222 491 q 254 448 252 467 l 254 442 q 243 412 254 427 m 425 412 l 339 307 l 425 202 q 436 172 436 189 l 436 168 q 418 135 434 149 q 389 123 405 123 l 384 124 q 351 142 365 126 l 241 275 l 241 276 q 234 286 237 280 q 232 290 233 288 l 232 291 l 231 292 l 231 293 l 231 294 l 231 296 l 230 296 q 229 301 230 299 l 229 309 q 233 327 229 318 l 234 328 l 235 329 l 235 331 l 236 331 l 236 332 l 237 333 l 237 334 l 239 336 l 239 336 l 239 336 l 239 337 l 240 337 l 240 338 l 241 338 l 351 473 q 383 491 364 489 l 387 491 q 418 480 404 491 q 436 448 434 467 l 436 442 q 425 412 436 427 z "},"":{"ha":506,"x_min":12,"x_max":504,"o":"m 406 429 q 386 430 395 430 l 100 429 q 90 429 95 429 q 41 437 66 429 q 12 481 12 446 q 57 524 18 518 q 106 528 82 528 q 136 527 121 528 q 157 526 148 526 l 437 528 l 443 528 q 486 516 467 528 q 504 480 504 505 q 503 471 504 476 l 502 466 l 503 320 q 504 310 504 315 q 496 262 504 286 q 452 232 487 232 q 408 277 414 238 q 404 327 404 302 q 406 356 404 342 q 406 378 406 368 l 406 429 z "},"":{"ha":808,"x_min":47,"x_max":761,"o":"m 541 588 q 510 514 539 544 q 442 466 480 484 l 439 465 q 434 462 437 463 q 429 459 431 460 q 428 458 428 458 l 428 457 q 479 395 450 428 q 546 313 522 350 q 559 277 555 297 q 560 266 560 271 q 555 244 560 254 q 532 233 549 233 q 525 234 529 233 q 473 276 504 242 q 410 350 441 309 q 356 421 378 391 q 334 450 336 448 q 332 431 332 449 q 332 389 332 414 q 333 340 332 363 l 333 309 q 334 298 334 302 q 333 291 334 294 q 315 229 331 248 q 288 214 302 214 q 281 215 285 214 q 254 243 264 219 q 250 310 250 264 l 250 464 q 249 593 250 528 q 248 618 248 606 q 262 690 248 667 q 317 712 275 712 q 351 709 332 712 q 467 676 412 702 q 541 588 522 651 m 298 55 q 118 181 177 87 q 50 396 59 275 q 47 446 47 421 q 62 574 47 511 q 137 733 84 662 q 277 842 191 804 q 416 871 349 871 q 522 852 471 871 q 703 686 636 808 l 707 677 q 761 463 758 575 l 761 447 q 713 248 761 343 q 538 83 652 136 q 376 47 459 47 q 298 55 338 47 m 425 791 l 414 791 q 258 739 323 791 q 160 608 194 688 q 126 444 127 528 q 154 284 126 357 q 241 169 182 211 q 376 132 295 132 q 398 132 387 132 q 595 219 527 149 q 675 392 663 290 q 679 443 679 417 q 649 607 679 522 q 633 645 642 626 q 548 747 600 707 q 425 791 496 787 m 452 609 q 417 622 441 614 q 370 634 393 630 q 355 635 361 635 q 337 631 342 635 q 332 609 333 627 q 330 573 330 592 l 330 514 q 333 494 330 496 q 335 493 334 493 q 351 503 340 493 q 356 507 353 505 q 391 529 370 517 q 438 558 416 543 q 463 593 459 574 q 459 602 461 599 q 452 609 457 606 z "},"":{"ha":594,"x_min":47,"x_max":547,"o":"m 110 795 l 107 795 q 64 808 82 795 q 47 841 47 819 q 48 851 47 846 q 83 889 55 883 q 123 893 103 893 q 142 892 132 893 q 158 892 151 892 l 457 892 q 509 890 503 892 q 547 844 547 873 q 546 838 547 840 q 495 796 543 804 q 429 794 465 794 q 391 795 410 794 q 350 795 368 795 l 340 795 q 110 795 225 795 z "},"":{"ha":486,"x_min":47,"x_max":438,"o":"m 250 943 l 241 943 q 154 905 182 943 q 135 846 135 880 q 142 800 135 825 q 188 726 157 758 q 254 693 218 694 l 254 693 q 320 741 290 693 q 340 819 340 776 l 340 821 q 317 899 339 865 q 250 943 294 934 m 294 606 q 243 599 267 599 q 157 626 195 599 q 71 737 100 666 q 47 850 47 794 q 49 877 47 863 q 112 997 60 957 q 242 1042 165 1036 l 248 1042 q 335 1013 292 1042 q 404 943 380 983 q 438 819 438 884 l 438 814 q 400 690 437 746 q 294 606 363 634 z "},"":{"ha":506,"x_min":12,"x_max":504,"o":"m 305 526 l 437 528 l 443 528 q 486 516 467 528 q 504 480 504 505 q 503 471 504 476 q 467 432 497 437 q 429 428 448 428 q 406 429 418 428 q 386 430 395 430 q 305 431 346 431 l 307 320 q 307 310 307 315 q 299 262 307 286 q 255 232 290 232 q 212 277 218 238 q 208 327 208 302 q 209 356 208 342 q 210 378 210 368 l 210 431 l 100 429 q 90 429 95 429 q 41 437 66 429 q 12 481 12 446 q 57 524 18 518 q 106 528 82 528 q 136 527 121 528 q 157 526 148 526 l 210 526 l 208 658 l 208 663 q 220 707 208 688 q 256 724 231 724 q 264 724 260 724 q 304 688 298 718 q 308 649 308 669 q 307 627 308 638 q 306 606 306 616 q 305 526 305 566 m 437 100 l 443 100 q 486 88 467 100 q 504 52 504 77 q 503 43 504 48 q 467 4 497 9 q 429 0 448 0 q 406 1 418 0 q 386 2 395 2 q 263 3 325 3 q 100 1 182 3 q 90 1 95 1 q 41 9 66 1 q 12 53 12 18 q 57 96 18 90 q 106 100 82 100 q 136 99 121 100 q 157 98 148 98 l 227 98 q 437 100 332 98 z "},"":{"ha":404,"x_min":47,"x_max":356,"o":"m 100 435 q 66 446 81 435 q 50 477 52 457 q 47 516 47 498 q 59 599 47 564 q 126 703 74 648 q 232 844 211 793 q 244 892 244 873 q 237 915 244 907 q 203 930 224 930 q 190 928 197 930 q 140 899 159 923 q 110 879 129 883 q 100 878 105 878 q 74 886 87 878 q 54 916 58 898 q 52 926 52 922 q 60 952 52 940 q 155 1017 100 1002 q 204 1025 180 1025 q 258 1015 232 1025 q 329 948 308 997 q 338 901 338 927 q 322 821 338 865 q 195 635 294 742 q 150 568 159 599 q 144 533 145 553 q 200 536 170 534 q 274 539 241 538 l 306 541 l 308 541 q 340 528 327 541 q 356 495 354 515 q 343 460 356 475 q 310 445 330 446 l 279 444 q 206 440 247 442 q 155 437 179 439 q 115 435 131 436 l 100 435 z "},"":{"ha":385,"x_min":47,"x_max":338,"o":"m 226 572 q 126 640 203 606 q 123 641 124 640 q 94 663 104 646 q 87 688 87 675 q 89 700 87 694 q 111 729 94 718 q 223 827 197 783 q 241 880 241 858 q 237 900 241 891 q 193 929 224 928 l 191 929 q 136 897 161 929 q 105 876 123 880 q 96 876 100 876 q 69 883 82 876 q 48 913 52 895 q 47 923 47 918 q 55 949 47 937 q 164 1023 105 1013 q 191 1025 178 1025 q 271 1002 235 1025 q 333 913 318 971 q 337 881 337 898 q 309 786 337 837 q 228 694 284 740 q 307 621 282 660 q 338 533 338 575 q 334 506 338 519 q 275 419 321 451 q 194 394 239 394 q 169 396 182 394 q 58 471 110 405 q 50 497 50 484 q 51 507 50 502 q 72 537 55 525 q 98 545 85 545 q 108 544 103 545 q 138 523 126 540 q 193 491 164 491 l 195 491 q 237 514 224 491 q 241 531 241 522 q 226 572 241 549 z "},"":{"ha":309,"x_min":47,"x_max":261,"o":"m 64 707 l 161 796 q 210 814 180 814 q 249 793 229 813 q 261 766 261 781 l 261 763 q 245 735 260 747 l 228 722 q 186 690 210 708 q 146 659 163 673 l 127 646 q 96 635 113 635 l 93 635 q 60 649 74 636 q 47 677 47 662 l 47 679 q 64 707 49 695 z "},"":{"ha":656,"x_min":57,"x_max":604,"o":"m 60 410 q 58 448 58 429 q 57 472 57 461 q 62 517 57 503 q 102 547 77 547 q 113 546 107 547 q 154 479 144 538 q 156 430 156 455 l 156 406 q 159 346 156 376 q 176 235 163 305 q 217 105 190 165 q 289 34 244 45 q 296 33 292 33 q 334 50 316 33 q 371 94 355 68 q 395 138 387 119 q 445 366 435 248 q 446 404 446 381 q 451 477 446 439 q 475 537 456 514 q 516 553 489 553 q 538 551 526 553 q 585 515 571 543 q 602 451 600 487 q 604 395 604 422 l 604 382 q 603 359 603 370 l 603 309 q 602 207 603 258 q 602 167 602 186 l 602 146 l 602 123 q 599 44 602 86 q 574 -39 594 -12 q 534 -57 554 -57 q 521 -55 528 -57 q 477 -19 495 -46 q 452 38 458 9 q 450 56 450 50 q 449 60 450 60 q 446 55 448 60 q 427 28 441 47 q 347 -49 393 -21 q 288 -64 319 -64 q 238 -56 264 -64 q 155 18 187 -36 l 156 -258 q 157 -278 156 -267 q 157 -312 157 -294 l 157 -330 q 145 -377 156 -357 q 109 -395 134 -395 l 107 -395 q 69 -369 80 -393 q 58 -315 58 -346 q 57 -290 57 -302 q 58 -257 57 -273 q 59 -238 59 -247 q 61 -57 61 -149 q 60 53 61 -2 l 60 177 q 60 410 60 294 z "},"":{"ha":606,"x_min":47,"x_max":559,"o":"m 499 989 q 511 989 505 989 q 555 948 549 985 q 559 905 559 926 q 557 876 559 890 q 557 852 557 862 q 555 420 555 636 q 557 -120 555 150 q 558 -139 557 -128 q 559 -170 559 -153 l 559 -185 q 547 -229 557 -210 q 511 -245 536 -245 l 509 -245 q 471 -221 481 -242 q 459 -172 460 -200 q 458 -150 458 -161 q 460 -120 458 -134 q 460 -102 460 -111 q 463 61 463 -21 q 462 161 463 111 l 462 273 q 459 903 462 588 l 433 903 q 354 905 406 903 l 354 904 q 353 876 354 890 q 352 852 352 862 q 351 420 351 636 q 353 -121 351 150 q 353 -139 353 -128 q 354 -170 354 -153 l 354 -185 q 342 -229 353 -211 q 306 -245 331 -245 l 304 -245 q 266 -221 277 -243 q 254 -172 255 -200 q 254 -150 254 -161 q 255 -120 254 -134 q 256 -102 256 -111 q 258 61 258 -22 q 257 160 258 111 l 257 450 q 116 539 185 458 q 47 723 47 620 q 105 910 47 821 q 292 998 162 998 l 368 998 q 499 989 458 994 z "},"":{"ha":345,"x_min":57,"x_max":227,"o":"m 161 418 q 134 414 148 414 q 110 418 122 414 q 73 452 86 427 q 57 505 59 477 q 57 516 57 511 q 64 552 57 537 q 111 577 77 571 q 133 579 122 579 q 179 571 156 579 q 223 529 212 560 q 226 504 226 516 q 215 462 226 482 q 161 418 197 432 z "},"":{"ha":288,"x_min":47,"x_max":241,"o":"m 96 -186 q 141 -179 130 -183 q 151 -171 151 -176 q 150 -168 151 -169 q 134 -149 146 -160 q 96 -95 115 -130 q 83 -37 83 -71 q 85 -3 83 -21 q 106 28 90 18 q 132 36 117 36 q 142 35 137 36 q 172 16 161 31 q 180 -12 180 3 q 180 -21 180 -16 l 174 -48 q 240 -144 236 -93 q 241 -154 241 -149 q 204 -235 241 -200 q 96 -281 165 -275 q 62 -268 76 -281 q 47 -234 47 -254 q 62 -200 47 -214 q 96 -186 76 -186 z "},"":{"ha":362,"x_min":47,"x_max":315,"o":"m 262 1022 l 267 1022 q 301 1008 287 1022 q 315 974 315 994 l 315 471 q 301 437 315 451 q 267 422 287 422 q 233 437 247 422 q 219 471 219 451 l 219 859 l 214 854 q 156 794 181 820 q 130 767 131 768 q 96 753 115 753 l 94 753 q 62 766 76 753 q 47 800 47 780 l 47 802 q 60 833 47 819 l 79 852 q 124 900 98 872 q 176 954 151 927 q 216 996 201 980 q 228 1008 228 1007 q 262 1022 243 1022 z "},"":{"ha":676,"x_min":54,"x_max":610,"o":"m 359 509 q 472 569 431 513 q 517 693 513 625 l 517 707 q 502 800 517 755 q 443 881 484 852 q 374 901 414 901 q 338 897 357 901 q 233 823 262 880 q 210 730 210 781 q 213 692 210 712 q 257 574 222 630 q 359 509 293 519 m 197 964 q 336 989 259 989 q 365 988 351 989 q 521 932 458 983 q 604 776 587 867 q 610 710 610 743 q 591 598 610 653 q 478 461 559 511 q 353 420 418 429 q 315 417 334 417 q 222 433 269 417 q 104 531 147 460 q 54 689 61 602 q 54 716 54 703 q 82 852 54 787 q 197 964 117 927 m 341 334 l 387 334 q 547 307 416 334 q 572 277 572 292 l 572 267 q 526 227 572 243 l 488 227 q 176 222 206 222 l 173 222 q 81 269 81 240 l 81 277 q 108 307 81 293 q 157 326 121 326 l 260 326 q 341 334 334 334 z "},"":{"ha":484,"x_min":47,"x_max":437,"o":"m 58 412 q 47 442 47 427 l 47 448 q 65 480 50 467 q 97 491 80 491 l 100 491 q 132 473 119 489 l 240 341 q 252 322 247 334 q 254 309 254 315 q 248 283 254 292 q 243 275 246 279 l 132 142 q 100 124 119 126 l 95 123 q 65 135 79 123 q 47 168 50 149 l 47 172 q 58 202 47 189 l 144 307 l 58 412 m 240 412 q 229 442 229 427 l 229 448 q 247 480 231 467 q 279 491 262 491 l 282 491 q 314 473 301 489 l 422 341 q 434 322 429 334 q 436 309 436 315 q 430 283 436 292 q 425 275 428 279 l 314 142 q 281 124 300 126 l 277 123 q 247 135 260 123 q 229 168 231 149 l 229 172 q 240 202 229 189 l 326 307 l 240 412 z "},"":{"ha":1008,"x_min":47,"x_max":961,"o":"m 764 898 l 732 827 q 650 648 700 757 q 544 418 600 539 q 401 106 463 241 l 338 -30 q 311 -54 330 -48 q 295 -58 303 -58 q 275 -53 285 -58 q 250 -26 256 -44 q 247 -10 247 -18 q 251 10 247 0 l 313 146 q 457 458 376 281 q 563 688 513 579 q 645 867 612 797 l 677 938 q 705 963 686 956 q 721 966 713 966 q 741 962 731 966 q 766 935 760 953 q 769 918 769 927 q 764 898 769 908 m 262 1022 l 267 1022 q 301 1008 287 1022 q 315 974 315 994 l 315 471 q 301 437 315 451 q 267 422 287 422 q 233 437 247 422 q 219 471 219 451 l 219 859 l 214 854 q 156 794 181 820 q 130 767 131 768 q 96 753 115 753 l 94 753 q 62 766 76 753 q 47 800 47 780 l 47 802 q 60 833 47 819 l 79 852 q 124 900 98 872 q 176 954 151 927 q 216 996 201 980 q 228 1008 228 1007 q 262 1022 243 1022 m 791 583 q 798 583 795 583 q 804 583 802 583 q 838 569 825 583 q 853 536 852 556 l 854 455 q 857 271 856 375 q 858 241 857 256 q 886 245 873 243 l 908 248 l 912 248 q 943 237 930 248 q 961 205 958 225 l 961 201 q 951 170 961 182 q 918 152 939 155 l 873 146 l 860 145 q 861 88 860 115 l 862 7 q 848 -27 862 -13 q 814 -41 835 -41 q 781 -28 794 -41 q 766 5 767 -15 l 764 86 q 764 135 764 110 q 665 123 709 129 l 619 119 l 612 119 q 605 118 609 118 q 583 123 594 118 q 559 151 565 134 q 557 166 557 159 q 562 188 557 177 q 632 327 609 281 q 678 418 655 372 q 748 557 701 464 q 776 581 758 574 q 791 583 783 583 m 753 230 l 762 231 l 762 270 q 760 366 760 321 q 718 283 739 325 l 687 222 q 753 230 718 226 z "},"":{"ha":972,"x_min":48,"x_max":925,"o":"m 669 -24 q 635 -14 650 -24 q 618 18 621 -2 q 616 57 616 39 q 628 140 616 104 q 695 243 643 189 q 801 385 780 334 q 813 433 813 414 q 806 456 813 448 q 772 471 793 471 q 759 469 766 471 q 709 440 728 464 q 679 420 698 424 q 669 418 674 418 q 643 427 656 418 q 623 457 627 439 q 621 467 621 463 q 629 493 621 481 q 724 558 669 543 q 773 566 749 566 q 827 555 801 566 q 898 489 877 538 q 907 441 907 468 q 891 361 907 406 q 764 176 863 283 q 719 109 728 140 q 713 74 714 94 q 769 77 739 75 q 843 80 810 79 l 875 81 l 877 81 q 909 69 896 81 q 925 36 923 56 q 912 1 925 16 q 879 -14 899 -13 l 848 -16 q 775 -19 816 -17 q 724 -22 748 -20 q 684 -24 700 -23 l 669 -24 m 761 898 l 729 827 q 646 648 696 757 q 541 418 596 539 q 397 106 459 241 l 335 -30 q 308 -54 326 -48 q 292 -58 300 -58 q 271 -53 281 -58 q 246 -26 253 -44 q 243 -9 243 -18 q 248 10 243 0 l 310 146 q 454 458 372 281 q 559 688 509 579 q 642 867 609 797 l 674 938 q 701 963 683 956 q 718 966 709 966 q 737 962 727 966 q 762 935 755 953 q 766 918 766 927 q 761 898 766 908 m 264 1022 q 276 1021 271 1022 q 298 1008 288 1017 q 311 974 311 994 l 311 471 q 297 437 311 451 q 263 422 283 422 q 229 437 243 422 q 215 471 215 451 l 215 854 q 182 821 198 838 q 142 779 157 795 q 130 767 131 767 q 97 753 116 753 l 95 753 q 62 766 77 753 q 48 800 48 780 l 48 802 q 61 833 48 819 l 87 860 q 145 920 113 886 q 202 980 178 954 q 229 1008 227 1006 q 262 1022 243 1022 l 264 1022 z "},"":{"ha":981,"x_min":47,"x_max":934,"o":"m 753 898 l 721 827 q 638 648 688 757 q 532 418 588 539 q 389 106 452 241 l 327 -30 q 300 -54 318 -48 q 283 -58 292 -58 q 263 -53 273 -58 q 239 -26 245 -44 q 235 -9 235 -18 q 240 10 235 0 l 302 146 q 446 458 364 281 q 551 688 501 579 q 633 867 601 797 l 666 938 q 693 963 675 956 q 709 966 701 966 q 730 962 720 966 q 755 935 748 953 q 758 920 758 927 q 753 898 758 909 m 226 572 q 126 640 203 606 q 123 641 124 640 q 94 663 104 646 q 87 688 87 675 q 89 700 87 694 q 111 729 94 718 q 223 827 197 783 q 241 880 241 858 q 237 900 241 891 q 193 929 224 928 l 191 929 q 136 897 161 929 q 105 876 123 880 q 96 876 100 876 q 69 883 82 876 q 48 913 52 895 q 47 923 47 918 q 55 949 47 937 q 164 1023 105 1013 q 191 1025 178 1025 q 271 1002 235 1025 q 333 913 318 971 q 337 881 337 898 q 309 786 337 837 q 228 694 284 740 q 307 621 282 660 q 338 533 338 575 q 334 506 338 519 q 275 419 321 451 q 194 394 239 394 q 169 396 182 394 q 58 471 110 405 q 50 497 50 484 q 51 507 50 502 q 72 537 55 525 q 98 545 85 545 q 108 544 103 545 q 138 523 126 540 q 193 491 164 491 l 195 491 q 237 514 224 491 q 241 531 241 522 q 226 572 241 549 m 780 583 q 787 583 783 583 q 793 583 790 583 q 827 569 813 583 q 842 536 840 556 l 843 455 q 846 271 844 375 q 846 243 846 257 l 881 248 l 885 248 q 916 237 903 248 q 934 205 931 225 l 934 199 q 924 170 934 182 q 891 152 911 155 l 848 147 q 849 88 848 116 l 850 7 q 837 -27 850 -13 q 803 -41 823 -41 q 769 -28 783 -41 q 754 5 755 -15 l 753 86 q 752 137 752 111 q 747 136 749 136 q 673 128 708 132 q 615 121 638 124 l 608 121 q 593 118 601 118 q 585 119 589 118 q 557 129 570 119 q 539 161 542 141 l 539 165 q 549 197 539 183 q 560 206 554 202 q 621 327 600 286 q 667 418 644 372 q 737 557 690 464 q 765 581 747 574 q 780 583 772 583 m 731 231 q 750 233 741 232 l 750 270 q 748 366 749 321 q 705 282 727 324 q 676 224 694 259 l 731 231 z "},"":{"ha":568,"x_min":49,"x_max":549,"o":"m 262 -452 l 269 -458 q 331 -474 302 -474 q 375 -463 355 -474 q 448 -380 420 -437 q 478 -335 458 -357 q 507 -321 490 -321 q 528 -327 516 -321 q 549 -366 549 -341 q 547 -386 549 -376 q 509 -464 536 -425 q 460 -519 481 -503 q 356 -565 412 -555 q 283 -570 320 -570 q 242 -569 262 -570 q 102 -506 146 -555 q 50 -387 57 -457 q 49 -352 49 -370 q 63 -241 49 -298 q 115 -100 82 -166 q 222 77 165 -1 q 254 124 238 99 q 290 186 275 155 q 324 246 307 218 q 379 291 345 276 q 411 298 395 298 q 448 289 429 298 q 481 240 479 272 l 481 231 q 471 174 481 203 q 442 117 457 140 q 394 50 419 83 q 340 -26 367 14 q 286 -118 317 -62 q 233 -237 255 -174 q 212 -347 212 -295 l 212 -356 q 256 -448 214 -412 l 262 -452 m 380 531 q 412 536 395 536 q 441 532 426 536 q 484 492 469 522 q 503 429 500 462 q 503 416 503 422 q 494 374 503 391 q 439 345 479 352 q 414 342 427 342 q 359 352 387 342 q 307 401 321 364 q 304 430 304 416 q 317 479 304 456 q 380 531 338 515 z "},"":{"ha":705,"x_min":55,"x_max":652,"o":"m 270 320 l 503 343 q 501 350 502 345 q 488 432 498 372 q 466 566 479 492 q 437 708 452 640 q 406 814 422 775 q 385 843 395 843 q 379 840 382 843 q 342 708 366 818 q 298 482 319 598 q 271 324 277 366 l 270 320 m 254 222 q 231 68 241 145 q 203 -5 227 23 q 131 -33 179 -33 q 66 -1 81 -31 q 55 49 55 20 q 57 75 55 61 q 98 355 72 189 q 161 681 124 521 q 245 939 198 842 q 330 1006 279 998 q 347 1008 338 1008 q 432 972 390 1008 q 507 832 471 935 q 570 596 542 729 q 619 334 599 463 q 650 105 640 206 q 652 77 652 92 q 648 35 652 57 q 600 -14 641 -3 q 590 -15 595 -15 q 556 2 568 -15 q 539 49 542 22 q 516 248 528 155 l 254 222 m 409 1163 q 425 1135 424 1152 l 425 1134 q 413 1105 425 1118 q 380 1091 399 1093 l 376 1091 q 345 1102 359 1091 l 327 1116 q 286 1147 309 1129 q 245 1178 263 1164 l 227 1192 q 212 1219 212 1203 l 212 1223 q 224 1250 212 1238 q 263 1270 244 1270 q 311 1253 292 1270 l 409 1163 z "},"":{"ha":705,"x_min":55,"x_max":652,"o":"m 270 320 l 503 343 q 501 350 502 345 q 488 432 498 372 q 466 566 479 492 q 437 708 452 640 q 406 814 422 775 q 385 843 395 843 q 379 840 382 843 q 342 708 366 818 q 298 482 319 598 q 271 324 277 366 l 270 320 m 254 222 q 231 68 241 145 q 203 -5 227 23 q 131 -33 179 -33 q 66 -1 81 -31 q 55 49 55 20 q 57 75 55 61 q 98 355 72 189 q 161 681 124 521 q 245 939 198 842 q 330 1006 279 998 q 347 1008 338 1008 q 432 972 390 1008 q 507 832 471 935 q 570 596 542 729 q 619 334 599 463 q 650 105 640 206 q 652 77 652 92 q 648 35 652 57 q 600 -14 641 -3 q 590 -15 595 -15 q 556 2 568 -15 q 539 49 542 22 q 516 248 528 155 l 254 222 m 299 1163 l 397 1253 q 445 1270 416 1270 q 484 1250 464 1270 q 496 1223 496 1238 l 496 1219 q 481 1192 496 1203 l 463 1178 q 422 1147 445 1164 q 381 1116 399 1129 l 363 1102 q 332 1091 349 1091 l 328 1091 q 295 1105 309 1093 q 283 1134 283 1118 l 283 1135 q 299 1163 284 1152 z "},"":{"ha":705,"x_min":55,"x_max":652,"o":"m 270 320 l 503 343 q 501 350 502 345 q 488 432 498 372 q 466 566 479 492 q 437 708 452 640 q 406 814 422 775 q 385 843 395 843 q 379 840 382 843 q 342 708 366 818 q 298 482 319 598 q 271 324 277 366 l 270 320 m 254 222 q 231 68 241 145 q 203 -5 227 23 q 131 -33 179 -33 q 66 -1 81 -31 q 55 49 55 20 q 57 75 55 61 q 98 355 72 189 q 161 681 124 521 q 245 939 198 842 q 330 1006 279 998 q 347 1008 338 1008 q 432 972 390 1008 q 507 832 471 935 q 570 596 542 729 q 619 334 599 463 q 650 105 640 206 q 652 77 652 92 q 648 35 652 57 q 600 -14 641 -3 q 590 -15 595 -15 q 556 2 568 -15 q 539 49 542 22 q 516 248 528 155 l 254 222 m 248 1152 q 255 1162 252 1157 q 328 1249 302 1227 q 354 1260 341 1260 q 380 1249 367 1260 q 453 1162 406 1227 q 460 1152 456 1157 q 468 1131 468 1141 q 467 1122 468 1126 q 445 1097 462 1106 q 427 1090 433 1090 q 416 1092 421 1090 q 385 1109 397 1095 l 354 1143 l 323 1109 q 292 1092 311 1095 q 281 1090 286 1090 q 263 1097 275 1090 q 241 1122 246 1106 q 240 1131 240 1126 q 248 1152 240 1141 z "},"":{"ha":705,"x_min":55,"x_max":652,"o":"m 270 320 l 503 343 q 501 350 502 345 q 488 432 498 372 q 466 566 479 492 q 437 708 452 640 q 406 814 422 775 q 385 843 395 843 q 379 840 382 843 q 342 708 366 818 q 298 482 319 598 q 271 324 277 366 l 270 320 m 254 222 q 231 68 241 145 q 203 -5 227 23 q 131 -33 179 -33 q 66 -1 81 -31 q 55 49 55 20 q 57 75 55 61 q 98 355 72 189 q 161 681 124 521 q 245 939 198 842 q 330 1006 279 998 q 347 1008 338 1008 q 432 972 390 1008 q 507 832 471 935 q 570 596 542 729 q 619 334 599 463 q 650 105 640 206 q 652 77 652 92 q 648 35 652 57 q 600 -14 641 -3 q 590 -15 595 -15 q 556 2 568 -15 q 539 49 542 22 q 516 248 528 155 l 254 222 m 254 1200 q 317 1234 291 1234 l 321 1234 q 387 1196 348 1230 q 418 1215 401 1215 l 420 1215 q 453 1201 439 1215 q 467 1168 467 1187 q 454 1133 467 1145 q 391 1101 416 1101 l 387 1102 q 323 1140 360 1106 q 289 1119 308 1119 l 287 1119 q 256 1132 270 1119 q 241 1166 241 1147 l 241 1168 q 254 1200 241 1185 z "},"":{"ha":705,"x_min":55,"x_max":652,"o":"m 270 320 l 503 343 q 501 350 502 345 q 488 432 498 372 q 466 566 479 492 q 437 708 452 640 q 406 814 422 775 q 385 843 395 843 q 379 840 382 843 q 342 708 366 818 q 298 482 319 598 q 271 324 277 366 l 270 320 m 254 222 q 231 68 241 145 q 203 -5 227 23 q 131 -33 179 -33 q 66 -1 81 -31 q 55 49 55 20 q 57 75 55 61 q 98 355 72 189 q 161 681 124 521 q 245 939 198 842 q 330 1006 279 998 q 347 1008 338 1008 q 432 972 390 1008 q 507 832 471 935 q 570 596 542 729 q 619 334 599 463 q 650 105 640 206 q 652 77 652 92 q 648 35 652 57 q 600 -14 641 -3 q 590 -15 595 -15 q 556 2 568 -15 q 539 49 542 22 q 516 248 528 155 l 254 222 m 227 1159 q 274 1197 243 1197 l 279 1197 q 330 1164 313 1193 q 338 1142 338 1154 q 319 1104 338 1124 q 277 1086 298 1086 q 254 1091 265 1086 q 226 1143 226 1104 q 227 1159 226 1151 m 477 1117 q 429 1086 456 1086 q 419 1087 425 1086 q 374 1124 387 1095 q 370 1141 370 1132 q 393 1183 370 1162 q 427 1196 410 1196 q 440 1194 433 1196 q 476 1166 464 1187 q 482 1143 482 1155 q 477 1117 482 1131 z "},"":{"ha":705,"x_min":55,"x_max":652,"o":"m 270 320 l 503 343 q 501 350 502 345 q 488 432 498 372 q 466 566 479 492 q 437 708 452 640 q 406 814 422 775 q 385 843 395 843 q 379 840 382 843 q 342 708 366 818 q 298 482 319 598 q 271 324 277 366 l 270 320 m 254 222 q 231 68 241 145 q 203 -5 227 23 q 131 -33 179 -33 q 66 -1 81 -31 q 55 49 55 20 q 57 75 55 61 q 98 355 72 189 q 161 681 124 521 q 245 939 198 842 q 330 1006 279 998 q 347 1008 338 1008 q 432 972 390 1008 q 507 832 471 935 q 570 596 542 729 q 619 334 599 463 q 650 105 640 206 q 652 77 652 92 q 648 35 652 57 q 600 -14 641 -3 q 590 -15 595 -15 q 556 2 568 -15 q 539 49 542 22 q 516 248 528 155 l 254 222 m 352 1190 q 319 1177 322 1188 q 319 1173 319 1175 q 329 1154 319 1164 q 357 1136 341 1142 q 369 1133 364 1133 q 381 1138 376 1133 q 385 1148 385 1141 q 378 1175 385 1158 q 369 1186 374 1183 q 352 1190 363 1190 m 344 1265 q 352 1266 348 1266 q 366 1264 359 1266 q 461 1215 433 1253 q 477 1167 477 1193 q 468 1126 477 1147 q 390 1053 436 1061 q 370 1051 380 1051 q 302 1073 334 1051 q 240 1143 260 1101 q 231 1182 231 1163 q 241 1221 231 1202 q 344 1265 263 1257 z "},"":{"ha":892,"x_min":55,"x_max":968,"o":"m 270 320 l 503 343 q 501 350 502 345 q 488 432 498 372 q 466 566 479 492 q 437 708 452 640 q 406 814 422 775 q 385 843 395 843 q 379 840 382 843 q 342 708 366 818 q 298 482 319 598 q 271 324 277 366 l 270 320 m 512 248 l 254 222 q 231 68 241 145 q 203 -5 227 23 q 131 -33 179 -33 q 66 -1 81 -31 q 55 49 55 20 q 57 75 55 61 q 98 355 72 189 q 161 681 124 521 q 245 939 198 842 q 330 1006 279 998 q 347 1008 338 1008 q 432 972 390 1008 q 507 832 471 935 q 512 817 509 825 q 513 855 513 836 q 514 873 513 865 q 530 962 515 936 q 578 994 545 989 q 627 996 599 996 q 667 995 645 996 q 675 994 671 994 l 725 994 q 805 994 765 994 q 857 989 844 993 q 894 958 886 979 q 896 946 896 951 q 882 917 896 930 q 812 897 863 898 l 789 897 q 766 899 777 899 q 712 889 734 899 q 680 814 682 876 l 680 801 q 675 619 680 709 q 673 579 674 600 q 690 528 673 536 q 722 522 701 522 q 740 523 730 522 q 767 524 752 524 q 783 525 774 524 q 809 526 795 526 q 837 525 823 526 q 880 513 865 524 q 897 477 897 498 q 895 463 897 470 q 846 429 886 433 l 835 429 q 806 429 823 429 q 762 431 785 431 l 741 430 q 695 423 708 430 q 673 372 674 401 q 672 354 672 363 q 675 312 672 334 q 678 284 677 298 q 679 274 679 279 q 688 194 681 236 q 716 121 695 153 q 779 81 736 90 q 825 79 802 79 q 871 81 848 79 l 911 84 q 960 60 945 83 q 968 37 968 48 q 960 12 968 24 q 889 -18 945 -13 q 802 -20 850 -20 l 762 -20 q 638 -5 688 -19 q 555 67 578 17 q 523 178 532 117 q 512 248 517 212 z "},"":{"ha":695,"x_min":77,"x_max":633,"o":"m 295 -42 q 282 -38 289 -40 q 155 79 200 -7 q 92 276 110 165 q 77 478 77 378 l 77 494 q 90 674 78 600 q 131 834 102 758 q 216 963 161 910 q 363 1027 272 1015 q 403 1029 384 1029 q 541 988 492 1029 q 623 825 600 939 q 627 785 627 809 l 627 782 q 620 743 627 760 q 588 724 612 724 q 543 760 558 728 q 517 831 528 792 q 491 899 507 874 l 476 914 q 433 931 456 931 q 408 927 420 931 l 398 924 l 387 919 q 288 808 319 890 q 249 621 256 726 q 246 532 246 576 q 251 416 246 473 q 274 252 260 316 q 303 158 282 212 q 359 73 323 104 q 405 56 379 56 q 450 66 425 56 q 508 138 492 94 q 531 227 524 182 q 547 291 536 265 q 583 320 557 317 l 585 320 q 623 300 612 320 q 633 254 633 280 l 633 251 q 627 204 632 223 q 591 92 616 148 q 521 -1 565 36 q 391 -52 458 -45 l 390 -56 l 385 -83 q 450 -180 446 -128 q 451 -189 451 -184 q 414 -271 451 -235 q 306 -317 375 -310 q 272 -303 286 -317 q 258 -269 258 -289 q 272 -235 258 -249 q 306 -221 286 -221 q 351 -214 340 -218 q 361 -206 361 -211 q 360 -203 361 -204 q 345 -184 357 -195 q 306 -130 325 -165 q 293 -72 293 -106 q 295 -42 293 -58 z "},"":{"ha":578,"x_min":105,"x_max":572,"o":"m 118 855 q 119 873 118 865 q 135 962 119 936 q 183 994 150 989 q 231 996 203 996 q 271 995 250 996 q 279 994 275 994 l 330 994 q 409 994 370 994 q 462 989 449 993 q 498 958 491 979 q 500 945 500 951 q 487 917 500 930 q 417 897 468 898 l 393 897 q 371 899 382 899 q 317 889 339 899 q 284 814 287 876 l 284 801 q 279 619 284 709 q 277 579 279 600 q 294 528 277 536 q 326 522 307 522 q 345 523 335 522 q 372 524 357 524 q 388 525 378 524 q 414 526 401 526 q 441 525 427 526 q 484 513 469 524 q 502 477 502 497 q 500 463 502 470 q 450 429 491 433 l 440 429 q 411 429 428 429 q 368 430 389 430 l 345 430 q 300 423 313 430 q 277 372 279 401 q 277 354 277 363 q 280 312 277 334 q 283 284 282 298 q 283 274 283 279 q 293 194 286 236 q 320 121 300 153 q 384 81 341 90 q 430 79 407 79 q 476 81 453 79 l 515 84 q 565 60 550 83 q 572 36 572 48 q 565 12 572 24 q 494 -18 549 -13 q 406 -20 455 -20 q 366 -20 387 -20 q 243 -5 293 -19 q 160 67 182 17 q 127 178 137 117 q 105 448 105 304 l 105 456 q 113 747 106 604 q 118 855 116 803 m 394 1163 q 410 1135 409 1152 l 410 1134 q 398 1105 410 1118 q 365 1091 384 1093 l 361 1091 q 330 1102 345 1091 l 312 1116 q 271 1147 294 1129 q 230 1178 248 1164 l 212 1192 q 197 1219 197 1203 l 197 1223 q 209 1250 197 1238 q 248 1270 229 1270 q 296 1253 277 1270 l 394 1163 z "},"":{"ha":578,"x_min":105,"x_max":572,"o":"m 118 855 q 119 873 118 865 q 135 962 119 936 q 183 994 150 989 q 231 996 203 996 q 271 995 250 996 q 279 994 275 994 l 330 994 q 409 994 370 994 q 462 989 449 993 q 498 958 491 979 q 500 945 500 951 q 487 917 500 930 q 417 897 468 898 l 393 897 q 371 899 382 899 q 317 889 339 899 q 284 814 287 876 l 284 801 q 279 619 284 709 q 277 579 279 600 q 294 528 277 536 q 326 522 307 522 q 345 523 335 522 q 372 524 357 524 q 388 525 378 524 q 414 526 401 526 q 441 525 427 526 q 484 513 469 524 q 502 477 502 497 q 500 463 502 470 q 450 429 491 433 l 440 429 q 411 429 428 429 q 368 430 389 430 l 345 430 q 300 423 313 430 q 277 372 279 401 q 277 354 277 363 q 280 312 277 334 q 283 284 282 298 q 283 274 283 279 q 293 194 286 236 q 320 121 300 153 q 384 81 341 90 q 430 79 407 79 q 476 81 453 79 l 515 84 q 565 60 550 83 q 572 36 572 48 q 565 12 572 24 q 494 -18 549 -13 q 406 -20 455 -20 q 366 -20 387 -20 q 243 -5 293 -19 q 160 67 182 17 q 127 178 137 117 q 105 448 105 304 l 105 456 q 113 747 106 604 q 118 855 116 803 m 284 1163 l 382 1253 q 430 1270 401 1270 q 469 1250 449 1270 q 481 1223 481 1238 l 481 1219 q 466 1192 481 1203 l 448 1178 q 407 1147 430 1164 q 366 1116 384 1129 l 348 1102 q 317 1091 334 1091 l 313 1091 q 280 1105 294 1093 q 268 1134 268 1118 l 268 1135 q 284 1163 269 1152 z "},"":{"ha":578,"x_min":105,"x_max":572,"o":"m 118 855 q 119 873 118 865 q 135 962 119 936 q 183 994 150 989 q 231 996 203 996 q 271 995 250 996 q 279 994 275 994 l 330 994 q 409 994 370 994 q 462 989 449 993 q 498 958 491 979 q 500 945 500 951 q 487 917 500 930 q 417 897 468 898 l 393 897 q 371 899 382 899 q 317 889 339 899 q 284 814 287 876 l 284 801 q 279 619 284 709 q 277 579 279 600 q 294 528 277 536 q 326 522 307 522 q 345 523 335 522 q 372 524 357 524 q 388 525 378 524 q 414 526 401 526 q 441 525 427 526 q 484 513 469 524 q 502 477 502 497 q 500 463 502 470 q 450 429 491 433 l 440 429 q 411 429 428 429 q 368 430 389 430 l 345 430 q 300 423 313 430 q 277 372 279 401 q 277 354 277 363 q 280 312 277 334 q 283 284 282 298 q 283 274 283 279 q 293 194 286 236 q 320 121 300 153 q 384 81 341 90 q 430 79 407 79 q 476 81 453 79 l 515 84 q 565 60 550 83 q 572 36 572 48 q 565 12 572 24 q 494 -18 549 -13 q 406 -20 455 -20 q 366 -20 387 -20 q 243 -5 293 -19 q 160 67 182 17 q 127 178 137 117 q 105 448 105 304 l 105 456 q 113 747 106 604 q 118 855 116 803 m 233 1152 q 240 1162 237 1157 q 313 1249 288 1227 q 339 1260 326 1260 q 365 1249 352 1260 q 438 1162 391 1227 q 446 1152 441 1157 q 453 1131 453 1141 q 452 1122 453 1126 q 430 1097 447 1106 q 412 1090 418 1090 q 401 1092 406 1090 q 370 1109 382 1095 l 339 1143 l 308 1109 q 277 1092 296 1095 q 266 1090 271 1090 q 248 1097 260 1090 q 227 1122 231 1106 q 225 1131 225 1126 q 233 1152 225 1141 z "},"":{"ha":578,"x_min":105,"x_max":572,"o":"m 118 855 q 119 873 118 865 q 135 962 119 936 q 183 994 150 989 q 231 996 203 996 q 271 995 250 996 q 279 994 275 994 l 330 994 q 409 994 370 994 q 462 989 449 993 q 498 958 491 979 q 500 945 500 951 q 487 917 500 930 q 417 897 468 898 l 393 897 q 371 899 382 899 q 317 889 339 899 q 284 814 287 876 l 284 801 q 279 619 284 709 q 277 579 279 600 q 294 528 277 536 q 326 522 307 522 q 345 523 335 522 q 372 524 357 524 q 388 525 378 524 q 414 526 401 526 q 441 525 427 526 q 484 513 469 524 q 502 477 502 497 q 500 463 502 470 q 450 429 491 433 l 440 429 q 411 429 428 429 q 368 430 389 430 l 345 430 q 300 423 313 430 q 277 372 279 401 q 277 354 277 363 q 280 312 277 334 q 283 284 282 298 q 283 274 283 279 q 293 194 286 236 q 320 121 300 153 q 384 81 341 90 q 430 79 407 79 q 476 81 453 79 l 515 84 q 565 60 550 83 q 572 36 572 48 q 565 12 572 24 q 494 -18 549 -13 q 406 -20 455 -20 q 366 -20 387 -20 q 243 -5 293 -19 q 160 67 182 17 q 127 178 137 117 q 105 448 105 304 l 105 456 q 113 747 106 604 q 118 855 116 803 m 212 1159 q 259 1197 229 1197 l 264 1197 q 315 1164 298 1193 q 323 1142 323 1154 q 304 1104 323 1124 q 262 1086 283 1086 q 239 1091 250 1086 q 211 1143 211 1104 q 212 1159 211 1151 m 462 1117 q 414 1086 441 1086 q 404 1087 410 1086 q 359 1124 372 1095 q 355 1141 355 1132 q 378 1183 355 1162 q 412 1196 395 1196 q 425 1194 418 1196 q 461 1166 449 1187 q 467 1143 467 1155 q 462 1117 467 1131 z "},"":{"ha":399,"x_min":46,"x_max":320,"o":"m 125 79 q 109 229 110 134 q 111 489 111 359 q 113 885 111 694 l 113 886 q 81 884 98 885 q 52 920 52 897 l 52 925 q 119 979 52 972 l 274 990 q 320 952 320 982 l 320 936 q 258 890 320 903 q 263 871 261 882 q 274 787 272 825 q 276 725 276 749 l 276 564 q 275 457 275 511 q 277 234 275 345 q 261 81 276 138 q 320 35 320 79 q 265 -14 319 -14 l 165 -14 q 100 -16 132 -14 q 46 30 46 -16 q 119 79 47 79 l 125 79 m 248 1163 q 264 1135 263 1152 l 264 1134 q 252 1105 264 1118 q 219 1091 238 1093 l 216 1091 q 184 1102 199 1091 l 166 1116 q 125 1147 149 1129 q 84 1178 102 1164 l 66 1192 q 51 1219 52 1203 l 51 1223 q 63 1250 51 1238 q 102 1270 83 1270 q 151 1253 132 1270 l 248 1163 z "},"":{"ha":399,"x_min":46,"x_max":336,"o":"m 125 79 q 109 229 110 134 q 111 489 111 359 q 113 885 111 694 l 113 886 q 81 884 98 885 q 52 920 52 897 l 52 925 q 119 979 52 972 l 274 990 q 320 952 320 982 l 320 936 q 258 890 320 903 q 263 871 261 882 q 274 787 272 825 q 276 725 276 749 l 276 564 q 275 457 275 511 q 277 234 275 345 q 261 81 276 138 q 320 35 320 79 q 265 -14 319 -14 l 165 -14 q 100 -16 132 -14 q 46 30 46 -16 q 119 79 47 79 l 125 79 m 138 1163 l 236 1253 q 284 1270 255 1270 q 323 1250 303 1270 q 336 1223 336 1238 l 336 1219 q 320 1192 335 1203 l 302 1178 q 261 1147 284 1164 q 220 1116 238 1129 l 202 1102 q 171 1091 188 1091 l 168 1091 q 134 1105 149 1093 q 122 1134 122 1118 l 122 1135 q 138 1163 123 1152 z "},"":{"ha":399,"x_min":46,"x_max":320,"o":"m 125 79 q 109 229 110 134 q 111 489 111 359 q 113 885 111 694 l 113 886 q 81 884 98 885 q 52 920 52 897 l 52 925 q 119 979 52 972 l 274 990 q 320 952 320 982 l 320 936 q 258 890 320 903 q 263 871 261 882 q 274 787 272 825 q 276 725 276 749 l 276 564 q 275 457 275 511 q 277 234 275 345 q 261 81 276 138 q 320 35 320 79 q 265 -14 319 -14 l 165 -14 q 100 -16 132 -14 q 46 30 46 -16 q 119 79 47 79 l 125 79 m 87 1152 q 94 1162 91 1157 q 168 1249 142 1227 q 193 1260 180 1260 q 219 1249 206 1260 q 292 1162 245 1227 q 300 1152 296 1157 q 307 1131 307 1141 q 306 1122 307 1126 q 284 1097 301 1106 q 266 1090 272 1090 q 255 1092 260 1090 q 224 1109 236 1095 l 193 1143 l 162 1109 q 132 1092 150 1095 q 120 1090 125 1090 q 102 1097 114 1090 q 81 1122 85 1106 q 79 1131 79 1126 q 87 1152 79 1141 z "},"":{"ha":399,"x_min":46,"x_max":321,"o":"m 125 79 q 109 229 110 134 q 111 489 111 359 q 113 885 111 694 l 113 886 q 81 884 98 885 q 52 920 52 897 l 52 925 q 119 979 52 972 l 274 990 q 320 952 320 982 l 320 936 q 258 890 320 903 q 263 871 261 882 q 274 787 272 825 q 276 725 276 749 l 276 564 q 275 457 275 511 q 277 234 275 345 q 261 81 276 138 q 320 35 320 79 q 265 -14 319 -14 l 165 -14 q 100 -16 132 -14 q 46 30 46 -16 q 119 79 47 79 l 125 79 m 66 1159 q 113 1197 83 1197 l 118 1197 q 170 1164 152 1193 q 177 1142 177 1154 q 159 1104 177 1124 q 117 1086 138 1086 q 93 1091 104 1086 q 65 1143 65 1104 q 66 1159 65 1151 m 316 1117 q 269 1086 295 1086 q 258 1087 264 1086 q 214 1124 226 1095 q 210 1141 210 1132 q 233 1183 210 1162 q 267 1196 249 1196 q 279 1194 273 1196 q 315 1166 303 1187 q 321 1143 321 1155 q 316 1117 321 1131 z "},"":{"ha":672,"x_min":13,"x_max":620,"o":"m 110 536 q 106 893 109 715 q 105 915 105 905 q 125 1008 105 977 q 208 1040 146 1040 q 236 1038 221 1040 q 389 980 322 1029 q 504 860 456 931 q 578 711 552 789 l 581 703 q 618 487 613 601 q 620 445 620 466 q 597 264 620 353 q 503 72 570 156 q 322 -52 436 -12 q 247 -64 282 -64 q 176 -49 208 -64 q 106 76 113 -18 q 106 113 106 94 q 108 193 106 151 q 109 254 109 224 q 110 439 110 347 l 62 439 q 26 452 41 439 q 13 486 13 463 q 14 495 13 490 q 43 533 19 527 q 76 537 59 537 q 91 536 83 537 q 104 536 98 536 l 110 536 m 280 536 l 351 536 q 394 534 389 536 q 425 488 425 517 l 425 481 q 382 440 422 448 q 328 439 357 439 l 296 439 q 280 439 288 439 q 276 169 279 304 q 275 146 275 157 q 278 103 275 124 q 301 61 282 72 q 313 58 307 58 q 365 78 333 58 q 479 218 442 131 q 522 404 517 305 q 524 452 524 428 q 511 588 524 524 q 398 846 485 730 q 314 907 341 907 q 308 906 311 907 q 277 848 281 898 q 275 791 275 821 q 277 742 275 767 q 278 703 277 721 l 278 681 q 280 536 279 608 z "},"":{"ha":782,"x_min":105,"x_max":692,"o":"m 671 35 q 632 -15 656 -15 q 625 -14 629 -15 q 566 38 597 -6 q 509 133 534 82 q 471 211 483 184 q 466 222 468 218 q 397 393 431 317 q 360 478 379 435 q 351 498 356 488 q 330 548 340 523 q 285 652 308 601 l 283 656 q 276 668 277 668 l 276 645 q 275 488 275 567 q 281 123 275 306 q 282 96 282 109 q 279 50 282 73 q 254 -11 275 13 q 184 -34 233 -34 q 126 -7 143 -32 q 106 54 109 18 q 105 90 105 72 q 106 124 105 107 q 107 149 106 138 q 109 319 109 234 q 106 532 109 426 l 105 699 l 105 814 q 109 867 105 840 q 134 924 115 901 q 193 947 153 947 q 259 921 233 946 q 302 859 286 896 q 332 785 319 822 q 346 747 339 764 q 355 725 349 739 q 408 593 373 680 q 482 414 443 507 q 553 244 522 321 q 595 159 585 167 l 597 159 q 602 168 600 159 q 605 194 604 178 q 605 224 606 209 q 605 247 605 239 l 605 252 q 578 652 601 465 q 555 913 564 781 l 555 916 q 554 935 554 926 q 555 956 554 945 q 572 993 557 977 q 625 1009 587 1009 q 662 990 651 1009 q 674 943 672 970 q 675 905 675 924 l 675 867 q 682 724 678 797 q 691 446 688 586 q 692 372 692 409 q 686 151 692 250 q 671 35 685 92 m 299 1200 q 361 1234 336 1234 l 366 1234 q 432 1196 393 1230 q 463 1215 446 1215 l 465 1215 q 498 1201 484 1215 q 512 1168 512 1187 q 499 1133 512 1145 q 436 1101 461 1101 l 431 1102 q 368 1140 405 1106 q 334 1119 353 1119 l 332 1119 q 300 1132 315 1119 q 286 1166 286 1147 l 286 1168 q 299 1200 286 1185 z "},"":{"ha":782,"x_min":77,"x_max":692,"o":"m 555 197 q 581 361 570 254 q 588 520 588 437 q 587 587 588 553 q 554 801 583 707 q 463 924 526 895 q 427 931 444 931 q 384 919 404 931 q 323 861 348 899 q 286 789 298 823 q 252 574 258 699 q 251 516 251 545 q 264 328 251 422 q 325 121 282 205 q 405 47 362 53 q 416 47 410 47 q 486 79 452 47 q 546 172 524 115 q 555 197 551 184 m 429 1024 q 562 963 512 1015 q 638 841 612 912 q 675 700 664 770 q 692 500 692 600 q 662 231 692 366 q 600 78 641 149 q 490 -31 558 7 q 379 -58 443 -58 q 323 -53 353 -58 q 218 0 258 -40 q 154 96 178 41 q 115 206 130 151 q 79 437 87 308 q 77 511 77 474 q 91 693 77 603 q 170 909 111 819 q 281 1004 217 977 q 393 1026 331 1026 q 429 1024 410 1026 m 439 1163 q 456 1135 454 1152 l 456 1134 q 444 1105 456 1118 q 410 1091 429 1093 l 407 1091 q 376 1102 390 1091 l 357 1116 q 317 1147 340 1129 q 275 1178 294 1164 l 258 1192 q 242 1219 243 1203 l 242 1223 q 254 1250 242 1238 q 294 1270 275 1270 q 342 1253 323 1270 l 439 1163 z "},"":{"ha":782,"x_min":77,"x_max":692,"o":"m 555 197 q 581 361 570 254 q 588 520 588 437 q 587 587 588 553 q 554 801 583 707 q 463 924 526 895 q 427 931 444 931 q 384 919 404 931 q 323 861 348 899 q 286 789 298 823 q 252 574 258 699 q 251 516 251 545 q 264 328 251 422 q 325 121 282 205 q 405 47 362 53 q 416 47 410 47 q 486 79 452 47 q 546 172 524 115 q 555 197 551 184 m 429 1024 q 562 963 512 1015 q 638 841 612 912 q 675 700 664 770 q 692 500 692 600 q 662 231 692 366 q 600 78 641 149 q 490 -31 558 7 q 379 -58 443 -58 q 323 -53 353 -58 q 218 0 258 -40 q 154 96 178 41 q 115 206 130 151 q 79 437 87 308 q 77 511 77 474 q 91 693 77 603 q 170 909 111 819 q 281 1004 217 977 q 393 1026 331 1026 q 429 1024 410 1026 m 330 1163 l 427 1253 q 475 1270 446 1270 q 515 1250 494 1270 q 527 1223 527 1238 l 527 1219 q 511 1192 526 1203 l 494 1178 q 452 1147 475 1164 q 412 1116 429 1129 l 393 1102 q 362 1091 379 1091 l 359 1091 q 326 1105 340 1093 q 313 1134 313 1118 l 313 1135 q 330 1163 315 1152 z "},"":{"ha":782,"x_min":77,"x_max":692,"o":"m 555 197 q 581 361 570 254 q 588 520 588 437 q 587 587 588 553 q 554 801 583 707 q 463 924 526 895 q 427 931 444 931 q 384 919 404 931 q 323 861 348 899 q 286 789 298 823 q 252 574 258 699 q 251 516 251 545 q 264 328 251 422 q 325 121 282 205 q 405 47 362 53 q 416 47 410 47 q 486 79 452 47 q 546 172 524 115 q 555 197 551 184 m 429 1024 q 562 963 512 1015 q 638 841 612 912 q 675 700 664 770 q 692 500 692 600 q 662 231 692 366 q 600 78 641 149 q 490 -31 558 7 q 379 -58 443 -58 q 323 -53 353 -58 q 218 0 258 -40 q 154 96 178 41 q 115 206 130 151 q 79 437 87 308 q 77 511 77 474 q 91 693 77 603 q 170 909 111 819 q 281 1004 217 977 q 393 1026 331 1026 q 429 1024 410 1026 m 278 1152 q 286 1162 282 1157 q 359 1249 333 1227 q 385 1260 372 1260 q 410 1249 397 1260 q 484 1162 436 1227 q 491 1152 487 1157 q 498 1131 498 1141 q 497 1122 498 1126 q 475 1097 492 1106 q 457 1090 463 1090 q 446 1092 452 1090 q 415 1109 427 1095 l 385 1143 l 353 1109 q 323 1092 341 1095 q 311 1090 317 1090 q 294 1097 305 1090 q 272 1122 277 1106 q 271 1131 271 1126 q 278 1152 271 1141 z "},"":{"ha":782,"x_min":77,"x_max":692,"o":"m 555 197 q 581 361 570 254 q 588 520 588 437 q 587 587 588 553 q 554 801 583 707 q 463 924 526 895 q 427 931 444 931 q 384 919 404 931 q 323 861 348 899 q 286 789 298 823 q 252 574 258 699 q 251 516 251 545 q 264 328 251 422 q 325 121 282 205 q 405 47 362 53 q 416 47 410 47 q 486 79 452 47 q 546 172 524 115 q 555 197 551 184 m 429 1024 q 562 963 512 1015 q 638 841 612 912 q 675 700 664 770 q 692 500 692 600 q 662 231 692 366 q 600 78 641 149 q 490 -31 558 7 q 379 -58 443 -58 q 323 -53 353 -58 q 218 0 258 -40 q 154 96 178 41 q 115 206 130 151 q 79 437 87 308 q 77 511 77 474 q 91 693 77 603 q 170 909 111 819 q 281 1004 217 977 q 393 1026 331 1026 q 429 1024 410 1026 m 285 1200 q 347 1234 321 1234 l 352 1234 q 418 1196 378 1230 q 449 1215 431 1215 l 451 1215 q 484 1201 469 1215 q 498 1168 498 1187 q 485 1133 498 1145 q 422 1101 447 1101 l 417 1102 q 353 1140 391 1106 q 319 1119 338 1119 l 317 1119 q 286 1132 300 1119 q 271 1166 271 1147 l 271 1168 q 285 1200 271 1185 z "},"":{"ha":782,"x_min":77,"x_max":692,"o":"m 555 197 q 581 361 570 254 q 588 520 588 437 q 587 587 588 553 q 554 801 583 707 q 463 924 526 895 q 427 931 444 931 q 384 919 404 931 q 323 861 348 899 q 286 789 298 823 q 252 574 258 699 q 251 516 251 545 q 264 328 251 422 q 325 121 282 205 q 405 47 362 53 q 416 47 410 47 q 486 79 452 47 q 546 172 524 115 q 555 197 551 184 m 429 1024 q 562 963 512 1015 q 638 841 612 912 q 675 700 664 770 q 692 500 692 600 q 662 231 692 366 q 600 78 641 149 q 490 -31 558 7 q 379 -58 443 -58 q 323 -53 353 -58 q 218 0 258 -40 q 154 96 178 41 q 115 206 130 151 q 79 437 87 308 q 77 511 77 474 q 91 693 77 603 q 170 909 111 819 q 281 1004 217 977 q 393 1026 331 1026 q 429 1024 410 1026 m 257 1159 q 304 1197 274 1197 l 309 1197 q 361 1164 343 1193 q 368 1142 368 1154 q 350 1104 368 1124 q 308 1086 329 1086 q 284 1091 296 1086 q 256 1143 256 1104 q 257 1159 256 1151 m 507 1117 q 460 1086 486 1086 q 450 1087 455 1086 q 405 1124 417 1095 q 401 1141 401 1132 q 424 1183 401 1162 q 458 1196 440 1196 q 471 1194 464 1196 q 507 1166 494 1187 q 513 1143 513 1155 q 507 1117 513 1131 z "},"":{"ha":625,"x_min":56,"x_max":566,"o":"m 244 477 l 233 490 q 83 637 159 564 l 79 640 q 56 680 62 658 q 56 687 56 683 q 70 717 56 703 l 76 724 q 105 734 91 734 q 130 726 118 734 q 159 701 146 715 q 174 684 168 693 q 189 669 182 676 q 275 583 231 625 l 312 545 q 456 691 371 605 q 463 699 459 695 q 503 727 479 715 q 523 732 513 732 q 555 717 540 732 q 566 687 566 702 q 554 654 566 671 q 522 616 539 633 q 500 597 511 606 q 484 582 491 589 l 380 477 q 525 334 439 419 l 532 328 q 561 288 549 311 q 566 268 566 277 q 551 235 566 251 q 521 224 536 224 q 488 237 505 224 q 451 269 468 251 q 431 290 440 279 q 416 307 422 300 l 312 410 l 300 398 q 153 249 227 324 l 149 245 q 111 222 132 228 q 102 222 106 222 q 73 236 87 222 q 67 242 70 239 q 56 272 56 258 q 64 296 56 284 q 89 326 75 311 q 106 340 97 334 q 121 355 114 348 l 208 440 l 244 477 z "},"":{"ha":782,"x_min":77,"x_max":692,"o":"m 273 -37 q 218 1 241 -23 q 154 96 178 41 q 115 206 130 151 q 79 437 87 308 q 77 511 77 474 q 91 693 77 603 q 170 909 111 819 q 281 1004 217 977 q 393 1026 331 1026 q 429 1024 410 1026 q 511 1001 475 1019 q 536 1012 521 1012 q 556 1008 545 1012 q 581 972 577 998 q 581 954 581 964 q 581 942 581 948 q 638 841 617 898 q 675 700 664 770 q 692 500 692 600 q 662 231 692 366 q 600 78 641 149 q 490 -31 558 7 q 379 -58 443 -58 q 361 -57 370 -58 l 355 -69 q 321 -87 344 -87 q 307 -85 315 -87 q 273 -37 273 -73 m 552 807 q 389 52 469 430 q 405 47 397 49 q 416 47 410 47 q 486 79 452 47 q 546 172 524 115 q 555 197 551 184 q 581 361 570 254 q 588 520 588 437 q 587 587 588 553 q 554 801 583 707 q 552 807 553 804 m 312 149 q 469 877 394 513 q 472 892 471 884 q 477 916 474 904 q 463 924 470 920 q 427 931 444 931 q 384 919 404 931 q 323 861 348 899 q 286 789 298 823 q 252 574 258 699 q 251 516 251 545 q 264 328 251 422 q 312 149 279 224 z "},"":{"ha":672,"x_min":77,"x_max":583,"o":"m 258 385 q 265 317 258 365 q 285 215 272 269 q 317 121 298 160 q 361 80 336 81 l 362 80 q 416 136 386 80 q 456 258 440 187 q 474 387 472 330 q 479 755 479 570 q 478 903 479 829 l 478 911 q 484 959 478 935 q 527 991 492 989 q 564 970 553 990 q 576 921 575 949 q 578 889 578 904 q 577 869 578 879 l 577 849 q 579 743 578 796 q 583 602 583 673 l 582 554 l 582 545 q 575 384 581 474 q 548 204 570 293 q 478 48 526 115 q 347 -44 431 -19 q 306 -50 326 -50 q 219 -14 255 -50 q 141 120 169 36 q 101 288 113 204 q 85 422 88 372 q 77 669 77 562 q 79 802 77 735 q 79 868 79 835 l 79 874 q 96 952 79 916 q 170 991 115 991 q 237 955 218 988 q 257 876 256 922 q 258 845 258 860 q 255 788 258 816 q 253 752 254 768 q 252 688 252 720 q 254 591 252 640 q 254 538 254 565 q 258 385 255 478 m 385 1163 q 401 1135 399 1152 l 401 1134 q 389 1105 401 1118 q 355 1091 374 1093 l 352 1091 q 321 1102 335 1091 l 302 1116 q 262 1147 285 1129 q 220 1178 239 1164 l 203 1192 q 187 1219 188 1203 l 187 1223 q 199 1250 187 1238 q 239 1270 220 1270 q 287 1253 268 1270 l 385 1163 z "},"":{"ha":672,"x_min":77,"x_max":583,"o":"m 258 385 q 265 317 258 365 q 285 215 272 269 q 317 121 298 160 q 361 80 336 81 l 362 80 q 416 136 386 80 q 456 258 440 187 q 474 387 472 330 q 479 755 479 570 q 478 903 479 829 l 478 911 q 484 959 478 935 q 527 991 492 989 q 564 970 553 990 q 576 921 575 949 q 578 889 578 904 q 577 869 578 879 l 577 849 q 579 743 578 796 q 583 602 583 673 l 582 554 l 582 545 q 575 384 581 474 q 548 204 570 293 q 478 48 526 115 q 347 -44 431 -19 q 306 -50 326 -50 q 219 -14 255 -50 q 141 120 169 36 q 101 288 113 204 q 85 422 88 372 q 77 669 77 562 q 79 802 77 735 q 79 868 79 835 l 79 874 q 96 952 79 916 q 170 991 115 991 q 237 955 218 988 q 257 876 256 922 q 258 845 258 860 q 255 788 258 816 q 253 752 254 768 q 252 688 252 720 q 254 591 252 640 q 254 538 254 565 q 258 385 255 478 m 275 1163 l 372 1253 q 420 1270 391 1270 q 460 1250 439 1270 q 472 1223 472 1238 l 472 1219 q 456 1192 471 1203 l 439 1178 q 397 1147 420 1164 q 357 1116 374 1129 l 338 1102 q 307 1091 324 1091 l 304 1091 q 271 1105 285 1093 q 258 1134 258 1118 l 258 1135 q 275 1163 260 1152 z "},"":{"ha":672,"x_min":77,"x_max":583,"o":"m 258 385 q 265 317 258 365 q 285 215 272 269 q 317 121 298 160 q 361 80 336 81 l 362 80 q 416 136 386 80 q 456 258 440 187 q 474 387 472 330 q 479 755 479 570 q 478 903 479 829 l 478 911 q 484 959 478 935 q 527 991 492 989 q 564 970 553 990 q 576 921 575 949 q 578 889 578 904 q 577 869 578 879 l 577 849 q 579 743 578 796 q 583 602 583 673 l 582 554 l 582 545 q 575 384 581 474 q 548 204 570 293 q 478 48 526 115 q 347 -44 431 -19 q 306 -50 326 -50 q 219 -14 255 -50 q 141 120 169 36 q 101 288 113 204 q 85 422 88 372 q 77 669 77 562 q 79 802 77 735 q 79 868 79 835 l 79 874 q 96 952 79 916 q 170 991 115 991 q 237 955 218 988 q 257 876 256 922 q 258 845 258 860 q 255 788 258 816 q 253 752 254 768 q 252 688 252 720 q 254 591 252 640 q 254 538 254 565 q 258 385 255 478 m 223 1152 q 231 1162 227 1157 q 304 1249 278 1227 q 330 1260 317 1260 q 355 1249 342 1260 q 429 1162 381 1227 q 436 1152 432 1157 q 444 1131 444 1141 q 442 1122 444 1126 q 420 1097 437 1106 q 402 1090 408 1090 q 391 1092 397 1090 q 360 1109 372 1095 l 330 1143 l 298 1109 q 268 1092 286 1095 q 256 1090 262 1090 q 239 1097 250 1090 q 217 1122 222 1106 q 216 1131 216 1126 q 223 1152 216 1141 z "},"":{"ha":672,"x_min":77,"x_max":583,"o":"m 258 385 q 265 317 258 365 q 285 215 272 269 q 317 121 298 160 q 361 80 336 81 l 362 80 q 416 136 386 80 q 456 258 440 187 q 474 387 472 330 q 479 755 479 570 q 478 903 479 829 l 478 911 q 484 959 478 935 q 527 991 492 989 q 564 970 553 990 q 576 921 575 949 q 578 889 578 904 q 577 869 578 879 l 577 849 q 579 743 578 796 q 583 602 583 673 l 582 554 l 582 545 q 575 384 581 474 q 548 204 570 293 q 478 48 526 115 q 347 -44 431 -19 q 306 -50 326 -50 q 219 -14 255 -50 q 141 120 169 36 q 101 288 113 204 q 85 422 88 372 q 77 669 77 562 q 79 802 77 735 q 79 868 79 835 l 79 874 q 96 952 79 916 q 170 991 115 991 q 237 955 218 988 q 257 876 256 922 q 258 845 258 860 q 255 788 258 816 q 253 752 254 768 q 252 688 252 720 q 254 591 252 640 q 254 538 254 565 q 258 385 255 478 m 202 1159 q 250 1197 219 1197 l 254 1197 q 306 1164 288 1193 q 313 1142 313 1154 q 295 1104 313 1124 q 253 1086 274 1086 q 229 1091 241 1086 q 201 1143 201 1104 q 202 1159 201 1151 m 452 1117 q 405 1086 431 1086 q 395 1087 400 1086 q 350 1124 362 1095 q 346 1141 346 1132 q 369 1183 346 1162 q 403 1196 385 1196 q 416 1194 409 1196 q 452 1166 439 1187 q 458 1143 458 1155 q 452 1117 458 1131 z "},"":{"ha":564,"x_min":30,"x_max":577,"o":"m 403 466 q 402 300 402 390 q 401 110 401 187 l 401 104 q 395 44 401 75 q 370 -13 390 11 q 311 -37 351 -36 q 247 -2 264 -35 q 227 76 229 31 q 226 115 226 96 q 227 162 226 139 q 229 191 229 178 q 235 450 232 320 q 146 567 186 492 q 78 722 106 641 q 35 867 50 804 q 30 908 30 889 q 37 949 30 930 q 106 984 49 984 q 191 930 167 979 q 224 823 214 881 q 236 774 229 797 q 276 655 251 718 q 339 545 300 591 q 408 663 379 589 q 455 813 437 736 q 479 941 473 889 q 494 991 482 968 q 532 1012 506 1012 l 539 1012 q 574 973 568 1006 q 577 939 577 957 q 574 900 577 920 q 561 832 568 860 q 557 818 559 824 q 504 638 543 743 q 403 466 465 532 m 249 1163 l 347 1253 q 395 1270 366 1270 q 434 1250 414 1270 q 446 1223 446 1238 l 446 1219 q 431 1192 446 1203 l 413 1178 q 372 1147 395 1164 q 331 1116 349 1129 l 313 1102 q 281 1091 298 1091 l 278 1091 q 245 1105 259 1093 q 233 1134 233 1118 l 233 1135 q 249 1163 234 1152 z "},"":{"ha":567,"x_min":106,"x_max":572,"o":"m 279 572 l 279 207 q 386 291 336 237 q 462 412 437 345 q 475 483 475 447 q 465 545 475 514 q 333 669 426 635 q 309 673 319 673 q 292 668 298 673 q 278 636 279 658 q 277 615 277 626 q 278 592 277 604 q 279 572 278 582 m 111 353 l 109 498 q 109 640 109 570 l 109 650 q 112 694 109 674 q 113 899 112 796 q 181 992 114 984 l 185 992 q 235 963 216 992 q 263 885 254 932 q 274 794 272 838 q 275 783 274 789 q 399 744 338 773 q 509 660 463 712 q 569 534 555 607 q 572 499 572 517 q 570 475 572 488 l 568 454 q 471 241 551 334 q 281 104 391 149 q 283 -11 283 47 l 282 -50 q 274 -122 282 -85 q 243 -182 267 -159 q 199 -197 227 -197 q 174 -195 188 -197 q 121 -151 136 -184 q 106 -75 106 -118 l 106 -51 q 108 7 106 -21 q 110 47 109 30 q 111 353 110 243 z "},"":{"ha":762,"x_min":104,"x_max":714,"o":"m 380 865 q 330 852 349 865 q 290 787 304 836 q 276 716 283 765 q 267 620 269 668 q 266 595 266 606 l 271 376 q 277 205 271 292 q 283 69 281 136 q 285 39 283 56 q 287 -31 287 5 q 286 -69 287 -50 q 268 -155 285 -127 q 220 -182 252 -176 q 198 -184 209 -184 q 158 -177 178 -184 q 116 -132 127 -165 q 111 -76 111 -113 q 113 -3 111 -39 q 115 35 114 20 q 115 100 115 68 q 104 610 115 231 q 119 730 104 663 q 165 854 133 797 q 254 932 198 911 q 336 950 283 943 q 381 954 359 954 q 525 893 465 954 q 585 749 585 833 q 539 573 585 648 q 493 439 493 497 q 500 408 493 425 q 544 341 516 375 q 596 283 572 308 q 615 262 608 271 q 677 183 650 224 q 712 96 705 142 q 714 75 714 85 q 694 -1 714 39 q 610 -64 665 -48 q 542 -74 577 -74 q 496 -70 519 -74 q 397 -27 437 -59 q 351 33 371 -5 q 342 70 342 53 q 351 102 342 87 q 374 114 363 114 q 386 111 380 114 q 418 87 403 102 l 425 81 q 427 79 426 80 q 481 39 450 56 q 513 31 497 31 q 546 39 529 31 q 566 75 566 53 q 562 96 566 85 q 515 173 548 133 q 455 242 483 213 q 432 268 439 259 q 387 344 404 302 q 369 445 371 386 q 423 593 369 520 q 479 751 477 667 q 448 832 479 799 q 380 865 416 865 z "},"":{"ha":642,"x_min":53,"x_max":589,"o":"m 425 403 q 319 443 364 443 q 286 437 301 443 q 204 351 232 416 q 170 210 176 286 q 168 163 168 186 q 176 83 168 119 q 228 24 190 28 q 233 23 231 23 q 335 92 271 23 q 392 185 375 137 q 421 288 410 233 l 425 304 l 425 403 m 425 49 q 382 2 404 21 q 330 -33 360 -17 q 208 -66 263 -66 q 162 -60 184 -66 q 62 68 90 -40 q 53 155 53 109 q 62 250 53 200 q 131 429 79 349 q 272 533 183 509 q 315 538 294 538 q 345 535 331 538 q 401 522 379 530 q 426 517 418 517 l 427 517 q 430 518 428 517 q 436 522 433 519 q 447 527 441 524 q 456 531 453 530 q 505 540 484 540 q 548 524 532 540 q 575 434 575 496 q 574 405 574 420 q 573 369 574 387 q 574 307 573 349 q 575 190 574 254 l 575 149 q 574 74 575 109 q 584 6 579 17 l 589 -13 l 589 -24 q 554 -59 581 -59 l 535 -59 q 470 -24 494 -52 q 425 49 447 -5 m 376 707 q 393 679 391 695 l 393 677 q 380 649 393 662 q 347 635 366 636 l 344 635 q 313 646 327 635 l 294 659 q 254 690 277 673 q 212 722 231 708 l 195 735 q 179 763 180 747 l 179 766 q 191 793 179 781 q 231 814 212 813 q 279 796 260 814 l 376 707 z "},"":{"ha":642,"x_min":53,"x_max":589,"o":"m 425 403 q 319 443 364 443 q 286 437 301 443 q 204 351 232 416 q 170 210 176 286 q 168 163 168 186 q 176 83 168 119 q 228 24 190 28 q 233 23 231 23 q 335 92 271 23 q 392 185 375 137 q 421 288 410 233 l 425 304 l 425 403 m 425 49 q 382 2 404 21 q 330 -33 360 -17 q 208 -66 263 -66 q 162 -60 184 -66 q 62 68 90 -40 q 53 155 53 109 q 62 250 53 200 q 131 429 79 349 q 272 533 183 509 q 315 538 294 538 q 345 535 331 538 q 401 522 379 530 q 426 517 418 517 l 427 517 q 430 518 428 517 q 436 522 433 519 q 447 527 441 524 q 456 531 453 530 q 505 540 484 540 q 548 524 532 540 q 575 434 575 496 q 574 405 574 420 q 573 369 574 387 q 574 307 573 349 q 575 190 574 254 l 575 149 q 574 74 575 109 q 584 6 579 17 l 589 -13 l 589 -24 q 554 -59 581 -59 l 535 -59 q 470 -24 494 -52 q 425 49 447 -5 m 317 707 l 415 796 q 463 814 434 814 q 503 793 482 813 q 515 766 515 781 l 515 763 q 499 735 514 747 l 481 722 q 440 690 463 708 q 399 659 417 673 l 381 646 q 350 635 367 635 l 347 635 q 313 649 328 636 q 301 677 301 662 l 301 679 q 317 707 302 695 z "},"":{"ha":642,"x_min":53,"x_max":589,"o":"m 425 403 q 319 443 364 443 q 286 437 301 443 q 204 351 232 416 q 170 210 176 286 q 168 163 168 186 q 176 83 168 119 q 228 24 190 28 q 233 23 231 23 q 335 92 271 23 q 392 185 375 137 q 421 288 410 233 l 425 304 l 425 403 m 425 49 q 382 2 404 21 q 330 -33 360 -17 q 208 -66 263 -66 q 162 -60 184 -66 q 62 68 90 -40 q 53 155 53 109 q 62 250 53 200 q 131 429 79 349 q 272 533 183 509 q 315 538 294 538 q 345 535 331 538 q 401 522 379 530 q 426 517 418 517 l 427 517 q 430 518 428 517 q 436 522 433 519 q 447 527 441 524 q 456 531 453 530 q 505 540 484 540 q 548 524 532 540 q 575 434 575 496 q 574 405 574 420 q 573 369 574 387 q 574 307 573 349 q 575 190 574 254 l 575 149 q 574 74 575 109 q 584 6 579 17 l 589 -13 l 589 -24 q 554 -59 581 -59 l 535 -59 q 470 -24 494 -52 q 425 49 447 -5 m 239 695 q 246 705 243 701 q 319 793 294 770 q 345 804 332 804 q 371 793 358 804 q 444 705 397 770 q 452 695 448 701 q 459 674 459 685 q 458 665 459 670 q 436 641 453 650 q 418 634 424 634 q 407 635 412 634 q 376 652 388 639 l 345 686 l 314 652 q 283 635 302 639 q 272 634 277 634 q 254 641 266 634 q 233 665 237 650 q 231 674 231 670 q 239 695 231 685 z "},"":{"ha":642,"x_min":53,"x_max":589,"o":"m 425 403 q 319 443 364 443 q 286 437 301 443 q 204 351 232 416 q 170 210 176 286 q 168 163 168 186 q 176 83 168 119 q 228 24 190 28 q 233 23 231 23 q 335 92 271 23 q 392 185 375 137 q 421 288 410 233 l 425 304 l 425 403 m 425 49 q 382 2 404 21 q 330 -33 360 -17 q 208 -66 263 -66 q 162 -60 184 -66 q 62 68 90 -40 q 53 155 53 109 q 62 250 53 200 q 131 429 79 349 q 272 533 183 509 q 315 538 294 538 q 345 535 331 538 q 401 522 379 530 q 426 517 418 517 l 427 517 q 430 518 428 517 q 436 522 433 519 q 447 527 441 524 q 456 531 453 530 q 505 540 484 540 q 548 524 532 540 q 575 434 575 496 q 574 405 574 420 q 573 369 574 387 q 574 307 573 349 q 575 190 574 254 l 575 149 q 574 74 575 109 q 584 6 579 17 l 589 -13 l 589 -24 q 554 -59 581 -59 l 535 -59 q 470 -24 494 -52 q 425 49 447 -5 m 249 744 q 311 777 286 777 l 316 777 q 382 739 342 774 q 413 758 395 758 l 415 758 q 448 745 433 758 q 462 711 462 730 q 449 677 462 689 q 386 645 411 645 l 381 646 q 317 684 355 650 q 283 663 302 663 l 281 663 q 250 675 264 663 q 235 709 235 690 l 235 711 q 249 744 235 729 z "},"":{"ha":642,"x_min":53,"x_max":589,"o":"m 425 403 q 319 443 364 443 q 286 437 301 443 q 204 351 232 416 q 170 210 176 286 q 168 163 168 186 q 176 83 168 119 q 228 24 190 28 q 233 23 231 23 q 335 92 271 23 q 392 185 375 137 q 421 288 410 233 l 425 304 l 425 403 m 425 49 q 382 2 404 21 q 330 -33 360 -17 q 208 -66 263 -66 q 162 -60 184 -66 q 62 68 90 -40 q 53 155 53 109 q 62 250 53 200 q 131 429 79 349 q 272 533 183 509 q 315 538 294 538 q 345 535 331 538 q 401 522 379 530 q 426 517 418 517 l 427 517 q 430 518 428 517 q 436 522 433 519 q 447 527 441 524 q 456 531 453 530 q 505 540 484 540 q 548 524 532 540 q 575 434 575 496 q 574 405 574 420 q 573 369 574 387 q 574 307 573 349 q 575 190 574 254 l 575 149 q 574 74 575 109 q 584 6 579 17 l 589 -13 l 589 -24 q 554 -59 581 -59 l 535 -59 q 470 -24 494 -52 q 425 49 447 -5 m 194 703 q 241 741 211 741 l 246 741 q 298 708 280 736 q 305 686 305 697 q 287 648 305 667 q 245 629 266 629 q 221 635 233 629 q 193 687 193 648 q 194 703 193 694 m 444 661 q 397 629 423 629 q 387 631 392 629 q 342 667 354 638 q 338 684 338 675 q 361 727 338 705 q 395 739 377 739 q 408 738 401 739 q 444 710 431 731 q 450 686 450 699 q 444 661 450 674 z "},"":{"ha":642,"x_min":53,"x_max":589,"o":"m 425 403 q 319 443 364 443 q 286 437 301 443 q 204 351 232 416 q 170 210 176 286 q 168 163 168 186 q 176 83 168 119 q 228 24 190 28 q 233 23 231 23 q 335 92 271 23 q 392 185 375 137 q 421 288 410 233 l 425 304 l 425 403 m 425 49 q 382 2 404 21 q 330 -33 360 -17 q 208 -66 263 -66 q 162 -60 184 -66 q 62 68 90 -40 q 53 155 53 109 q 62 250 53 200 q 131 429 79 349 q 272 533 183 509 q 315 538 294 538 q 345 535 331 538 q 401 522 379 530 q 426 517 418 517 l 427 517 q 430 518 428 517 q 436 522 433 519 q 447 527 441 524 q 456 531 453 530 q 505 540 484 540 q 548 524 532 540 q 575 434 575 496 q 574 405 574 420 q 573 369 574 387 q 574 307 573 349 q 575 190 574 254 l 575 149 q 574 74 575 109 q 584 6 579 17 l 589 -13 l 589 -24 q 554 -59 581 -59 l 535 -59 q 470 -24 494 -52 q 425 49 447 -5 m 336 734 q 304 721 307 732 q 303 717 303 719 q 313 698 303 708 q 342 680 326 686 q 353 677 349 677 q 366 682 361 677 q 369 692 369 685 q 362 719 369 701 q 353 730 359 726 q 336 734 347 733 m 328 809 q 336 810 332 810 q 351 808 344 810 q 446 758 417 797 q 461 711 461 736 q 452 669 461 691 q 374 597 420 605 q 354 595 364 595 q 286 616 319 595 q 224 686 244 644 q 215 726 215 707 q 226 764 215 746 q 328 809 248 800 z "},"":{"ha":937,"x_min":53,"x_max":885,"o":"m 425 403 q 319 443 364 443 q 286 437 301 443 q 204 351 232 416 q 170 210 176 286 q 168 163 168 186 q 176 83 168 119 q 228 24 190 28 q 233 23 231 23 q 335 92 271 23 q 392 185 375 137 q 421 288 410 233 l 425 304 l 425 403 m 769 421 q 719 450 749 450 l 713 450 q 649 425 680 447 q 604 374 618 402 q 584 303 589 340 q 662 313 612 304 q 749 346 711 322 q 776 391 776 363 q 772 412 776 401 l 769 421 m 453 85 q 330 -33 399 4 q 208 -66 263 -66 q 162 -60 184 -66 q 62 68 90 -40 q 53 155 53 109 q 62 250 53 200 q 131 429 79 349 q 272 533 183 509 q 315 538 294 538 q 345 535 331 538 q 401 522 379 530 q 426 517 418 517 l 427 517 q 430 518 428 517 q 436 522 433 519 q 447 527 441 524 q 456 531 453 530 q 505 540 484 540 q 548 524 532 540 q 553 519 551 522 q 671 547 604 547 q 718 544 693 547 q 824 496 779 536 q 867 390 867 458 l 867 384 q 845 314 864 344 q 794 263 825 284 q 693 222 749 235 q 586 208 638 210 q 585 189 585 199 q 591 134 585 163 q 618 62 598 94 q 675 24 638 31 q 688 24 682 24 q 754 50 726 24 q 806 119 786 81 q 815 140 811 130 q 830 169 821 157 q 848 177 836 177 q 856 176 852 177 q 883 147 878 170 q 885 127 885 138 q 882 99 885 113 q 867 56 876 73 q 755 -53 827 -22 q 663 -73 710 -73 q 604 -65 633 -73 q 484 23 524 -42 q 453 85 465 52 z "},"":{"ha":538,"x_min":62,"x_max":499,"o":"m 220 -62 l 214 -61 q 120 12 157 -43 q 70 151 83 71 q 62 254 62 203 q 64 302 62 278 q 142 493 80 433 q 297 546 198 546 q 323 545 310 546 q 421 513 382 541 q 471 414 460 484 q 472 396 472 404 q 448 344 472 353 q 438 342 443 342 q 388 388 414 342 q 349 433 373 418 q 317 442 334 442 q 294 439 306 442 q 244 400 263 428 q 215 340 224 373 q 209 267 209 309 q 210 227 209 248 q 236 103 214 160 q 304 29 258 46 q 321 26 313 26 q 347 34 335 26 q 379 67 366 45 q 397 100 389 83 q 398 101 397 100 q 403 111 400 106 q 432 161 414 138 q 460 177 444 177 q 477 173 468 177 q 499 131 499 159 q 498 119 499 125 q 473 46 493 83 q 437 -8 453 9 q 332 -66 393 -52 q 315 -69 323 -68 l 311 -90 q 376 -186 372 -135 l 376 -196 q 340 -277 376 -242 q 232 -323 301 -317 q 198 -310 212 -323 q 184 -276 184 -296 q 198 -242 184 -256 q 232 -228 212 -228 q 277 -221 266 -225 q 287 -212 287 -218 q 286 -210 287 -211 q 271 -191 283 -202 q 232 -137 251 -172 q 219 -79 219 -113 q 220 -62 219 -71 z "},"":{"ha":569,"x_min":62,"x_max":517,"o":"m 401 421 q 351 450 380 450 l 345 450 q 281 425 312 447 q 235 374 250 402 q 216 303 220 340 q 293 313 243 304 q 380 346 343 322 q 408 391 408 363 q 404 412 408 401 l 401 421 m 218 208 q 217 189 217 199 q 222 134 217 163 q 250 62 230 94 q 307 24 270 31 q 320 24 313 24 q 386 50 358 24 q 437 119 418 81 q 447 140 443 130 q 462 169 453 157 q 479 177 468 177 q 488 176 484 177 q 515 147 510 170 q 517 127 517 138 q 513 99 517 113 q 499 56 507 73 q 387 -53 458 -22 q 294 -73 342 -73 q 235 -65 265 -73 q 116 23 156 -42 q 66 170 75 87 q 62 239 62 205 q 69 329 62 285 q 163 505 90 450 q 302 547 220 547 q 349 544 325 547 q 456 496 411 536 q 498 390 498 458 l 498 384 q 476 314 496 344 q 426 263 457 284 q 325 222 380 235 q 218 208 270 210 m 345 707 q 361 679 359 695 l 361 677 q 349 649 361 662 q 315 635 334 636 l 312 635 q 281 646 295 635 l 262 659 q 222 690 245 673 q 180 722 199 708 l 163 735 q 147 763 148 747 l 147 766 q 159 793 147 781 q 199 814 180 813 q 247 796 228 814 l 345 707 z "},"":{"ha":569,"x_min":62,"x_max":517,"o":"m 401 421 q 351 450 380 450 l 345 450 q 281 425 312 447 q 235 374 250 402 q 216 303 220 340 q 293 313 243 304 q 380 346 343 322 q 408 391 408 363 q 404 412 408 401 l 401 421 m 218 208 q 217 189 217 199 q 222 134 217 163 q 250 62 230 94 q 307 24 270 31 q 320 24 313 24 q 386 50 358 24 q 437 119 418 81 q 447 140 443 130 q 462 169 453 157 q 479 177 468 177 q 488 176 484 177 q 515 147 510 170 q 517 127 517 138 q 513 99 517 113 q 499 56 507 73 q 387 -53 458 -22 q 294 -73 342 -73 q 235 -65 265 -73 q 116 23 156 -42 q 66 170 75 87 q 62 239 62 205 q 69 329 62 285 q 163 505 90 450 q 302 547 220 547 q 349 544 325 547 q 456 496 411 536 q 498 390 498 458 l 498 384 q 476 314 496 344 q 426 263 457 284 q 325 222 380 235 q 218 208 270 210 m 235 707 l 332 796 q 380 814 351 814 q 420 793 399 813 q 432 766 432 781 l 432 763 q 416 735 431 747 l 399 722 q 357 690 380 708 q 317 659 334 673 l 298 646 q 267 635 284 635 l 264 635 q 231 649 245 636 q 218 677 218 662 l 218 679 q 235 707 220 695 z "},"":{"ha":569,"x_min":62,"x_max":517,"o":"m 401 421 q 351 450 380 450 l 345 450 q 281 425 312 447 q 235 374 250 402 q 216 303 220 340 q 293 313 243 304 q 380 346 343 322 q 408 391 408 363 q 404 412 408 401 l 401 421 m 218 208 q 217 189 217 199 q 222 134 217 163 q 250 62 230 94 q 307 24 270 31 q 320 24 313 24 q 386 50 358 24 q 437 119 418 81 q 447 140 443 130 q 462 169 453 157 q 479 177 468 177 q 488 176 484 177 q 515 147 510 170 q 517 127 517 138 q 513 99 517 113 q 499 56 507 73 q 387 -53 458 -22 q 294 -73 342 -73 q 235 -65 265 -73 q 116 23 156 -42 q 66 170 75 87 q 62 239 62 205 q 69 329 62 285 q 163 505 90 450 q 302 547 220 547 q 349 544 325 547 q 456 496 411 536 q 498 390 498 458 l 498 384 q 476 314 496 344 q 426 263 457 284 q 325 222 380 235 q 218 208 270 210 m 183 695 q 191 705 187 701 q 264 793 238 770 q 290 804 277 804 q 315 793 302 804 q 389 705 341 770 q 396 695 392 701 q 404 674 404 685 q 402 665 404 670 q 380 641 397 650 q 362 634 368 634 q 351 635 357 634 q 320 652 332 639 l 290 686 l 258 652 q 228 635 246 639 q 216 634 222 634 q 199 641 210 634 q 177 665 182 650 q 176 674 176 670 q 183 695 176 685 z "},"":{"ha":569,"x_min":62,"x_max":517,"o":"m 401 421 q 351 450 380 450 l 345 450 q 281 425 312 447 q 235 374 250 402 q 216 303 220 340 q 293 313 243 304 q 380 346 343 322 q 408 391 408 363 q 404 412 408 401 l 401 421 m 218 208 q 217 189 217 199 q 222 134 217 163 q 250 62 230 94 q 307 24 270 31 q 320 24 313 24 q 386 50 358 24 q 437 119 418 81 q 447 140 443 130 q 462 169 453 157 q 479 177 468 177 q 488 176 484 177 q 515 147 510 170 q 517 127 517 138 q 513 99 517 113 q 499 56 507 73 q 387 -53 458 -22 q 294 -73 342 -73 q 235 -65 265 -73 q 116 23 156 -42 q 66 170 75 87 q 62 239 62 205 q 69 329 62 285 q 163 505 90 450 q 302 547 220 547 q 349 544 325 547 q 456 496 411 536 q 498 390 498 458 l 498 384 q 476 314 496 344 q 426 263 457 284 q 325 222 380 235 q 218 208 270 210 m 162 703 q 210 741 179 741 l 214 741 q 266 708 248 736 q 273 686 273 697 q 255 648 273 667 q 213 629 234 629 q 189 635 201 629 q 161 687 161 648 q 162 703 161 694 m 412 661 q 365 629 391 629 q 355 631 360 629 q 310 667 322 638 q 306 684 306 675 q 329 727 306 705 q 363 739 345 739 q 376 738 369 739 q 412 710 399 731 q 418 686 418 699 q 412 661 418 674 z "},"":{"ha":351,"x_min":45,"x_max":298,"o":"m 84 274 q 76 425 77 349 l 76 438 q 92 511 76 481 q 155 541 108 541 q 170 541 162 541 q 232 510 214 534 q 252 450 250 485 q 252 424 252 437 q 250 379 252 401 q 248 338 248 357 q 248 248 248 293 q 259 104 248 182 q 293 5 270 27 l 298 -14 l 298 -24 q 263 -60 290 -60 l 244 -60 q 126 47 163 -52 q 84 274 90 147 m 242 707 q 258 679 257 695 l 258 677 q 246 649 258 662 q 213 635 232 636 l 210 635 q 178 646 193 635 l 160 659 q 119 690 142 673 q 78 722 96 708 l 60 735 q 45 763 45 747 l 45 766 q 57 793 45 781 q 96 814 77 813 q 144 796 125 814 l 242 707 z "},"":{"ha":351,"x_min":76,"x_max":330,"o":"m 84 274 q 76 425 77 349 l 76 438 q 92 511 76 481 q 155 541 108 541 q 170 541 162 541 q 232 510 214 534 q 252 450 250 485 q 252 424 252 437 q 250 379 252 401 q 248 338 248 357 q 248 248 248 293 q 259 104 248 182 q 293 5 270 27 l 298 -14 l 298 -24 q 263 -60 290 -60 l 244 -60 q 126 47 163 -52 q 84 274 90 147 m 132 707 l 230 796 q 278 814 249 814 q 317 793 297 813 q 330 766 330 781 l 330 763 q 314 735 329 747 l 296 722 q 255 690 278 708 q 214 659 232 673 l 196 646 q 165 635 182 635 l 161 635 q 128 649 142 636 q 116 677 116 662 l 116 679 q 132 707 117 695 z "},"":{"ha":351,"x_min":73,"x_max":301,"o":"m 84 274 q 76 425 77 349 l 76 438 q 92 511 76 481 q 155 541 108 541 q 170 541 162 541 q 232 510 214 534 q 252 450 250 485 q 252 424 252 437 q 250 379 252 401 q 248 338 248 357 q 248 248 248 293 q 259 104 248 182 q 293 5 270 27 l 298 -14 l 298 -24 q 263 -60 290 -60 l 244 -60 q 126 47 163 -52 q 84 274 90 147 m 81 695 q 88 705 85 701 q 161 793 136 770 q 187 804 174 804 q 213 793 200 804 q 286 705 239 770 q 294 695 290 701 q 301 674 301 685 q 300 665 301 670 q 278 641 295 650 q 260 634 266 634 q 249 635 254 634 q 218 652 230 639 l 187 686 l 156 652 q 125 635 144 639 q 114 634 119 634 q 96 641 108 634 q 75 665 79 650 q 73 674 73 670 q 81 695 73 685 z "},"":{"ha":351,"x_min":59,"x_max":315,"o":"m 84 274 q 76 425 77 349 l 76 438 q 92 511 76 481 q 155 541 108 541 q 170 541 162 541 q 232 510 214 534 q 252 450 250 485 q 252 424 252 437 q 250 379 252 401 q 248 338 248 357 q 248 248 248 293 q 259 104 248 182 q 293 5 270 27 l 298 -14 l 298 -24 q 263 -60 290 -60 l 244 -60 q 126 47 163 -52 q 84 274 90 147 m 60 703 q 107 741 77 741 l 112 741 q 163 708 146 736 q 171 686 171 697 q 153 648 171 667 q 111 629 132 629 q 87 635 98 629 q 59 687 59 648 q 60 703 59 694 m 310 661 q 262 629 289 629 q 252 631 258 629 q 208 667 220 638 q 203 684 203 675 q 227 727 203 705 q 260 739 243 739 q 273 738 267 739 q 309 710 297 731 q 315 686 315 699 q 310 661 315 674 z "},"":{"ha":692,"x_min":100,"x_max":648,"o":"m 202 296 q 197 228 197 267 q 197 198 197 214 q 220 90 199 139 q 290 31 241 41 q 300 30 295 30 q 372 66 340 30 q 431 161 408 106 q 462 254 454 216 q 471 319 467 278 q 475 385 475 353 l 475 401 q 462 461 475 441 q 411 484 444 483 l 404 484 q 345 475 374 484 q 291 451 311 465 q 232 383 252 423 q 202 296 211 342 m 390 948 q 491 993 462 993 q 534 947 534 991 q 460 876 534 914 q 543 757 507 821 q 600 637 582 685 q 648 363 648 503 q 647 338 648 351 q 560 50 642 186 q 440 -57 512 -25 q 342 -77 395 -77 q 279 -71 312 -77 q 158 11 200 -51 q 104 153 115 72 q 100 216 100 185 q 111 316 100 267 q 165 456 127 397 q 257 545 210 519 q 346 575 304 570 q 394 578 374 578 q 413 577 404 578 q 427 576 421 576 q 439 578 436 576 q 441 585 441 581 q 436 606 441 593 q 415 656 428 628 q 390 708 402 684 q 372 739 378 732 q 318 814 348 779 q 250 784 293 802 q 155 762 201 762 q 125 799 125 764 q 176 857 125 828 q 246 892 200 871 q 225 913 236 903 q 187 960 205 932 q 171 1005 171 983 l 176 1014 q 214 1026 189 1022 q 240 1027 229 1027 q 336 991 288 1027 q 390 948 363 972 z "},"":{"ha":681,"x_min":77,"x_max":629,"o":"m 346 511 q 468 545 418 545 q 500 541 486 545 q 586 464 557 526 q 621 311 614 402 q 629 120 629 216 q 627 19 629 69 q 606 -35 625 -10 q 566 -54 591 -54 q 549 -52 558 -54 q 513 -12 517 -41 q 513 5 513 -3 q 517 45 513 25 q 519 62 518 54 q 526 157 523 94 q 527 214 527 185 q 525 287 527 250 q 504 404 521 355 q 450 457 486 452 l 444 457 q 351 397 409 457 l 340 385 q 273 264 295 332 q 251 132 251 199 l 251 127 q 252 101 251 115 q 252 75 252 88 q 250 23 252 49 q 224 -40 246 -16 q 172 -58 208 -58 q 151 -57 162 -58 q 83 -9 93 -47 q 77 42 77 14 q 79 77 77 58 l 80 108 q 81 215 81 162 q 80 321 81 269 q 79 437 79 378 q 111 525 79 496 q 168 545 132 545 q 202 541 184 545 q 245 508 239 532 q 251 469 251 490 q 250 453 251 461 q 250 436 250 445 q 251 431 250 431 l 252 431 q 255 433 253 431 q 260 440 258 436 l 269 451 q 298 479 282 466 l 299 480 q 346 511 321 498 m 253 744 q 315 777 290 777 l 320 777 q 386 739 347 774 q 417 758 399 758 l 419 758 q 452 745 437 758 q 466 711 466 730 q 453 677 466 689 q 390 645 415 645 l 385 646 q 321 684 359 650 q 288 663 307 663 l 286 663 q 254 675 269 663 q 239 709 239 690 l 239 711 q 253 744 239 729 z "},"":{"ha":702,"x_min":53,"x_max":650,"o":"m 381 24 q 502 87 458 28 q 550 220 546 147 l 551 235 q 534 336 551 288 q 471 422 514 391 q 397 444 440 444 q 358 439 378 444 q 245 359 277 420 q 220 260 220 315 q 224 220 220 241 q 272 94 233 153 q 381 24 310 34 m 207 511 q 357 537 273 537 q 387 536 372 537 q 554 477 487 532 q 643 309 625 408 q 650 239 650 274 q 629 119 650 178 q 508 -28 595 26 q 374 -73 444 -63 q 334 -75 354 -75 q 233 -58 283 -75 q 107 47 153 -29 q 54 216 61 123 q 53 245 53 231 q 84 391 53 322 q 207 511 121 471 m 406 707 q 422 679 421 695 l 422 677 q 410 649 422 662 q 377 635 396 636 l 374 635 q 342 646 357 635 l 324 659 q 283 690 307 673 q 242 722 260 708 l 224 735 q 209 763 210 747 l 209 766 q 221 793 209 781 q 260 814 241 813 q 309 796 290 814 l 406 707 z "},"":{"ha":702,"x_min":53,"x_max":650,"o":"m 381 24 q 502 87 458 28 q 550 220 546 147 l 551 235 q 534 336 551 288 q 471 422 514 391 q 397 444 440 444 q 358 439 378 444 q 245 359 277 420 q 220 260 220 315 q 224 220 220 241 q 272 94 233 153 q 381 24 310 34 m 207 511 q 357 537 273 537 q 387 536 372 537 q 554 477 487 532 q 643 309 625 408 q 650 239 650 274 q 629 119 650 178 q 508 -28 595 26 q 374 -73 444 -63 q 334 -75 354 -75 q 233 -58 283 -75 q 107 47 153 -29 q 54 216 61 123 q 53 245 53 231 q 84 391 53 322 q 207 511 121 471 m 296 707 l 394 796 q 442 814 413 814 q 481 793 461 813 q 494 766 494 781 l 494 763 q 478 735 493 747 l 460 722 q 419 690 442 708 q 378 659 396 673 l 360 646 q 329 635 346 635 l 326 635 q 292 649 307 636 q 280 677 280 662 l 280 679 q 296 707 281 695 z "},"":{"ha":702,"x_min":53,"x_max":650,"o":"m 381 24 q 502 87 458 28 q 550 220 546 147 l 551 235 q 534 336 551 288 q 471 422 514 391 q 397 444 440 444 q 358 439 378 444 q 245 359 277 420 q 220 260 220 315 q 224 220 220 241 q 272 94 233 153 q 381 24 310 34 m 207 511 q 357 537 273 537 q 387 536 372 537 q 554 477 487 532 q 643 309 625 408 q 650 239 650 274 q 629 119 650 178 q 508 -28 595 26 q 374 -73 444 -63 q 334 -75 354 -75 q 233 -58 283 -75 q 107 47 153 -29 q 54 216 61 123 q 53 245 53 231 q 84 391 53 322 q 207 511 121 471 m 245 695 q 252 705 249 701 q 326 793 300 770 q 351 804 338 804 q 377 793 364 804 q 450 705 403 770 q 458 695 454 701 q 465 674 465 685 q 464 665 465 670 q 442 641 459 650 q 424 634 430 634 q 413 635 418 634 q 382 652 394 639 l 351 686 l 320 652 q 290 635 308 639 q 278 634 283 634 q 260 641 272 634 q 239 665 243 650 q 237 674 237 670 q 245 695 237 685 z "},"":{"ha":702,"x_min":53,"x_max":650,"o":"m 381 24 q 502 87 458 28 q 550 220 546 147 l 551 235 q 534 336 551 288 q 471 422 514 391 q 397 444 440 444 q 358 439 378 444 q 245 359 277 420 q 220 260 220 315 q 224 220 220 241 q 272 94 233 153 q 381 24 310 34 m 207 511 q 357 537 273 537 q 387 536 372 537 q 554 477 487 532 q 643 309 625 408 q 650 239 650 274 q 629 119 650 178 q 508 -28 595 26 q 374 -73 444 -63 q 334 -75 354 -75 q 233 -58 283 -75 q 107 47 153 -29 q 54 216 61 123 q 53 245 53 231 q 84 391 53 322 q 207 511 121 471 m 252 744 q 314 777 288 777 l 319 777 q 385 739 345 774 q 416 758 398 758 l 418 758 q 450 745 436 758 q 465 711 465 730 q 452 677 465 689 q 389 645 414 645 l 384 646 q 320 684 357 650 q 286 663 305 663 l 284 663 q 253 675 267 663 q 238 709 238 690 l 238 711 q 252 744 238 729 z "},"":{"ha":702,"x_min":53,"x_max":650,"o":"m 381 24 q 502 87 458 28 q 550 220 546 147 l 551 235 q 534 336 551 288 q 471 422 514 391 q 397 444 440 444 q 358 439 378 444 q 245 359 277 420 q 220 260 220 315 q 224 220 220 241 q 272 94 233 153 q 381 24 310 34 m 207 511 q 357 537 273 537 q 387 536 372 537 q 554 477 487 532 q 643 309 625 408 q 650 239 650 274 q 629 119 650 178 q 508 -28 595 26 q 374 -73 444 -63 q 334 -75 354 -75 q 233 -58 283 -75 q 107 47 153 -29 q 54 216 61 123 q 53 245 53 231 q 84 391 53 322 q 207 511 121 471 m 224 703 q 271 741 241 741 l 276 741 q 328 708 310 736 q 335 686 335 697 q 317 648 335 667 q 275 629 296 629 q 251 635 262 629 q 223 687 223 648 q 224 703 223 694 m 474 661 q 427 629 453 629 q 416 631 422 629 q 372 667 384 638 q 368 684 368 675 q 391 727 368 705 q 425 739 407 739 q 437 738 431 739 q 473 710 461 731 q 479 686 479 699 q 474 661 479 674 z "},"":{"ha":506,"x_min":12,"x_max":504,"o":"m 437 528 l 443 528 q 486 516 467 528 q 504 480 504 505 q 503 471 504 476 q 467 432 497 437 q 429 428 448 428 q 406 429 418 428 q 386 430 395 430 q 263 431 325 431 q 100 429 182 431 q 90 429 95 429 q 41 437 66 429 q 12 481 12 446 q 57 524 18 518 q 106 528 82 528 q 136 527 121 528 q 157 526 148 526 l 227 526 q 437 528 332 526 m 282 182 q 250 177 267 177 q 221 181 236 177 q 178 221 193 191 q 159 284 162 251 q 159 296 159 290 q 168 338 159 321 q 222 368 183 361 q 248 370 235 370 q 302 361 275 370 q 355 311 341 349 q 358 283 358 296 q 345 233 358 256 q 282 182 324 198 m 281 591 q 250 587 266 587 q 220 591 235 587 q 177 631 193 601 q 159 694 161 661 q 158 706 158 700 q 167 748 158 731 q 222 778 182 771 q 248 780 235 780 q 302 771 275 780 q 354 721 340 758 q 357 692 357 706 q 345 644 357 667 q 281 591 323 608 z "},"":{"ha":702,"x_min":53,"x_max":650,"o":"m 269 -68 q 233 -58 252 -64 q 107 47 153 -29 q 54 216 61 123 q 53 245 53 231 q 84 391 53 322 q 207 511 121 471 q 357 537 273 537 q 387 536 372 537 q 400 536 393 536 q 423 645 412 590 q 426 661 425 652 q 438 718 430 686 q 464 768 447 749 q 490 781 475 781 q 510 776 499 781 q 534 741 531 766 q 536 722 536 732 q 532 686 536 705 q 519 630 526 655 q 513 607 515 616 q 510 593 511 600 l 492 514 q 554 477 526 500 q 643 309 625 408 q 650 239 650 274 q 629 119 650 178 q 508 -28 595 26 q 374 -73 444 -63 l 366 -74 q 328 -250 347 -161 q 309 -301 323 -277 q 276 -319 298 -319 q 261 -317 269 -319 q 228 -269 228 -304 l 228 -267 q 241 -194 230 -229 q 245 -174 243 -182 q 258 -117 252 -146 l 269 -68 m 472 421 q 386 24 429 222 q 502 87 459 30 q 550 220 546 147 l 551 235 q 534 336 551 288 q 472 421 514 391 m 298 62 q 381 443 340 252 q 358 439 370 441 q 245 359 277 420 q 220 260 220 315 q 224 220 220 241 q 272 94 233 153 q 298 62 283 75 z "},"":{"ha":656,"x_min":57,"x_max":604,"o":"m 189 283 q 217 105 198 147 q 289 34 244 45 q 296 33 292 33 q 334 50 316 33 q 371 94 355 68 q 395 138 387 119 q 445 366 435 248 q 446 404 446 381 q 451 477 446 439 q 475 537 456 514 q 516 553 489 553 q 538 551 526 553 q 585 515 571 543 q 602 451 600 487 q 604 395 604 422 l 604 382 q 603 359 603 370 l 603 309 q 602 207 603 258 q 602 167 602 186 l 602 146 l 602 123 q 599 44 602 86 q 574 -39 594 -12 q 534 -57 554 -57 q 521 -55 528 -57 q 477 -19 495 -46 q 452 38 458 9 q 450 56 450 50 q 449 60 450 60 q 446 55 448 60 q 427 28 441 47 q 347 -49 393 -21 q 288 -64 319 -64 q 238 -56 264 -64 q 151 24 184 -35 q 100 152 117 83 q 76 275 83 222 q 66 349 72 298 q 58 448 60 399 q 57 472 57 461 q 62 517 57 503 q 102 547 77 547 l 103 547 q 122 551 111 549 q 190 453 190 551 l 190 382 q 189 283 190 344 m 385 707 q 401 679 400 695 l 401 677 q 389 649 401 662 q 356 635 375 636 l 353 635 q 321 646 336 635 l 303 659 q 262 690 286 673 q 221 722 239 708 l 203 735 q 188 763 189 747 l 188 766 q 200 793 188 781 q 239 814 220 813 q 288 796 269 814 l 385 707 z "},"":{"ha":656,"x_min":57,"x_max":604,"o":"m 189 283 q 217 105 198 147 q 289 34 244 45 q 296 33 292 33 q 334 50 316 33 q 371 94 355 68 q 395 138 387 119 q 445 366 435 248 q 446 404 446 381 q 451 477 446 439 q 475 537 456 514 q 516 553 489 553 q 538 551 526 553 q 585 515 571 543 q 602 451 600 487 q 604 395 604 422 l 604 382 q 603 359 603 370 l 603 309 q 602 207 603 258 q 602 167 602 186 l 602 146 l 602 123 q 599 44 602 86 q 574 -39 594 -12 q 534 -57 554 -57 q 521 -55 528 -57 q 477 -19 495 -46 q 452 38 458 9 q 450 56 450 50 q 449 60 450 60 q 446 55 448 60 q 427 28 441 47 q 347 -49 393 -21 q 288 -64 319 -64 q 238 -56 264 -64 q 151 24 184 -35 q 100 152 117 83 q 76 275 83 222 q 66 349 72 298 q 58 448 60 399 q 57 472 57 461 q 62 517 57 503 q 102 547 77 547 l 103 547 q 122 551 111 549 q 190 453 190 551 l 190 382 q 189 283 190 344 m 275 707 l 373 796 q 421 814 392 814 q 460 793 440 813 q 473 766 473 781 l 473 763 q 457 735 472 747 l 439 722 q 398 690 421 708 q 357 659 375 673 l 339 646 q 308 635 325 635 l 304 635 q 271 649 286 636 q 259 677 259 662 l 259 679 q 275 707 260 695 z "},"":{"ha":656,"x_min":57,"x_max":604,"o":"m 189 283 q 217 105 198 147 q 289 34 244 45 q 296 33 292 33 q 334 50 316 33 q 371 94 355 68 q 395 138 387 119 q 445 366 435 248 q 446 404 446 381 q 451 477 446 439 q 475 537 456 514 q 516 553 489 553 q 538 551 526 553 q 585 515 571 543 q 602 451 600 487 q 604 395 604 422 l 604 382 q 603 359 603 370 l 603 309 q 602 207 603 258 q 602 167 602 186 l 602 146 l 602 123 q 599 44 602 86 q 574 -39 594 -12 q 534 -57 554 -57 q 521 -55 528 -57 q 477 -19 495 -46 q 452 38 458 9 q 450 56 450 50 q 449 60 450 60 q 446 55 448 60 q 427 28 441 47 q 347 -49 393 -21 q 288 -64 319 -64 q 238 -56 264 -64 q 151 24 184 -35 q 100 152 117 83 q 76 275 83 222 q 66 349 72 298 q 58 448 60 399 q 57 472 57 461 q 62 517 57 503 q 102 547 77 547 l 103 547 q 122 551 111 549 q 190 453 190 551 l 190 382 q 189 283 190 344 m 224 695 q 231 705 228 701 q 304 793 279 770 q 330 804 317 804 q 356 793 343 804 q 429 705 382 770 q 437 695 433 701 q 444 674 444 685 q 443 665 444 670 q 421 641 438 650 q 403 634 409 634 q 392 635 397 634 q 361 652 373 639 l 330 686 l 299 652 q 269 635 287 639 q 257 634 262 634 q 239 641 251 634 q 218 665 222 650 q 216 674 216 670 q 224 695 216 685 z "},"":{"ha":656,"x_min":57,"x_max":604,"o":"m 189 283 q 217 105 198 147 q 289 34 244 45 q 296 33 292 33 q 334 50 316 33 q 371 94 355 68 q 395 138 387 119 q 445 366 435 248 q 446 404 446 381 q 451 477 446 439 q 475 537 456 514 q 516 553 489 553 q 538 551 526 553 q 585 515 571 543 q 602 451 600 487 q 604 395 604 422 l 604 382 q 603 359 603 370 l 603 309 q 602 207 603 258 q 602 167 602 186 l 602 146 l 602 123 q 599 44 602 86 q 574 -39 594 -12 q 534 -57 554 -57 q 521 -55 528 -57 q 477 -19 495 -46 q 452 38 458 9 q 450 56 450 50 q 449 60 450 60 q 446 55 448 60 q 427 28 441 47 q 347 -49 393 -21 q 288 -64 319 -64 q 238 -56 264 -64 q 151 24 184 -35 q 100 152 117 83 q 76 275 83 222 q 66 349 72 298 q 58 448 60 399 q 57 472 57 461 q 62 517 57 503 q 102 547 77 547 l 103 547 q 122 551 111 549 q 190 453 190 551 l 190 382 q 189 283 190 344 m 203 703 q 250 741 220 741 l 255 741 q 307 708 289 736 q 314 686 314 697 q 296 648 314 667 q 254 629 275 629 q 230 635 241 629 q 202 687 202 648 q 203 703 202 694 m 453 661 q 406 629 432 629 q 395 631 401 629 q 351 667 363 638 q 347 684 347 675 q 370 727 347 705 q 404 739 386 739 q 416 738 410 739 q 452 710 440 731 q 458 686 458 699 q 453 661 458 674 z "},"":{"ha":683,"x_min":62,"x_max":616,"o":"m 180 -456 q 130 -404 152 -433 q 92 -343 113 -383 q 63 -264 70 -303 q 62 -249 62 -256 q 84 -205 62 -221 q 106 -199 96 -199 q 133 -212 121 -199 q 161 -257 153 -232 q 172 -286 167 -271 q 197 -347 181 -319 q 248 -393 212 -375 q 294 -404 273 -404 q 335 -390 317 -404 q 389 -312 368 -363 q 439 -146 430 -220 q 446 -16 446 -88 q 445 21 446 2 l 445 50 q 330 -55 399 -25 q 279 -66 305 -66 q 182 -31 233 -66 q 102 104 117 26 q 90 243 90 172 l 90 264 q 90 324 90 294 l 90 328 q 89 365 89 345 q 90 407 89 385 q 109 487 92 452 q 168 530 126 523 l 174 530 q 220 502 210 530 q 228 459 228 481 q 226 437 228 448 q 214 370 222 408 q 195 259 203 317 q 190 179 190 218 q 191 147 190 163 q 218 61 193 94 l 231 46 q 271 28 252 28 q 287 31 279 28 q 335 68 313 41 q 368 120 356 95 q 440 406 433 256 q 445 469 440 439 q 470 516 450 498 q 514 530 485 530 q 532 528 522 530 q 595 496 577 522 q 616 433 614 469 q 616 401 616 417 q 615 358 616 380 q 613 317 614 337 q 614 190 613 259 q 616 75 616 134 q 614 -45 616 16 q 530 -366 611 -236 q 342 -498 450 -495 q 180 -456 230 -496 m 284 707 l 382 796 q 430 814 401 814 q 469 793 449 813 q 481 766 481 781 l 481 763 q 466 735 481 747 l 448 722 q 407 690 430 708 q 366 659 384 673 l 348 646 q 317 635 334 635 l 313 635 q 280 649 294 636 q 268 677 268 662 l 268 679 q 284 707 269 695 z "},"":{"ha":678,"x_min":81,"x_max":626,"o":"m 253 165 l 253 94 q 252 78 253 83 l 252 71 q 255 66 252 68 q 263 60 258 64 q 264 60 264 60 q 363 28 319 28 q 401 35 384 28 q 490 119 458 57 q 529 256 522 182 q 531 294 531 275 q 517 386 531 345 q 467 444 497 438 q 454 446 460 446 q 404 429 429 446 q 342 378 371 408 q 286 284 303 332 q 257 182 268 237 l 253 165 m 253 421 q 296 467 274 448 q 349 503 318 486 q 463 537 404 532 q 473 538 469 538 q 570 494 526 538 q 625 355 618 438 q 626 316 626 336 q 610 189 626 252 q 550 47 588 105 q 363 -67 474 -67 q 253 -42 312 -67 q 252 -196 252 -119 q 253 -349 252 -273 q 254 -386 254 -366 q 256 -432 256 -409 q 256 -460 256 -446 q 238 -526 254 -498 q 182 -563 222 -555 q 154 -566 166 -566 q 97 -537 111 -566 q 81 -460 81 -506 q 82 -445 81 -452 q 83 -14 83 -229 l 88 711 q 87 892 88 802 q 86 911 86 901 q 98 986 86 950 q 171 1034 112 1031 q 253 421 251 1028 z "},"":{"ha":683,"x_min":62,"x_max":616,"o":"m 180 -456 q 130 -404 152 -433 q 92 -343 113 -383 q 63 -264 70 -303 q 62 -249 62 -256 q 84 -205 62 -221 q 106 -199 96 -199 q 133 -212 121 -199 q 161 -257 153 -232 q 172 -286 167 -271 q 197 -347 181 -319 q 248 -393 212 -375 q 294 -404 273 -404 q 335 -390 317 -404 q 389 -312 368 -363 q 439 -146 430 -220 q 446 -16 446 -88 q 445 21 446 2 l 445 50 q 330 -55 399 -25 q 279 -66 305 -66 q 182 -31 233 -66 q 102 104 117 26 q 90 243 90 172 l 90 264 q 90 324 90 294 l 90 328 q 89 365 89 345 q 90 407 89 385 q 109 487 92 452 q 168 530 126 523 l 174 530 q 220 502 210 530 q 228 459 228 481 q 226 437 228 448 q 214 370 222 408 q 195 259 203 317 q 190 179 190 218 q 191 147 190 163 q 218 61 193 94 l 231 46 q 271 28 252 28 q 287 31 279 28 q 335 68 313 41 q 368 120 356 95 q 440 406 433 256 q 445 469 440 439 q 470 516 450 498 q 514 530 485 530 q 532 528 522 530 q 595 496 577 522 q 616 433 614 469 q 616 401 616 417 q 615 358 616 380 q 613 317 614 337 q 614 190 613 259 q 616 75 616 134 q 614 -45 616 16 q 530 -366 611 -236 q 342 -498 450 -495 q 180 -456 230 -496 m 212 703 q 259 741 229 741 l 264 741 q 315 708 298 736 q 323 686 323 697 q 304 648 323 667 q 262 629 283 629 q 239 635 250 629 q 211 687 211 648 q 212 703 211 694 m 462 661 q 414 629 441 629 q 404 631 410 629 q 359 667 372 638 q 355 684 355 675 q 378 727 355 705 q 412 739 395 739 q 425 738 418 739 q 461 710 449 731 q 467 686 467 699 q 462 661 467 674 z "},"":{"ha":351,"x_min":76,"x_max":298,"o":"m 84 274 q 76 425 77 349 l 76 438 q 92 511 76 481 q 155 541 108 541 q 170 541 162 541 q 232 510 214 534 q 252 450 250 485 q 252 424 252 437 q 250 379 252 401 q 248 338 248 357 q 248 248 248 293 q 259 104 248 182 q 293 5 270 27 l 298 -14 l 298 -24 q 263 -60 290 -60 l 244 -60 q 126 47 163 -52 q 84 274 90 147 z "},"":{"ha":323,"x_min":47,"x_max":275,"o":"m 55 695 q 62 705 59 701 q 136 793 110 770 q 161 804 149 804 q 187 793 174 804 q 260 705 213 770 q 268 695 264 701 q 275 674 275 685 q 274 665 275 670 q 252 641 269 650 q 234 634 240 634 q 223 635 229 634 q 192 652 204 639 l 161 686 l 130 652 q 100 635 118 639 q 88 634 94 634 q 71 641 82 634 q 49 665 54 650 q 47 674 47 670 q 55 695 47 685 z "},"":{"ha":323,"x_min":47,"x_max":275,"o":"m 55 743 q 47 764 47 753 q 49 772 47 768 q 71 797 54 788 q 88 804 82 804 q 100 802 94 804 q 130 785 118 799 l 161 751 l 192 785 q 223 802 204 799 q 234 804 229 804 q 252 797 240 804 q 274 772 269 788 q 275 764 275 768 q 268 743 275 753 q 260 732 264 737 q 187 645 213 667 q 161 634 174 634 q 136 645 149 634 q 62 732 110 667 q 55 743 59 737 z "},"":{"ha":322,"x_min":47,"x_max":275,"o":"m 96 755 l 227 755 q 261 741 247 755 q 275 707 275 727 q 261 673 275 688 q 227 659 247 659 l 96 659 q 62 673 76 659 q 47 707 47 688 q 62 741 47 727 q 96 755 76 755 z "},"":{"ha":322,"x_min":47,"x_max":275,"o":"m 47 742 q 61 766 47 756 q 95 776 75 776 q 129 766 115 776 q 143 742 143 756 q 150 722 144 732 q 167 704 155 711 q 176 722 174 711 q 178 741 178 732 l 178 742 q 192 766 178 756 q 227 776 206 776 q 260 766 246 776 q 275 742 275 756 q 236 659 269 684 q 170 635 207 635 l 162 635 q 87 666 121 638 q 47 742 54 694 z "},"":{"ha":237,"x_min":47,"x_max":189,"o":"m 113 775 l 117 775 q 125 774 121 775 q 180 741 163 766 q 189 708 189 726 q 184 680 189 694 q 139 631 165 636 q 127 629 133 629 q 88 644 107 629 q 53 692 64 663 q 47 718 47 705 q 54 745 47 732 q 113 775 66 769 z "},"":{"ha":341,"x_min":47,"x_max":294,"o":"m 169 734 q 136 721 139 732 q 136 717 136 719 q 146 698 136 708 q 174 680 158 686 q 186 677 181 677 q 198 682 193 677 q 201 692 201 685 q 195 719 201 701 q 185 730 191 726 q 169 734 180 733 m 161 809 q 169 810 165 810 q 183 808 176 810 q 278 758 250 797 q 294 711 294 736 q 285 669 294 691 q 207 597 253 605 q 186 595 197 595 q 119 616 151 595 q 57 686 77 644 q 47 726 47 707 q 58 764 47 746 q 161 809 80 800 z "},"":{"ha":290,"x_min":47,"x_max":242,"o":"m 194 -281 q 66 -229 96 -274 q 47 -168 47 -202 q 56 -119 47 -145 q 124 11 75 -55 q 157 28 138 26 l 160 28 q 192 16 177 28 q 209 -16 207 3 l 209 -20 q 197 -51 209 -37 q 192 -58 195 -54 q 153 -115 170 -87 q 141 -152 141 -136 q 142 -163 141 -157 q 194 -186 149 -182 q 228 -200 214 -186 q 242 -234 242 -214 q 228 -268 242 -254 q 194 -281 214 -281 z "},"":{"ha":321,"x_min":47,"x_max":274,"o":"m 61 744 q 123 777 98 777 l 128 777 q 194 739 155 774 q 225 758 208 758 l 227 758 q 260 745 245 758 q 274 711 274 730 q 261 677 274 689 q 198 645 223 645 l 193 646 q 130 684 167 650 q 96 663 115 663 l 94 663 q 62 675 77 663 q 47 709 47 690 l 47 711 q 61 744 47 729 z "},"":{"ha":694,"x_min":-5,"x_max":336,"o":"m 3 682 l 71 795 q 113 826 84 817 q 123 827 117 827 q 156 818 138 827 q 176 795 171 810 l 176 793 q 178 784 178 788 q 170 762 178 772 l 156 743 q 126 702 143 725 q 96 660 109 678 l 83 642 q 56 622 72 627 l 52 621 q 40 620 46 620 q 16 625 28 620 q -3 648 1 633 l -4 650 q -5 657 -5 654 q 3 682 -5 669 m 162 682 l 230 795 q 271 826 243 818 q 281 827 275 827 q 314 818 296 827 q 334 795 330 810 l 334 793 q 336 784 336 789 q 328 762 336 773 l 315 743 q 284 702 301 725 q 254 660 267 678 l 241 642 q 214 623 231 627 l 211 621 q 199 620 205 620 q 175 625 186 620 q 155 648 159 634 l 155 650 q 154 658 154 654 q 162 682 154 669 z "},"":{"ha":913,"x_min":38,"x_max":655,"o":"m 272 220 q 88 219 180 220 l 86 219 q 51 232 66 219 q 38 266 38 243 q 39 275 38 270 q 66 313 44 307 q 99 317 83 317 q 113 317 106 317 q 126 316 121 316 l 186 316 q 279 317 229 317 l 366 317 q 387 316 378 316 l 404 316 q 497 317 447 317 q 584 316 547 317 q 626 315 621 316 q 655 268 655 298 l 655 262 q 614 220 652 228 q 561 219 590 219 l 531 219 q 498 220 513 220 l 383 220 q 346 219 374 219 q 272 220 318 219 z "},"":{"ha":1389,"x_min":76,"x_max":1261,"o":"m 176 219 l 172 219 q 102 232 131 219 q 76 266 76 243 q 77 275 76 270 q 134 313 88 307 q 197 317 165 317 q 227 317 212 317 q 253 316 241 316 l 372 316 q 750 317 457 317 q 1117 316 1043 317 q 1202 315 1192 316 q 1261 268 1261 298 q 1260 262 1261 265 q 1179 220 1255 228 q 1072 218 1131 218 q 1012 219 1043 218 q 947 220 976 220 l 930 220 q 176 219 360 220 z "},"":{"ha":309,"x_min":43,"x_max":300,"o":"m 185 674 q 224 636 210 663 q 242 573 239 606 q 243 561 243 567 q 228 516 243 536 q 179 489 218 496 q 153 487 166 487 q 99 496 126 487 q 58 534 70 505 q 43 605 43 569 l 43 608 q 98 779 43 681 q 186 925 136 848 q 224 972 203 951 q 256 994 245 994 q 279 988 269 994 q 300 966 299 979 q 272 899 300 951 q 185 674 189 742 z "},"":{"ha":309,"x_min":2,"x_max":259,"o":"m 117 806 q 79 844 93 817 q 60 907 63 874 q 60 920 60 913 q 75 964 60 945 q 123 991 84 984 q 149 994 136 994 q 203 984 176 994 q 245 946 232 975 q 259 872 259 909 q 204 702 259 800 q 115 555 166 633 q 78 508 98 530 q 46 487 58 487 q 24 492 34 487 q 2 514 3 501 q 31 581 2 530 q 117 806 114 739 z "},"":{"ha":309,"x_min":1,"x_max":258,"o":"m 117 -53 q 78 -15 92 -42 q 60 48 62 15 q 59 60 59 54 q 74 105 59 85 q 123 132 83 125 q 149 134 136 134 q 203 125 176 134 q 244 87 232 116 q 258 16 258 52 l 258 13 q 204 -157 258 -60 q 115 -303 165 -227 q 78 -351 98 -329 q 45 -372 57 -372 q 23 -367 33 -372 q 1 -345 3 -358 q 30 -278 1 -330 q 117 -53 113 -121 z "},"":{"ha":572,"x_min":43,"x_max":564,"o":"m 185 674 q 224 636 210 663 q 242 573 239 606 q 243 561 243 567 q 228 516 243 536 q 179 489 218 496 q 153 487 166 487 q 99 496 126 487 q 58 534 70 505 q 43 605 43 569 l 43 608 q 98 779 43 681 q 186 925 136 848 q 224 972 203 951 q 256 994 245 994 q 279 988 269 994 q 300 966 299 979 q 272 899 300 951 q 185 674 189 742 m 449 674 q 487 636 473 663 q 505 573 503 606 q 506 561 506 567 q 491 516 506 536 q 442 489 481 496 q 416 487 429 487 q 362 496 389 487 q 321 534 333 505 q 307 608 307 570 q 361 779 307 681 q 450 924 399 848 q 488 972 467 950 q 519 994 508 994 q 542 988 532 994 q 564 966 562 979 q 535 899 564 951 q 449 674 452 742 z "},"":{"ha":574,"x_min":2,"x_max":525,"o":"m 117 806 q 79 844 93 817 q 60 907 63 874 q 60 920 60 913 q 75 964 60 945 q 123 991 84 984 q 149 994 136 994 q 203 984 176 994 q 245 946 233 975 q 259 876 259 911 l 259 872 q 205 702 259 800 q 115 555 166 633 q 78 508 98 530 q 46 487 58 487 q 24 492 34 487 q 2 514 3 501 q 31 581 2 530 q 117 806 114 739 m 383 806 q 345 844 359 817 q 326 907 329 874 q 326 920 326 913 q 340 964 326 945 q 389 991 350 984 q 415 994 402 994 q 469 984 442 994 q 511 946 498 975 q 525 876 525 911 l 525 872 q 471 702 525 800 q 382 556 432 633 q 344 509 365 530 q 312 487 323 487 q 290 492 300 487 q 268 514 269 501 q 296 581 268 530 q 383 806 380 739 z "},"":{"ha":574,"x_min":2,"x_max":525,"o":"m 117 66 q 79 104 93 77 q 60 168 63 134 q 60 180 60 174 q 75 224 60 205 q 123 252 84 244 q 149 254 136 254 q 203 244 176 254 q 245 206 233 235 q 259 136 259 171 l 259 132 q 205 -38 259 60 q 115 -184 166 -107 q 78 -232 98 -210 q 46 -253 58 -253 q 24 -248 34 -253 q 2 -226 3 -239 q 31 -159 2 -210 q 117 66 114 -1 m 383 66 q 345 104 359 77 q 326 168 329 134 q 326 180 326 174 q 340 224 326 205 q 389 252 350 244 q 415 254 402 254 q 469 244 442 254 q 511 206 498 235 q 525 136 525 172 l 525 132 q 471 -38 525 60 q 382 -184 432 -107 q 344 -231 365 -210 q 312 -253 323 -253 q 290 -248 300 -253 q 268 -226 269 -239 q 296 -159 268 -210 q 383 66 380 -1 z "},"":{"ha":595,"x_min":47,"x_max":548,"o":"m 213 650 q 214 665 213 659 l 214 669 q 212 677 214 675 q 203 678 210 678 l 198 678 q 177 677 191 677 q 154 677 166 677 q 133 676 144 676 q 102 677 117 676 q 61 693 76 680 q 47 725 47 709 q 52 744 47 734 q 104 773 64 770 q 172 774 138 774 q 213 773 193 773 q 212 856 213 806 q 210 973 210 915 q 216 1065 210 1031 q 264 1121 229 1107 q 300 1128 282 1128 q 336 1120 317 1128 q 382 1056 371 1105 q 386 983 386 1022 q 384 925 386 955 q 382 866 382 893 l 382 829 q 384 774 382 802 q 414 774 395 774 q 471 773 442 774 q 513 768 500 772 q 545 738 538 759 q 548 724 548 730 q 538 699 548 711 q 483 677 524 680 q 434 677 458 677 l 384 677 q 382 577 382 628 q 382 515 382 547 l 382 313 q 382 182 382 248 q 385 -81 382 51 q 386 -109 386 -95 q 383 -159 386 -133 q 357 -226 378 -199 q 298 -250 338 -250 q 286 -249 292 -250 q 228 -215 244 -243 q 210 -148 212 -186 q 210 -115 210 -131 q 211 -73 210 -93 q 212 -45 212 -58 q 215 188 215 71 q 214 281 215 235 q 214 400 214 341 q 213 650 214 525 z "},"":{"ha":597,"x_min":47,"x_max":549,"o":"m 502 81 l 383 81 q 385 -105 383 -12 l 385 -127 q 364 -219 385 -181 q 300 -251 347 -251 q 271 -248 287 -251 q 216 -189 224 -235 q 211 -125 211 -157 q 212 -93 211 -109 q 214 -60 214 -75 l 214 81 l 95 81 q 61 95 75 81 q 47 129 47 109 q 61 163 47 149 q 95 177 75 177 l 214 177 l 214 677 l 95 677 q 61 691 75 677 q 47 726 47 705 q 61 759 47 745 q 95 773 75 773 l 214 773 q 213 826 214 791 q 212 970 212 894 q 217 1074 212 1048 q 262 1122 229 1109 q 296 1128 279 1128 q 329 1122 313 1128 q 377 1078 362 1112 q 386 987 385 1052 q 385 863 386 922 q 383 812 383 830 l 383 773 l 502 773 q 535 759 522 773 q 549 726 549 745 q 535 691 549 705 q 502 677 522 677 l 383 677 l 383 177 l 502 177 q 535 163 522 177 q 549 129 549 149 q 535 95 549 109 q 502 81 522 81 z "},"":{"ha":406,"x_min":47,"x_max":358,"o":"m 194 517 l 201 517 q 210 516 205 517 q 316 458 277 507 q 358 349 355 409 l 358 340 q 322 248 358 286 q 212 194 264 194 q 201 195 206 194 q 102 247 142 201 q 50 352 61 292 q 47 380 47 366 q 73 459 47 423 q 194 517 105 507 z "},"":{"ha":1389,"x_min":57,"x_max":1183,"o":"m 180 -54 q 149 -59 165 -59 q 119 -55 134 -59 q 76 -15 92 -45 q 58 48 60 15 q 57 60 57 54 q 66 102 57 85 q 121 132 81 125 q 146 134 134 134 q 201 125 174 134 q 253 75 239 113 q 256 47 256 60 q 243 -3 256 20 q 180 -54 222 -38 m 644 -54 q 612 -59 628 -59 q 583 -55 597 -59 q 539 -15 555 -45 q 521 48 524 15 q 520 60 520 54 q 529 102 520 85 q 584 132 545 125 q 610 134 597 134 q 664 125 637 134 q 716 75 703 113 q 720 47 720 60 q 707 -3 720 20 q 644 -54 686 -38 m 1107 -54 q 1075 -59 1091 -59 q 1046 -55 1061 -59 q 1002 -15 1018 -45 q 984 48 987 15 q 983 60 983 54 q 992 102 983 85 q 1047 132 1008 125 q 1073 134 1060 134 q 1127 125 1100 134 q 1179 75 1166 113 q 1183 47 1183 60 q 1170 -3 1183 20 q 1107 -54 1149 -38 z "},"":{"ha":302,"x_min":47,"x_max":254,"o":"m 243 412 l 157 307 l 243 202 q 254 172 254 189 l 254 168 q 237 135 252 149 q 207 123 223 123 l 202 124 q 170 142 183 126 l 59 275 l 59 276 q 52 286 55 280 q 50 290 52 288 l 50 291 l 50 292 l 50 293 l 49 294 l 49 296 l 48 296 q 47 301 48 299 l 47 309 q 52 327 47 318 l 52 328 l 53 329 l 54 331 l 54 331 l 54 332 l 55 333 l 55 334 l 57 336 l 57 336 l 58 336 l 58 337 l 58 337 l 58 338 l 59 338 l 170 473 q 201 491 182 489 l 205 491 q 237 480 222 491 q 254 448 252 467 l 254 442 q 243 412 254 427 z "},"":{"ha":302,"x_min":47,"x_max":254,"o":"m 58 412 q 47 442 47 427 l 47 448 q 65 480 50 467 q 97 491 80 491 l 100 491 q 132 473 119 489 l 240 341 q 252 322 247 334 q 254 309 254 315 q 248 283 254 292 q 243 275 246 279 l 132 142 q 100 124 119 126 l 95 123 q 65 135 79 123 q 47 168 50 149 l 47 172 q 58 202 47 189 l 144 307 l 58 412 z "},"":{"ha":184,"x_min":-170,"x_max":353,"o":"m 349 898 l 317 827 q 234 648 284 757 q 128 418 184 539 q -15 106 47 241 l -77 -30 q -104 -54 -86 -48 q -121 -58 -113 -58 q -141 -53 -131 -58 q -166 -26 -159 -44 q -170 -9 -170 -18 q -165 10 -170 0 l -102 146 q 41 458 -40 281 q 146 688 96 579 q 229 867 197 797 l 262 938 q 288 963 271 956 q 305 966 296 966 q 325 962 315 966 q 350 935 343 953 q 353 918 353 927 q 349 898 353 908 z "},"":{"ha":692,"x_min":16,"x_max":486,"o":"m 108 296 l 108 311 q 106 730 108 584 q 105 886 105 876 q 112 949 105 918 q 163 1003 121 991 q 239 1006 197 1006 q 309 1004 271 1006 q 382 1002 350 1002 q 399 1003 390 1002 q 416 1004 408 1004 q 452 1000 435 1004 q 485 962 477 994 q 486 953 486 957 q 471 920 486 931 q 429 907 453 907 l 426 907 q 402 909 416 907 q 368 910 385 910 q 332 909 350 910 q 282 883 294 906 q 275 827 275 861 l 275 809 q 276 759 275 783 q 277 732 277 744 l 277 634 q 280 585 277 596 q 316 562 292 564 q 340 560 328 560 q 363 562 352 560 q 383 562 374 562 q 395 563 389 563 q 412 564 404 564 q 452 559 432 564 q 484 519 479 553 l 484 517 q 448 471 484 477 q 401 466 425 466 q 374 467 387 466 q 349 468 359 468 l 341 468 q 290 457 305 468 q 275 403 275 446 l 275 396 l 276 372 l 277 347 l 277 297 l 317 297 q 355 295 351 296 q 382 248 382 277 q 382 242 382 245 q 345 201 380 208 q 296 199 322 199 l 279 199 q 281 106 279 161 l 281 95 q 265 14 281 50 q 189 -31 247 -26 l 184 -31 q 127 -10 144 -31 q 106 45 109 12 q 105 84 105 65 q 106 114 105 99 q 106 136 106 125 l 107 199 l 60 199 q 28 212 41 199 q 16 245 16 223 q 16 256 16 250 q 42 294 21 288 q 72 298 56 298 q 85 297 78 298 q 97 296 92 296 l 108 296 z "},"":{"ha":680,"x_min":47,"x_max":633,"o":"m 99 526 q 56 551 67 530 q 51 574 51 562 q 55 593 51 583 q 92 621 64 614 q 115 623 106 623 q 129 621 123 623 q 137 621 134 621 l 140 621 q 143 627 143 621 q 140 645 143 632 q 123 800 123 720 l 123 817 q 174 979 125 907 q 292 1049 220 1036 q 366 1057 330 1057 q 432 1050 399 1057 q 535 1011 485 1040 q 615 937 585 981 q 623 909 623 923 q 619 891 623 900 q 585 863 608 869 q 576 863 581 863 q 535 884 557 863 q 469 942 507 918 q 410 959 441 959 q 385 956 397 959 q 307 887 326 940 q 291 793 291 844 q 292 772 291 783 q 307 662 296 709 q 317 622 312 642 l 505 622 q 539 608 526 622 q 553 574 553 593 q 539 540 553 554 q 505 526 526 526 l 338 526 q 353 412 349 469 l 505 412 q 547 388 536 408 q 553 363 553 376 q 551 348 553 356 q 521 318 543 327 q 488 316 513 316 q 433 315 463 315 q 378 315 402 315 q 356 316 363 316 q 340 203 354 259 q 330 177 335 190 q 312 115 317 147 q 329 108 321 110 q 347 105 336 106 q 401 94 374 100 q 412 92 407 93 q 465 80 444 83 q 488 79 476 79 q 507 79 497 79 q 564 91 528 82 q 587 94 576 94 q 629 73 618 94 q 633 55 633 64 q 613 14 633 35 q 519 -20 572 -20 l 509 -20 q 391 -1 450 -16 q 317 14 351 9 l 304 14 q 195 -1 252 14 q 131 -14 161 -9 q 110 -15 120 -15 q 79 -11 93 -15 q 47 21 48 1 l 47 23 q 61 62 47 41 q 91 98 76 83 q 162 196 142 152 q 186 316 182 241 l 99 316 q 65 330 79 316 q 51 363 51 344 q 65 398 51 384 q 99 412 79 412 l 184 412 q 167 526 178 471 l 99 526 z "},"":{"ha":1168,"x_min":105,"x_max":1137,"o":"m 261 826 l 261 460 q 358 545 313 491 q 426 665 404 599 q 437 736 437 701 q 429 799 437 768 q 310 922 393 889 q 288 927 297 927 q 273 922 278 927 q 260 890 262 911 q 260 868 260 880 q 260 846 260 857 q 261 826 260 836 m 389 444 q 261 357 332 389 q 263 239 262 298 q 264 120 264 179 l 264 81 q 257 9 264 46 q 229 -50 250 -28 q 189 -66 214 -66 q 166 -63 179 -66 q 119 -20 132 -53 q 105 56 106 14 l 105 81 q 107 138 105 111 q 109 179 109 161 q 110 433 110 307 q 109 752 110 593 q 108 894 109 823 l 108 903 q 136 1015 108 982 q 210 1042 159 1042 q 249 1038 227 1042 q 369 997 311 1029 q 469 913 427 966 q 522 788 510 861 q 524 753 524 770 q 524 729 524 741 l 522 707 q 465 539 510 615 q 511 541 499 541 q 528 540 519 541 l 535 540 q 537 587 536 564 q 539 640 538 613 l 539 679 q 538 709 538 694 q 541 760 538 734 q 563 830 544 801 q 626 865 581 860 q 639 866 633 866 q 692 846 676 866 q 715 785 712 821 q 715 753 715 768 q 714 713 715 733 l 711 675 q 703 541 705 607 q 777 539 741 541 q 803 534 791 538 q 887 574 837 568 q 942 577 915 577 q 983 575 962 577 q 1105 523 1074 561 q 1125 477 1125 498 q 1120 458 1125 467 q 1090 441 1111 441 q 1058 448 1076 441 q 1045 455 1053 452 q 981 481 1017 471 q 964 484 972 484 q 924 465 940 484 q 917 439 917 453 q 924 408 917 425 q 968 341 940 375 q 1020 283 996 308 q 1039 262 1032 271 q 1101 183 1074 224 q 1136 96 1128 142 q 1137 75 1137 85 q 1118 -1 1137 39 q 1034 -64 1089 -48 q 966 -74 1000 -74 q 920 -70 943 -74 q 837 -39 872 -61 q 825 -47 831 -43 q 759 -62 795 -61 l 751 -62 q 695 -57 719 -62 q 601 16 635 -43 q 553 153 568 74 q 536 309 539 233 q 533 421 533 374 l 533 444 q 523 444 528 444 l 513 444 q 389 444 493 444 m 772 444 l 772 444 q 732 444 750 444 l 713 444 q 700 444 706 444 l 700 425 q 702 317 700 384 q 718 154 705 233 q 758 43 730 75 q 776 32 766 35 l 775 33 q 765 70 765 53 q 775 102 765 87 q 798 114 787 114 q 810 111 804 114 q 842 87 827 102 l 848 81 q 850 79 850 80 q 905 39 874 56 q 937 31 920 31 q 970 39 953 31 q 989 75 989 53 q 985 96 989 85 q 939 173 972 133 q 879 242 907 213 q 856 268 863 259 q 802 349 827 302 q 772 444 777 396 z "},"":{"ha":663,"x_min":50,"x_max":624,"o":"m 329 622 l 504 622 q 537 608 524 622 q 551 574 551 593 q 537 540 551 554 q 504 526 524 526 l 325 526 q 324 469 324 497 q 325 412 324 440 l 504 412 q 537 398 524 412 q 551 363 551 384 q 522 320 547 327 q 482 315 504 315 q 467 315 475 315 q 449 316 458 316 l 330 316 q 331 309 331 313 q 340 228 333 280 q 362 127 347 176 q 404 57 377 78 q 427 49 414 49 q 473 68 447 49 q 490 85 480 75 q 541 126 513 109 q 564 134 553 134 q 595 119 581 134 q 606 89 606 105 q 594 52 606 72 q 532 -20 572 13 q 463 -62 492 -53 q 404 -71 433 -71 q 350 -64 376 -71 q 259 2 294 -47 q 195 153 218 65 q 160 316 171 241 l 97 316 q 63 330 77 316 q 50 363 50 344 q 63 398 50 384 q 97 412 77 412 l 149 412 q 144 526 145 469 l 97 526 q 63 540 77 526 q 50 574 50 554 q 63 608 50 593 q 97 622 77 622 l 147 622 q 164 775 151 694 q 210 925 178 856 q 301 1029 241 994 q 400 1055 342 1055 q 458 1049 427 1055 q 562 997 523 1035 q 615 918 601 960 q 624 873 624 892 q 620 848 624 859 q 590 827 612 827 q 578 828 585 827 q 546 850 561 833 q 516 888 530 867 q 469 941 494 921 q 444 950 457 950 q 411 939 429 950 q 365 855 381 915 q 340 730 348 795 q 330 625 332 665 q 329 622 330 623 z "},"":{"ha":1458,"x_min":105,"x_max":1392,"o":"m 671 35 q 632 -15 656 -15 q 625 -14 629 -15 q 566 38 597 -6 q 509 133 534 82 q 471 211 483 184 q 466 222 468 218 q 397 393 431 317 q 360 478 379 435 q 351 498 356 488 q 330 548 340 523 q 285 652 308 601 l 283 656 q 276 668 277 668 l 276 645 q 275 488 275 567 q 281 123 275 306 q 282 96 282 109 q 279 50 282 73 q 254 -11 275 13 q 184 -34 233 -34 q 126 -7 143 -32 q 106 54 109 18 q 105 90 105 72 q 106 124 105 107 q 107 149 106 138 q 109 319 109 234 q 106 532 109 426 l 105 699 l 105 814 q 109 867 105 840 q 134 924 115 901 q 193 947 153 947 q 259 921 233 946 q 302 859 286 896 q 332 785 319 822 q 346 747 339 764 q 355 725 349 739 q 408 593 373 680 q 482 414 443 507 q 553 244 522 321 q 595 159 585 167 l 597 159 q 602 168 600 159 q 605 194 604 178 q 605 224 606 209 q 605 247 605 239 l 605 252 q 578 652 601 465 q 555 913 564 781 l 555 916 q 554 935 554 926 q 555 956 554 945 q 572 993 557 977 q 625 1009 587 1009 q 662 990 651 1009 q 674 943 672 970 q 675 905 675 924 l 675 867 q 682 724 678 797 q 691 446 688 586 q 692 372 692 409 q 686 151 692 250 q 671 35 685 92 m 1141 284 q 1254 344 1213 288 q 1299 468 1295 399 l 1299 481 q 1284 575 1299 530 q 1225 656 1265 627 q 1156 675 1196 675 q 1120 672 1139 675 q 1015 597 1044 654 q 991 505 991 556 q 995 467 991 487 q 1039 349 1004 405 q 1141 284 1075 294 m 979 739 q 1118 764 1041 764 q 1147 763 1133 764 q 1303 707 1240 758 q 1385 551 1369 642 q 1392 485 1392 517 q 1373 373 1392 428 q 1260 236 1341 286 q 1135 195 1200 203 q 1097 192 1116 192 q 1004 208 1050 192 q 886 306 929 235 q 836 464 843 376 q 836 491 836 477 q 864 627 836 562 q 979 739 899 702 m 1123 109 l 1169 109 q 1329 82 1198 109 q 1354 52 1354 66 l 1354 42 q 1308 2 1354 18 l 1270 2 q 958 -3 988 -3 l 955 -3 q 863 44 863 15 l 863 52 q 890 82 863 68 q 939 101 903 101 l 1042 101 q 1123 109 1116 109 z "},"":{"ha":644,"x_min":9,"x_max":554,"o":"m 76 953 q 76 960 76 956 q 76 970 76 965 q 76 981 76 975 q 69 995 75 992 q 57 996 63 996 q 45 995 51 996 q 34 994 40 994 q 22 996 28 994 q 9 1010 12 997 q 9 1015 9 1013 q 14 1026 9 1022 q 31 1033 21 1032 q 73 1036 52 1035 q 97 1038 85 1037 q 112 1040 102 1039 q 145 1043 127 1041 q 179 1045 164 1044 q 193 1046 188 1046 q 199 1046 197 1046 q 217 1035 212 1043 q 218 1028 218 1032 q 215 1019 218 1024 q 193 1008 210 1011 q 177 1006 184 1007 q 159 1003 164 1005 q 152 993 153 1000 q 151 977 151 987 q 152 966 151 972 l 152 960 q 152 876 152 918 l 152 834 q 153 695 152 764 l 153 689 q 152 666 153 678 q 140 641 149 651 q 116 633 132 633 q 109 633 113 633 q 82 650 89 636 q 73 682 74 664 l 73 691 q 75 718 73 705 q 76 734 75 727 q 76 782 76 758 q 76 830 76 806 q 75 887 75 858 l 75 890 q 76 953 75 922 m 219 975 q 218 981 218 978 q 225 1013 218 999 q 260 1028 233 1028 l 262 1028 q 298 1011 286 1026 q 317 976 310 995 q 324 961 320 968 q 350 909 337 935 q 399 818 366 878 q 451 1002 432 946 q 470 1037 456 1022 q 500 1050 481 1050 q 508 1050 504 1050 q 534 1034 527 1046 q 543 1004 542 1021 q 544 982 544 993 q 544 972 544 977 l 544 954 q 546 885 544 921 q 554 662 550 771 q 554 659 554 660 q 550 642 554 650 q 531 632 546 633 q 511 643 518 633 q 502 666 504 654 q 500 686 500 678 l 500 688 q 501 777 500 729 q 503 854 503 817 q 498 939 503 887 q 468 833 487 890 q 434 716 449 776 q 422 705 431 708 q 415 704 419 704 q 406 706 410 704 q 393 720 395 710 q 372 765 383 742 q 296 921 336 845 q 295 850 295 886 q 299 698 295 774 q 299 686 299 692 q 298 667 299 677 q 286 643 296 652 q 259 634 277 634 q 254 635 256 634 q 229 646 236 636 q 220 668 222 655 q 220 684 220 676 q 220 695 220 689 q 220 704 220 699 q 221 756 221 730 q 220 810 221 783 l 220 864 l 220 901 q 219 975 219 938 z "},"":{"ha":576,"x_min":47,"x_max":528,"o":"m 293 -58 q 256 -60 273 -60 q 156 -31 196 -60 q 79 75 104 7 q 49 218 54 142 q 47 264 47 241 q 54 357 47 313 q 102 514 67 436 q 199 625 137 591 q 254 639 224 639 q 356 608 299 639 q 374 600 370 600 q 376 601 376 600 q 377 603 377 602 q 371 621 377 608 l 365 640 q 239 917 317 785 q 220 953 229 931 q 213 987 213 970 q 214 995 213 991 q 237 1025 215 1015 q 252 1027 245 1027 q 289 1012 272 1027 q 331 957 313 990 q 361 898 349 924 q 367 885 364 890 q 450 682 414 786 q 502 499 479 597 q 528 302 525 401 q 528 281 528 291 q 503 115 528 193 q 424 -2 476 39 q 293 -58 372 -43 m 140 300 q 138 262 138 282 q 144 178 138 222 q 192 68 155 111 q 262 38 218 38 q 304 43 281 38 q 391 105 361 62 q 429 202 420 148 q 435 280 435 241 q 435 310 435 295 q 400 427 431 369 q 322 520 370 485 q 268 540 292 540 q 226 522 245 540 q 166 424 187 487 q 141 318 146 361 l 140 300 z "},"":{"ha":749,"x_min":47,"x_max":702,"o":"m 569 545 q 598 427 584 486 q 696 43 646 235 q 702 4 702 21 q 683 -39 702 -27 q 600 -57 654 -57 l 596 -57 q 515 -58 555 -58 l 494 -58 q 410 -60 453 -58 q 387 -62 401 -61 q 219 -67 318 -66 l 205 -67 q 76 -51 117 -67 q 49 -9 52 -36 q 47 11 47 1 q 52 48 47 29 q 68 102 59 77 q 71 113 70 108 q 137 311 103 212 q 224 581 183 444 q 239 629 230 598 q 283 778 257 692 q 335 938 309 865 q 380 1036 361 1012 q 407 1053 395 1053 q 417 1048 412 1053 q 443 1011 433 1037 q 459 964 454 985 q 462 954 460 958 q 545 644 509 800 l 568 550 l 569 545 m 165 47 q 201 41 168 42 q 250 40 223 40 l 277 40 q 353 41 320 40 l 399 41 q 470 40 427 40 l 491 40 q 550 41 523 40 q 591 50 586 43 q 592 54 592 51 q 586 88 592 62 q 568 162 579 121 q 548 237 557 203 q 538 275 541 263 l 489 472 q 405 804 448 638 q 398 821 400 821 q 393 806 396 820 l 389 787 q 283 445 338 616 q 218 235 250 340 q 215 224 218 231 q 196 163 208 202 q 175 90 184 124 q 165 47 165 55 z "},"":{"ha":682,"x_min":47,"x_max":634,"o":"m 144 -192 q 119 -239 143 -227 q 97 -244 108 -244 q 73 -237 85 -244 q 48 -182 50 -224 q 50 7 50 -88 q 50 102 50 55 l 50 379 q 50 585 50 481 q 47 994 50 789 l 47 997 q 54 1019 47 1010 q 74 1035 60 1027 q 160 1049 98 1045 q 282 1053 222 1053 q 345 1055 322 1055 q 359 1057 351 1056 q 485 1060 412 1061 q 592 1038 557 1060 q 626 976 617 1017 q 634 896 634 939 l 634 889 q 630 804 633 843 q 628 770 629 785 q 617 262 617 517 l 617 78 q 618 34 617 66 q 618 -60 618 -7 q 618 -155 618 -113 q 615 -208 617 -197 q 586 -241 608 -233 q 570 -244 578 -244 q 543 -235 556 -244 q 520 -173 523 -219 l 520 -140 q 521 -72 520 -106 q 522 -4 522 -37 q 522 457 522 227 l 522 903 q 508 950 522 942 q 473 956 496 956 q 455 956 465 956 q 448 955 452 956 q 368 954 408 954 l 328 954 q 279 955 303 955 q 206 954 242 955 q 146 930 156 951 q 140 892 140 915 q 142 869 140 881 q 143 842 143 856 q 146 588 146 715 q 145 429 146 509 q 144 245 144 336 q 144 104 144 175 l 144 5 q 144 -192 144 -94 z "},"":{"ha":661,"x_min":47,"x_max":614,"o":"m 199 683 q 152 772 176 728 q 80 917 114 844 l 75 928 q 50 1003 54 967 l 50 1007 q 100 1054 50 1040 q 181 1059 127 1059 q 216 1059 197 1059 q 368 1053 298 1057 q 418 1051 399 1052 q 471 1050 443 1050 q 559 1048 519 1050 q 606 1025 593 1044 q 614 1000 614 1013 q 612 985 614 993 q 583 956 605 965 q 517 951 568 951 l 482 951 q 412 951 448 951 q 337 954 358 952 q 314 955 328 954 q 252 958 284 958 l 241 958 q 192 939 202 957 l 192 935 q 219 864 192 916 q 289 743 250 806 q 350 645 328 680 q 357 633 355 637 q 374 608 366 621 q 422 524 402 568 q 439 448 439 488 q 439 432 439 440 q 387 286 430 378 q 300 111 343 193 q 267 46 281 73 q 239 -9 255 20 q 187 -119 208 -68 q 185 -123 186 -121 q 180 -140 181 -132 l 180 -142 q 189 -151 180 -148 q 241 -153 197 -153 l 340 -153 q 431 -152 395 -153 l 457 -152 q 479 -151 467 -152 q 511 -150 495 -150 q 561 -153 536 -150 q 613 -194 603 -159 q 614 -203 614 -199 q 602 -231 614 -221 q 562 -245 585 -242 q 522 -249 539 -249 q 428 -250 475 -250 l 419 -250 q 326 -253 374 -251 q 233 -255 279 -255 q 157 -254 195 -255 q 68 -237 101 -253 q 47 -194 47 -225 q 53 -157 47 -178 q 113 -23 66 -114 q 214 169 159 68 q 296 323 262 257 q 331 405 330 389 q 309 459 330 414 q 261 559 288 505 q 214 652 234 614 q 199 683 203 674 z "},"":{"ha":506,"x_min":12,"x_max":504,"o":"m 437 528 l 443 528 q 486 516 467 528 q 504 480 504 505 q 503 471 504 476 q 467 432 497 437 q 429 428 448 428 q 406 429 418 428 q 386 430 395 430 q 263 431 325 431 q 100 429 182 431 q 90 429 95 429 q 41 437 66 429 q 12 481 12 446 q 57 524 18 518 q 106 528 82 528 q 136 527 121 528 q 157 526 148 526 l 227 526 q 437 528 332 526 z "},"":{"ha":728,"x_min":47,"x_max":680,"o":"m 583 1000 l 589 1012 q 621 1041 601 1032 q 635 1044 627 1044 q 661 1034 648 1044 q 680 998 680 1018 q 680 991 680 995 q 667 945 677 968 q 663 936 665 941 q 568 672 614 805 q 478 420 525 546 q 469 396 474 408 q 392 196 434 300 q 305 4 351 92 q 301 -4 303 1 q 280 -40 294 -21 q 254 -56 269 -56 l 250 -56 q 184 2 214 -43 q 137 87 155 48 q 132 97 134 92 q 96 157 117 125 q 53 235 68 199 q 47 265 47 252 q 60 298 47 286 q 88 309 73 309 q 114 302 100 309 q 136 279 123 297 q 162 238 149 260 q 184 201 176 216 q 191 189 189 193 q 209 159 201 172 q 242 115 232 115 l 243 115 q 275 180 254 118 q 277 186 276 183 q 450 649 362 418 q 534 869 493 760 q 551 916 543 891 q 583 1000 566 961 z "},"":{"ha":791,"x_min":47,"x_max":743,"o":"m 357 484 q 394 523 374 500 q 499 624 439 575 q 628 677 558 673 q 711 634 685 675 q 741 541 736 593 q 743 504 743 521 q 739 456 743 477 q 641 325 716 359 q 583 313 614 313 q 453 354 526 313 q 412 399 414 378 l 412 401 q 431 428 412 420 q 454 433 442 433 q 479 429 466 433 q 509 416 494 423 q 561 397 534 402 q 570 397 566 397 q 618 415 593 397 q 655 488 646 440 q 659 522 659 505 q 650 570 659 548 q 611 597 639 597 q 593 595 603 597 q 477 496 551 585 q 389 402 441 448 q 273 342 336 355 q 247 340 260 340 q 137 382 195 340 q 75 455 101 410 q 47 549 50 501 l 47 555 q 79 628 47 597 q 165 656 114 656 l 176 655 q 291 627 235 651 q 376 573 347 604 q 393 540 393 555 q 384 519 393 529 q 355 509 371 509 q 329 515 342 509 q 269 546 296 528 q 249 558 257 553 q 185 577 210 577 q 159 569 169 577 q 142 530 142 554 q 145 507 142 519 q 191 439 155 466 q 239 423 212 423 q 283 432 260 423 q 357 484 327 452 z "},"":{"ha":620,"x_min":47,"x_max":572,"o":"m 96 -250 q 55 -229 68 -248 q 47 -206 47 -218 q 53 -184 47 -196 q 69 -165 60 -170 q 87 -158 77 -160 q 111 -147 98 -155 q 137 -114 123 -139 q 164 -35 150 -88 q 222 286 201 117 q 237 392 229 341 q 241 416 239 403 q 269 581 250 482 q 318 780 288 679 q 395 955 349 881 q 506 1044 441 1028 q 522 1046 514 1046 q 562 1029 547 1046 q 572 1002 572 1017 q 567 979 572 991 q 549 959 559 964 q 528 952 539 954 q 501 943 515 949 q 472 917 487 936 q 417 780 441 871 q 375 585 393 688 q 347 398 358 481 q 336 329 341 357 q 333 305 335 319 q 308 158 325 248 q 263 -25 291 68 q 195 -181 236 -117 q 96 -250 153 -245 z "},"":{"ha":591,"x_min":47,"x_max":544,"o":"m 380 493 q 401 495 391 495 q 475 469 439 495 q 539 397 522 437 q 544 371 544 382 q 528 342 544 351 q 509 337 519 337 q 460 355 488 337 q 391 390 416 390 l 389 390 q 317 342 364 388 q 251 286 281 307 q 193 268 223 268 l 185 268 q 103 305 151 270 q 71 334 87 316 q 48 373 54 353 q 47 381 47 377 q 62 412 47 397 q 92 425 77 425 q 102 423 97 425 q 140 403 121 417 q 188 379 163 387 q 202 377 195 377 q 243 391 221 377 q 290 433 270 410 q 329 467 308 451 q 380 493 350 484 m 380 266 q 401 268 391 268 q 475 242 439 268 q 539 170 522 210 q 544 144 544 155 q 528 115 544 123 q 509 110 519 110 q 460 128 488 110 q 391 163 416 163 l 389 163 q 317 115 364 161 q 251 59 281 80 q 193 41 223 41 l 185 41 q 103 78 151 43 q 71 107 87 89 q 48 146 54 125 q 47 154 47 150 q 62 185 47 170 q 92 197 77 197 q 102 196 97 197 q 140 176 121 190 q 188 152 163 160 q 202 150 195 150 q 243 163 221 150 q 290 205 270 183 q 329 240 308 224 q 380 266 350 256 z "},"":{"ha":587,"x_min":12,"x_max":525,"o":"m 460 251 q 508 227 486 243 q 524 194 524 214 q 522 179 524 187 q 488 151 513 155 q 474 151 481 151 q 436 156 456 151 q 385 174 408 164 q 367 180 374 177 l 214 231 q 56 283 134 257 q 28 309 37 291 q 24 328 24 318 q 28 347 24 337 q 66 376 37 366 q 149 404 107 391 q 420 496 285 449 q 478 509 446 507 l 481 509 q 523 479 510 509 q 525 464 525 471 q 513 436 525 448 q 470 409 497 420 q 418 393 442 399 q 399 387 407 389 q 378 380 391 385 q 324 363 355 373 q 268 343 294 353 q 234 328 242 334 q 275 312 242 323 q 348 287 307 300 q 422 263 389 274 q 460 251 448 255 m 437 100 l 443 100 q 486 88 467 100 q 504 52 504 77 q 503 43 504 48 q 467 4 497 9 q 429 0 448 0 q 406 1 418 0 q 386 2 395 2 q 263 3 325 3 q 100 1 182 3 q 90 1 95 1 q 41 9 66 1 q 12 53 12 18 q 57 96 18 90 q 106 100 82 100 q 136 99 121 100 q 157 98 148 98 l 227 98 q 437 100 332 98 z "}}}
